<?xml version="1.0" encoding="iso-8859-1"?>
<!-- Generator: Adobe Illustrator 19.0.0, SVG Export Plug-In . SVG Version: 6.00 Build 0)  -->
<svg version="1.1" id="Capa_1" xmlns="http://www.w3.org/2000/svg" xmlns:xlink="http://www.w3.org/1999/xlink" x="0px" y="0px"
	 viewBox="0 0 511.812 511.812" style="enable-background:new 0 0 511.812 511.812;" xml:space="preserve">
<path style="fill:#94C1FF;" d="M23.992,4H148.43l-9.762,7.037c-1.758,2.483-2.718,5.6-2.718,8.958V59.98v31.988v31.988v31.988
	v31.988v31.988v31.988v31.988v31.988v31.988v31.988v31.988v31.988v31.988v15.993c0,3.358,1.038,6.396,2.718,8.958l9.762,7.036
	H23.992c-8.88,0-15.994-7.114-15.994-15.994V19.994C7.998,11.115,15.112,4,23.992,4z"/>
<path style="fill:#D7E9FF;" d="M15.995,491.819V19.994C15.995,11.115,23.109,4,31.989,4h-7.997c-8.88,0-15.994,7.115-15.994,15.994
	v471.825c0,8.88,7.114,15.994,15.994,15.994h7.997C23.109,507.813,15.995,500.699,15.995,491.819z"/>
<rect x="255.906" y="4" style="fill:#5C9EFF;" width="127.95" height="503.81"/>
<polygon style="fill:#D7E9FF;" points="503.814,59.979 503.814,451.834 423.844,451.834 423.844,347.873 423.844,163.941 
	423.844,59.979 "/>
<polygon style="fill:#5C9EFF;" points="423.844,163.941 423.844,347.873 415.846,347.873 399.852,347.873 399.852,163.941 
	415.846,163.941 "/>
<path style="fill:#94C1FF;" d="M487.82,4H383.858v343.873v159.94H487.82c8.88,0,15.994-7.114,15.994-15.994v-23.991v-15.994h-79.971
	V347.873h-7.997h-15.994V163.941h15.994h7.997V59.979h79.971V43.986V19.994C503.814,11.115,496.7,4,487.82,4z"/>
<g style="opacity:0.2;">
	<path d="M487.82,4h-7.997c8.879,0,15.994,7.115,15.994,15.994v23.991v15.994h7.997V43.986V19.994C503.814,11.115,496.7,4,487.82,4z
		"/>
	<path d="M495.817,467.828v23.991c0,8.88-7.115,15.994-15.994,15.994h7.997c8.88,0,15.994-7.114,15.994-15.994v-23.991v-15.994
		h-7.997V467.828z"/>
</g>
<path style="fill:#94C1FF;" d="M135.951,315.885v-31.988v-31.988v-31.988v-31.988v-31.988v-31.988V91.968V59.979V19.994
	c0-3.358,0.96-6.474,2.718-8.958c2.881-4.241,7.755-7.037,13.276-7.037h103.961v503.813H151.945c-5.521,0-10.396-2.796-13.276-7.036
	c-1.68-2.562-2.718-5.6-2.718-8.958v-15.993v-31.988v-31.988v-31.988v-31.988V315.885z"/>
<g>
	<rect x="135.946" y="43.987" style="fill:#5C9EFF;" width="23.99" height="15.994"/>
	<rect x="135.946" y="75.977" style="fill:#5C9EFF;" width="23.99" height="15.994"/>
	<rect x="135.946" y="107.967" style="fill:#5C9EFF;" width="23.99" height="15.994"/>
	<rect x="135.946" y="139.947" style="fill:#5C9EFF;" width="23.99" height="15.994"/>
	<rect x="135.946" y="171.937" style="fill:#5C9EFF;" width="23.99" height="15.994"/>
	<rect x="135.946" y="203.927" style="fill:#5C9EFF;" width="23.99" height="15.994"/>
	<rect x="135.946" y="235.917" style="fill:#5C9EFF;" width="23.99" height="15.994"/>
	<rect x="135.946" y="267.907" style="fill:#5C9EFF;" width="23.99" height="15.994"/>
	<rect x="135.946" y="299.887" style="fill:#5C9EFF;" width="23.99" height="15.994"/>
	<rect x="135.946" y="331.877" style="fill:#5C9EFF;" width="23.99" height="15.994"/>
	<rect x="135.946" y="363.867" style="fill:#5C9EFF;" width="23.99" height="15.994"/>
	<rect x="135.946" y="395.857" style="fill:#5C9EFF;" width="23.99" height="15.994"/>
	<rect x="135.946" y="427.847" style="fill:#5C9EFF;" width="23.99" height="15.994"/>
	<rect x="135.946" y="459.837" style="fill:#5C9EFF;" width="23.99" height="15.994"/>
</g>
<g>
	<rect x="7.998" y="51.987" style="fill:#D7E9FF;" width="127.95" height="23.991"/>
	<rect x="7.998" y="27.987" style="fill:#D7E9FF;" width="63.977" height="23.991"/>
</g>
<rect x="71.976" y="27.987" style="fill:#94C1FF;" width="63.977" height="23.991"/>
<g>
	<rect x="7.998" y="99.967" style="fill:#D7E9FF;" width="127.95" height="23.991"/>
	<rect x="7.998" y="75.977" style="fill:#D7E9FF;" width="63.977" height="23.991"/>
</g>
<rect x="71.976" y="75.977" style="fill:#94C1FF;" width="63.977" height="23.991"/>
<g>
	<rect x="7.998" y="147.947" style="fill:#D7E9FF;" width="127.95" height="23.991"/>
	<rect x="7.998" y="123.957" style="fill:#D7E9FF;" width="63.977" height="23.991"/>
</g>
<rect x="71.976" y="123.957" style="fill:#94C1FF;" width="63.977" height="23.991"/>
<g>
	<rect x="7.998" y="195.927" style="fill:#D7E9FF;" width="127.95" height="23.991"/>
	<rect x="7.998" y="171.937" style="fill:#D7E9FF;" width="63.977" height="23.991"/>
</g>
<rect x="71.976" y="171.937" style="fill:#94C1FF;" width="63.977" height="23.991"/>
<g>
	<rect x="7.998" y="243.907" style="fill:#D7E9FF;" width="127.95" height="23.991"/>
	<rect x="7.998" y="219.917" style="fill:#D7E9FF;" width="63.977" height="23.991"/>
</g>
<rect x="71.976" y="219.917" style="fill:#94C1FF;" width="63.977" height="23.991"/>
<g>
	<rect x="7.998" y="291.897" style="fill:#D7E9FF;" width="127.95" height="23.991"/>
	<rect x="7.998" y="267.907" style="fill:#D7E9FF;" width="63.977" height="23.991"/>
</g>
<rect x="71.976" y="267.907" style="fill:#94C1FF;" width="63.977" height="23.991"/>
<g>
	<rect x="7.998" y="339.877" style="fill:#D7E9FF;" width="127.95" height="23.991"/>
	<rect x="7.998" y="315.887" style="fill:#D7E9FF;" width="63.977" height="23.991"/>
</g>
<rect x="71.976" y="315.887" style="fill:#94C1FF;" width="63.977" height="23.991"/>
<g>
	<rect x="7.998" y="387.857" style="fill:#D7E9FF;" width="127.95" height="23.991"/>
	<rect x="7.998" y="363.867" style="fill:#D7E9FF;" width="63.977" height="23.991"/>
</g>
<rect x="71.976" y="363.867" style="fill:#94C1FF;" width="63.977" height="23.991"/>
<g>
	<rect x="7.998" y="435.837" style="fill:#D7E9FF;" width="127.95" height="23.992"/>
	<rect x="7.998" y="411.847" style="fill:#D7E9FF;" width="63.977" height="23.99"/>
</g>
<rect x="71.976" y="411.847" style="fill:#94C1FF;" width="63.977" height="23.99"/>
<rect x="7.998" y="459.837" style="fill:#D7E9FF;" width="63.977" height="23.99"/>
<rect x="71.976" y="459.837" style="fill:#94C1FF;" width="63.977" height="23.99"/>
<rect x="423.846" y="59.977" style="fill:#FFFFFF;" width="7.997" height="391.85"/>
<rect x="495.816" y="59.977" style="fill:#94C1FF;" width="7.997" height="391.85"/>
<rect x="7.998" y="27.987" style="fill:#FFFFFF;" width="7.997" height="455.83"/>
<g>
	<path style="fill:#116FFF;" d="M488.062,103.963c-2.21,0-4.038-1.789-4.038-3.999s1.75-3.998,3.952-3.998h0.086
		c2.202,0,3.998,1.788,3.998,3.998S490.264,103.963,488.062,103.963z"/>
	<path style="fill:#116FFF;" d="M472.068,119.957c-2.21,0-4.038-1.789-4.038-3.999s1.75-3.999,3.952-3.999h0.086
		c2.202,0,3.998,1.789,3.998,3.999S474.27,119.957,472.068,119.957z"/>
	<path style="fill:#116FFF;" d="M456.074,135.951c-2.21,0-4.038-1.789-4.038-3.999s1.75-3.999,3.952-3.999h0.086
		c2.202,0,3.998,1.789,3.998,3.999S458.276,135.951,456.074,135.951z"/>
	<path style="fill:#116FFF;" d="M440.08,151.946c-2.21,0-4.038-1.789-4.038-3.999s1.75-3.999,3.952-3.999h0.086
		c2.202,0,3.999,1.789,3.999,3.999S442.282,151.946,440.08,151.946z"/>
	<path style="fill:#116FFF;" d="M488.062,127.954c-2.21,0-4.038-1.789-4.038-3.999s1.75-3.999,3.952-3.999h0.086
		c2.202,0,3.998,1.789,3.998,3.999S490.264,127.954,488.062,127.954z"/>
	<path style="fill:#116FFF;" d="M472.068,143.949c-2.21,0-4.038-1.789-4.038-3.999s1.75-3.999,3.952-3.999h0.086
		c2.202,0,3.998,1.789,3.998,3.999S474.27,143.949,472.068,143.949z"/>
	<path style="fill:#116FFF;" d="M456.074,159.942c-2.21,0-4.038-1.788-4.038-3.998s1.75-3.999,3.952-3.999h0.086
		c2.202,0,3.998,1.789,3.998,3.999S458.276,159.942,456.074,159.942z"/>
	<path style="fill:#116FFF;" d="M440.08,175.936c-2.21,0-4.038-1.788-4.038-3.998s1.75-3.999,3.952-3.999h0.086
		c2.202,0,3.999,1.789,3.999,3.999S442.282,175.936,440.08,175.936z"/>
	<path style="fill:#116FFF;" d="M488.062,151.946c-2.21,0-4.038-1.789-4.038-3.999s1.75-3.999,3.952-3.999h0.086
		c2.202,0,3.998,1.789,3.998,3.999S490.264,151.946,488.062,151.946z"/>
	<path style="fill:#116FFF;" d="M472.068,167.939c-2.21,0-4.038-1.788-4.038-3.998s1.75-3.999,3.952-3.999h0.086
		c2.202,0,3.998,1.789,3.998,3.999S474.27,167.939,472.068,167.939z"/>
	<path style="fill:#116FFF;" d="M456.074,183.933c-2.21,0-4.038-1.788-4.038-3.998s1.75-3.999,3.952-3.999h0.086
		c2.202,0,3.998,1.789,3.998,3.999C460.072,182.145,458.276,183.933,456.074,183.933z"/>
	<path style="fill:#116FFF;" d="M440.08,199.928c-2.21,0-4.038-1.788-4.038-3.998s1.75-3.999,3.952-3.999h0.086
		c2.202,0,3.999,1.789,3.999,3.999C444.079,198.139,442.282,199.928,440.08,199.928z"/>
	<path style="fill:#116FFF;" d="M488.062,175.936c-2.21,0-4.038-1.788-4.038-3.998s1.75-3.999,3.952-3.999h0.086
		c2.202,0,3.998,1.789,3.998,3.999S490.264,175.936,488.062,175.936z"/>
	<path style="fill:#116FFF;" d="M472.068,191.93c-2.21,0-4.038-1.788-4.038-3.998s1.75-3.999,3.952-3.999h0.086
		c2.202,0,3.998,1.789,3.998,3.999C476.066,190.142,474.27,191.93,472.068,191.93z"/>
	<path style="fill:#116FFF;" d="M456.074,207.925c-2.21,0-4.038-1.788-4.038-3.998s1.75-3.999,3.952-3.999h0.086
		c2.202,0,3.998,1.789,3.998,3.999C460.072,206.136,458.276,207.925,456.074,207.925z"/>
	<path style="fill:#116FFF;" d="M440.08,223.919c-2.21,0-4.038-1.788-4.038-3.999c0-2.21,1.75-3.999,3.952-3.999h0.086
		c2.202,0,3.999,1.789,3.999,3.999C444.079,222.131,442.282,223.919,440.08,223.919z"/>
	<path style="fill:#116FFF;" d="M488.062,199.928c-2.21,0-4.038-1.788-4.038-3.998s1.75-3.999,3.952-3.999h0.086
		c2.202,0,3.998,1.789,3.998,3.999C492.06,198.139,490.264,199.928,488.062,199.928z"/>
	<path style="fill:#116FFF;" d="M472.068,215.922c-2.21,0-4.038-1.788-4.038-3.999c0-2.21,1.75-3.999,3.952-3.999h0.086
		c2.202,0,3.998,1.789,3.998,3.999C476.066,214.134,474.27,215.922,472.068,215.922z"/>
	<path style="fill:#116FFF;" d="M456.074,231.916c-2.21,0-4.038-1.788-4.038-3.999c0-2.21,1.75-3.999,3.952-3.999h0.086
		c2.202,0,3.998,1.789,3.998,3.999C460.072,230.128,458.276,231.916,456.074,231.916z"/>
	<path style="fill:#116FFF;" d="M440.08,247.91c-2.21,0-4.038-1.789-4.038-3.999c0-2.21,1.75-3.999,3.952-3.999h0.086
		c2.202,0,3.999,1.788,3.999,3.999C444.079,246.121,442.282,247.91,440.08,247.91z"/>
	<path style="fill:#116FFF;" d="M488.062,223.919c-2.21,0-4.038-1.788-4.038-3.999c0-2.21,1.75-3.999,3.952-3.999h0.086
		c2.202,0,3.998,1.789,3.998,3.999C492.06,222.131,490.264,223.919,488.062,223.919z"/>
	<path style="fill:#116FFF;" d="M472.068,239.913c-2.21,0-4.038-1.788-4.038-3.999s1.75-3.999,3.952-3.999h0.086
		c2.202,0,3.998,1.788,3.998,3.999S474.27,239.913,472.068,239.913z"/>
	<path style="fill:#116FFF;" d="M456.074,255.907c-2.21,0-4.038-1.789-4.038-3.999c0-2.21,1.75-3.999,3.952-3.999h0.086
		c2.202,0,3.998,1.788,3.998,3.999C460.072,254.118,458.276,255.907,456.074,255.907z"/>
	<path style="fill:#116FFF;" d="M440.08,271.901c-2.21,0-4.038-1.788-4.038-3.999c0-2.21,1.75-3.998,3.952-3.998h0.086
		c2.202,0,3.999,1.788,3.999,3.998C444.079,270.113,442.282,271.901,440.08,271.901z"/>
	<path style="fill:#116FFF;" d="M488.062,247.91c-2.21,0-4.038-1.789-4.038-3.999c0-2.21,1.75-3.999,3.952-3.999h0.086
		c2.202,0,3.998,1.788,3.998,3.999C492.06,246.121,490.264,247.91,488.062,247.91z"/>
	<path style="fill:#116FFF;" d="M472.068,263.904c-2.21,0-4.038-1.789-4.038-3.998c0-2.211,1.75-3.999,3.952-3.999h0.086
		c2.202,0,3.998,1.788,3.998,3.999C476.066,262.115,474.27,263.904,472.068,263.904z"/>
	<path style="fill:#116FFF;" d="M456.074,279.898c-2.21,0-4.038-1.789-4.038-3.999s1.75-3.998,3.952-3.998h0.086
		c2.202,0,3.998,1.788,3.998,3.998S458.276,279.898,456.074,279.898z"/>
	<path style="fill:#116FFF;" d="M440.08,295.892c-2.21,0-4.038-1.789-4.038-3.999s1.75-3.998,3.952-3.998h0.086
		c2.202,0,3.999,1.788,3.999,3.998S442.282,295.892,440.08,295.892z"/>
	<path style="fill:#116FFF;" d="M488.062,271.901c-2.21,0-4.038-1.788-4.038-3.999c0-2.21,1.75-3.998,3.952-3.998h0.086
		c2.202,0,3.998,1.788,3.998,3.998C492.06,270.113,490.264,271.901,488.062,271.901z"/>
	<path style="fill:#116FFF;" d="M472.068,287.895c-2.21,0-4.038-1.788-4.038-3.999c0-2.21,1.75-3.998,3.952-3.998h0.086
		c2.202,0,3.998,1.788,3.998,3.998C476.066,286.107,474.27,287.895,472.068,287.895z"/>
	<path style="fill:#116FFF;" d="M456.074,303.889c-2.21,0-4.038-1.789-4.038-3.999s1.75-3.998,3.952-3.998h0.086
		c2.202,0,3.998,1.788,3.998,3.998S458.276,303.889,456.074,303.889z"/>
	<path style="fill:#116FFF;" d="M440.08,319.883c-2.21,0-4.038-1.788-4.038-3.998s1.75-3.998,3.952-3.998h0.086
		c2.202,0,3.999,1.788,3.999,3.998S442.282,319.883,440.08,319.883z"/>
	<path style="fill:#116FFF;" d="M488.062,295.892c-2.21,0-4.038-1.789-4.038-3.999s1.75-3.998,3.952-3.998h0.086
		c2.202,0,3.998,1.788,3.998,3.998S490.264,295.892,488.062,295.892z"/>
	<path style="fill:#116FFF;" d="M472.068,311.886c-2.21,0-4.038-1.789-4.038-3.999s1.75-3.998,3.952-3.998h0.086
		c2.202,0,3.998,1.788,3.998,3.998S474.27,311.886,472.068,311.886z"/>
	<path style="fill:#116FFF;" d="M456.074,327.881c-2.21,0-4.038-1.789-4.038-3.999s1.75-3.999,3.952-3.999h0.086
		c2.202,0,3.998,1.789,3.998,3.999S458.276,327.881,456.074,327.881z"/>
	<path style="fill:#116FFF;" d="M440.08,343.875c-2.21,0-4.038-1.789-4.038-3.999s1.75-3.999,3.952-3.999h0.086
		c2.202,0,3.999,1.789,3.999,3.999S442.282,343.875,440.08,343.875z"/>
	<path style="fill:#116FFF;" d="M488.062,319.883c-2.21,0-4.038-1.788-4.038-3.998s1.75-3.998,3.952-3.998h0.086
		c2.202,0,3.998,1.788,3.998,3.998S490.264,319.883,488.062,319.883z"/>
	<path style="fill:#116FFF;" d="M472.068,335.877c-2.21,0-4.038-1.788-4.038-3.998s1.75-3.998,3.952-3.998h0.086
		c2.202,0,3.998,1.788,3.998,3.998S474.27,335.877,472.068,335.877z"/>
	<path style="fill:#116FFF;" d="M456.074,351.871c-2.21,0-4.038-1.788-4.038-3.998s1.75-3.998,3.952-3.998h0.086
		c2.202,0,3.998,1.788,3.998,3.998S458.276,351.871,456.074,351.871z"/>
	<path style="fill:#116FFF;" d="M440.08,367.865c-2.21,0-4.038-1.788-4.038-3.998s1.75-3.998,3.952-3.998h0.086
		c2.202,0,3.999,1.788,3.999,3.998S442.282,367.865,440.08,367.865z"/>
	<path style="fill:#116FFF;" d="M488.062,343.875c-2.21,0-4.038-1.789-4.038-3.999s1.75-3.999,3.952-3.999h0.086
		c2.202,0,3.998,1.789,3.998,3.999S490.264,343.875,488.062,343.875z"/>
	<path style="fill:#116FFF;" d="M472.068,359.869c-2.21,0-4.038-1.789-4.038-3.999s1.75-3.999,3.952-3.999h0.086
		c2.202,0,3.998,1.789,3.998,3.999S474.27,359.869,472.068,359.869z"/>
	<path style="fill:#116FFF;" d="M456.074,375.862c-2.21,0-4.038-1.788-4.038-3.998s1.75-3.999,3.952-3.999h0.086
		c2.202,0,3.998,1.789,3.998,3.999S458.276,375.862,456.074,375.862z"/>
	<path style="fill:#116FFF;" d="M440.08,391.856c-2.21,0-4.038-1.788-4.038-3.998s1.75-3.999,3.952-3.999h0.086
		c2.202,0,3.999,1.789,3.999,3.999S442.282,391.856,440.08,391.856z"/>
	<path style="fill:#116FFF;" d="M488.062,367.865c-2.21,0-4.038-1.788-4.038-3.998s1.75-3.998,3.952-3.998h0.086
		c2.202,0,3.998,1.788,3.998,3.998S490.264,367.865,488.062,367.865z"/>
	<path style="fill:#116FFF;" d="M472.068,383.859c-2.21,0-4.038-1.788-4.038-3.998s1.75-3.999,3.952-3.999h0.086
		c2.202,0,3.998,1.789,3.998,3.999S474.27,383.859,472.068,383.859z"/>
	<path style="fill:#116FFF;" d="M456.074,399.853c-2.21,0-4.038-1.788-4.038-3.998c0-2.211,1.75-3.999,3.952-3.999h0.086
		c2.202,0,3.998,1.788,3.998,3.999C460.072,398.065,458.276,399.853,456.074,399.853z"/>
	<path style="fill:#116FFF;" d="M440.08,415.847c-2.21,0-4.038-1.788-4.038-3.998c0-2.211,1.75-3.999,3.952-3.999h0.086
		c2.202,0,3.999,1.788,3.999,3.999C444.079,414.059,442.282,415.847,440.08,415.847z"/>
	<path style="fill:#116FFF;" d="M487.82,7.999H383.858c-2.21,0-3.998-1.788-3.998-3.999c0-2.21,1.788-3.999,3.998-3.999H487.82
		c2.21,0,3.998,1.789,3.998,3.999C491.818,6.211,490.03,7.999,487.82,7.999z"/>
	<path style="fill:#116FFF;" d="M503.814,23.993c-2.21,0-3.999-1.788-3.999-3.999c0-6.724-5.271-11.996-11.995-11.996
		c-2.21,0-3.999-1.788-3.999-3.999c0-2.21,1.789-3.999,3.999-3.999c11.027,0,19.992,8.966,19.992,19.993
		C507.812,22.205,506.024,23.993,503.814,23.993z"/>
	<path style="fill:#116FFF;" d="M487.82,511.812H383.858c-2.21,0-3.998-1.789-3.998-3.999s1.788-3.998,3.998-3.998H487.82
		c2.21,0,3.998,1.788,3.998,3.998S490.03,511.812,487.82,511.812z"/>
	<path style="fill:#116FFF;" d="M487.82,511.812c-2.21,0-3.999-1.789-3.999-3.999s1.789-3.998,3.999-3.998
		c6.724,0,11.995-5.271,11.995-11.996c0-2.21,1.789-3.998,3.999-3.998s3.998,1.788,3.998,3.998
		C507.812,502.846,498.847,511.812,487.82,511.812z"/>
	<path style="fill:#116FFF;" d="M503.814,495.818c-2.21,0-3.999-1.789-3.999-3.999v-31.987c0-2.211,1.789-3.999,3.999-3.999
		s3.998,1.788,3.998,3.999v31.987C507.812,494.029,506.024,495.818,503.814,495.818z"/>
	<path style="fill:#116FFF;" d="M383.858,511.812c-2.21,0-3.998-1.789-3.998-3.999V4c0-2.21,1.788-3.999,3.998-3.999
		c2.211,0,3.999,1.789,3.999,3.999v503.813C387.857,510.023,386.069,511.812,383.858,511.812z"/>
	<path style="fill:#116FFF;" d="M503.814,455.833h-79.971c-2.21,0-3.998-1.788-3.998-3.999c0-2.21,1.788-3.998,3.998-3.998h79.971
		c2.21,0,3.998,1.788,3.998,3.998C507.812,454.045,506.024,455.833,503.814,455.833z"/>
	<path style="fill:#116FFF;" d="M503.814,55.981c-2.21,0-3.999-1.789-3.999-3.999V19.994c0-2.21,1.789-3.999,3.999-3.999
		s3.998,1.788,3.998,3.999v31.988C507.812,54.193,506.024,55.981,503.814,55.981z"/>
	<path style="fill:#116FFF;" d="M255.906,511.812H151.945c-2.211,0-3.999-1.789-3.999-3.999s1.788-3.998,3.999-3.998h103.961
		c2.21,0,3.999,1.788,3.999,3.998S258.116,511.812,255.906,511.812z"/>
	<path style="fill:#116FFF;" d="M151.945,511.812c-6.646,0-12.848-3.288-16.58-8.786c-2.249-3.421-3.413-7.278-3.413-11.207
		c0-2.21,1.788-3.998,3.999-3.998c2.21,0,3.998,1.788,3.998,3.998c0,2.397,0.695,4.679,2.062,6.764
		c2.21,3.257,5.943,5.232,9.935,5.232c2.21,0,3.998,1.788,3.998,3.998S154.155,511.812,151.945,511.812z"/>
	<path style="fill:#116FFF;" d="M255.906,7.999H151.945c-2.211,0-3.999-1.788-3.999-3.999c0-2.21,1.788-3.999,3.999-3.999h103.961
		c2.21,0,3.999,1.789,3.999,3.999C259.905,6.211,258.116,7.999,255.906,7.999z"/>
	<path style="fill:#116FFF;" d="M135.951,23.993c-2.211,0-3.999-1.788-3.999-3.999c0-4.178,1.195-8.075,3.452-11.269
		c3.693-5.436,9.895-8.724,16.541-8.724c2.21,0,3.998,1.789,3.998,3.999s-1.788,3.999-3.998,3.999c-3.991,0-7.725,1.976-9.974,5.287
		c-1.335,1.897-2.022,4.194-2.022,6.708C139.949,22.205,138.161,23.993,135.951,23.993z"/>
	<path style="fill:#116FFF;" d="M7.998,23.993C5.788,23.993,4,22.205,4,19.994C4,8.967,12.965,0.001,23.992,0.001
		c2.21,0,3.999,1.789,3.999,3.999s-1.789,3.999-3.999,3.999c-6.724,0-11.995,5.271-11.995,11.996
		C11.997,22.205,10.208,23.993,7.998,23.993z"/>
	<path style="fill:#116FFF;" d="M255.906,511.812c-2.21,0-3.998-1.789-3.998-3.999V4c0-2.21,1.788-3.999,3.998-3.999
		c2.21,0,3.999,1.789,3.999,3.999v503.813C259.905,510.023,258.116,511.812,255.906,511.812z"/>
	<path style="fill:#116FFF;" d="M135.951,495.818c-2.211,0-3.999-1.789-3.999-3.999V19.994c0-2.21,1.788-3.999,3.999-3.999
		c2.21,0,3.998,1.788,3.998,3.999v471.825C139.949,494.029,138.161,495.818,135.951,495.818z"/>
	<path style="fill:#116FFF;" d="M503.814,63.978h-79.971c-2.21,0-3.998-1.789-3.998-3.999s1.788-3.998,3.998-3.998h79.971
		c2.21,0,3.998,1.788,3.998,3.998C507.812,62.19,506.024,63.978,503.814,63.978z"/>
	<path style="fill:#116FFF;" d="M423.844,455.833c-2.21,0-3.998-1.788-3.998-3.999V59.979c0-2.21,1.788-3.998,3.998-3.998
		s3.999,1.788,3.999,3.998v391.854C427.843,454.045,426.053,455.833,423.844,455.833z"/>
	<path style="fill:#116FFF;" d="M503.814,455.833c-2.21,0-3.999-1.788-3.999-3.999V59.979c0-2.21,1.789-3.998,3.999-3.998
		s3.998,1.788,3.998,3.998v391.854C507.812,454.045,506.024,455.833,503.814,455.833z"/>
	<path style="fill:#116FFF;" d="M415.846,167.939h-15.994c-2.21,0-3.998-1.788-3.998-3.998s1.788-3.999,3.998-3.999h15.994
		c2.21,0,3.999,1.789,3.999,3.999S418.056,167.939,415.846,167.939z"/>
	<path style="fill:#116FFF;" d="M399.852,351.871c-2.21,0-3.998-1.788-3.998-3.998V163.941c0-2.21,1.788-3.999,3.998-3.999
		c2.211,0,3.999,1.789,3.999,3.999v183.932C403.851,350.083,402.063,351.871,399.852,351.871z"/>
	<path style="fill:#116FFF;" d="M415.846,351.871h-15.994c-2.21,0-3.998-1.788-3.998-3.998s1.788-3.998,3.998-3.998h15.994
		c2.21,0,3.999,1.788,3.999,3.998S418.056,351.871,415.846,351.871z"/>
	<path style="fill:#116FFF;" d="M367.864,511.812c-2.21,0-3.998-1.789-3.998-3.999V4c0-2.21,1.788-3.999,3.998-3.999
		c2.211,0,3.999,1.789,3.999,3.999v503.813C371.863,510.023,370.075,511.812,367.864,511.812z"/>
	<path style="fill:#116FFF;" d="M351.87,511.812c-2.21,0-3.998-1.789-3.998-3.999V4c0-2.21,1.788-3.999,3.998-3.999
		c2.211,0,3.999,1.789,3.999,3.999v503.813C355.869,510.023,354.081,511.812,351.87,511.812z"/>
	<path style="fill:#116FFF;" d="M335.876,511.812c-2.21,0-3.998-1.789-3.998-3.999V4c0-2.21,1.788-3.999,3.998-3.999
		c2.211,0,3.999,1.789,3.999,3.999v503.813C339.875,510.023,338.087,511.812,335.876,511.812z"/>
	<path style="fill:#116FFF;" d="M319.882,511.812c-2.209,0-3.998-1.789-3.998-3.999V4c0-2.21,1.789-3.999,3.998-3.999
		c2.211,0,3.999,1.789,3.999,3.999v503.813C323.881,510.023,322.093,511.812,319.882,511.812z"/>
	<path style="fill:#116FFF;" d="M303.888,511.812c-2.21,0-3.999-1.789-3.999-3.999V4c0-2.21,1.789-3.999,3.999-3.999
		S307.886,1.79,307.886,4v503.813C307.886,510.023,306.098,511.812,303.888,511.812z"/>
	<path style="fill:#116FFF;" d="M287.894,511.812c-2.21,0-3.999-1.789-3.999-3.999V4c0-2.21,1.789-3.999,3.999-3.999
		S291.892,1.79,291.892,4v503.813C291.892,510.023,290.104,511.812,287.894,511.812z"/>
	<path style="fill:#116FFF;" d="M271.9,511.812c-2.21,0-3.999-1.789-3.999-3.999V4c0-2.21,1.789-3.999,3.999-3.999
		S275.898,1.79,275.898,4v503.813C275.898,510.023,274.11,511.812,271.9,511.812z"/>
	<path style="fill:#116FFF;" d="M183.932,495.818c-2.21,0-3.998-1.789-3.998-3.999V19.994c0-2.21,1.788-3.999,3.998-3.999
		c2.211,0,3.999,1.788,3.999,3.999v471.825C187.931,494.029,186.143,495.818,183.932,495.818z"/>
	<path style="fill:#116FFF;" d="M159.941,47.984h-23.03c-2.21,0-3.998-1.789-3.998-3.999s1.788-3.999,3.998-3.999h23.03
		c2.211,0,3.999,1.788,3.999,3.999S162.152,47.984,159.941,47.984z"/>
	<path style="fill:#116FFF;" d="M159.941,63.978c-2.21,0-3.998-1.789-3.998-3.999V43.986c0-2.21,1.788-3.999,3.998-3.999
		c2.211,0,3.999,1.788,3.999,3.999V59.98C163.94,62.19,162.152,63.978,159.941,63.978z"/>
	<path style="fill:#116FFF;" d="M159.941,63.978h-23.99c-2.211,0-3.999-1.789-3.999-3.999s1.788-3.998,3.999-3.998h23.99
		c2.211,0,3.999,1.788,3.999,3.998C163.94,62.19,162.152,63.978,159.941,63.978z"/>
	<path style="fill:#116FFF;" d="M159.941,79.972h-23.03c-2.21,0-3.998-1.789-3.998-3.999s1.788-3.998,3.998-3.998h23.03
		c2.211,0,3.999,1.788,3.999,3.998C163.94,78.184,162.152,79.972,159.941,79.972z"/>
	<path style="fill:#116FFF;" d="M159.941,95.967c-2.21,0-3.998-1.789-3.998-3.999V75.973c0-2.21,1.788-3.998,3.998-3.998
		c2.211,0,3.999,1.788,3.999,3.998v15.994C163.94,94.178,162.152,95.967,159.941,95.967z"/>
	<path style="fill:#116FFF;" d="M159.941,95.967h-23.99c-2.211,0-3.999-1.789-3.999-3.999s1.788-3.998,3.999-3.998h23.99
		c2.211,0,3.999,1.788,3.999,3.998S162.152,95.967,159.941,95.967z"/>
	<path style="fill:#116FFF;" d="M159.941,111.96h-23.03c-2.21,0-3.998-1.789-3.998-3.999s1.788-3.999,3.998-3.999h23.03
		c2.211,0,3.999,1.789,3.999,3.999S162.152,111.96,159.941,111.96z"/>
	<path style="fill:#116FFF;" d="M159.941,127.954c-2.21,0-3.998-1.789-3.998-3.999v-15.994c0-2.21,1.788-3.999,3.998-3.999
		c2.211,0,3.999,1.789,3.999,3.999v15.994C163.94,126.166,162.152,127.954,159.941,127.954z"/>
	<path style="fill:#116FFF;" d="M159.941,127.954h-23.99c-2.211,0-3.999-1.789-3.999-3.999s1.788-3.999,3.999-3.999h23.99
		c2.211,0,3.999,1.789,3.999,3.999S162.152,127.954,159.941,127.954z"/>
	<path style="fill:#116FFF;" d="M159.941,143.949h-23.03c-2.21,0-3.998-1.789-3.998-3.999s1.788-3.999,3.998-3.999h23.03
		c2.211,0,3.999,1.789,3.999,3.999S162.152,143.949,159.941,143.949z"/>
	<path style="fill:#116FFF;" d="M159.941,159.942c-2.21,0-3.998-1.788-3.998-3.998V139.95c0-2.21,1.788-3.999,3.998-3.999
		c2.211,0,3.999,1.789,3.999,3.999v15.994C163.94,158.154,162.152,159.942,159.941,159.942z"/>
	<path style="fill:#116FFF;" d="M159.941,159.942h-23.99c-2.211,0-3.999-1.788-3.999-3.998s1.788-3.999,3.999-3.999h23.99
		c2.211,0,3.999,1.789,3.999,3.999S162.152,159.942,159.941,159.942z"/>
	<path style="fill:#116FFF;" d="M159.941,175.936h-23.03c-2.21,0-3.998-1.788-3.998-3.998s1.788-3.999,3.998-3.999h23.03
		c2.211,0,3.999,1.789,3.999,3.999S162.152,175.936,159.941,175.936z"/>
	<path style="fill:#116FFF;" d="M159.941,191.93c-2.21,0-3.998-1.788-3.998-3.998v-15.994c0-2.21,1.788-3.999,3.998-3.999
		c2.211,0,3.999,1.789,3.999,3.999v15.994C163.94,190.142,162.152,191.93,159.941,191.93z"/>
	<path style="fill:#116FFF;" d="M159.941,191.93h-23.99c-2.211,0-3.999-1.788-3.999-3.998s1.788-3.999,3.999-3.999h23.99
		c2.211,0,3.999,1.789,3.999,3.999C163.94,190.142,162.152,191.93,159.941,191.93z"/>
	<path style="fill:#116FFF;" d="M159.941,207.925h-23.03c-2.21,0-3.998-1.788-3.998-3.998s1.788-3.999,3.998-3.999h23.03
		c2.211,0,3.999,1.789,3.999,3.999C163.94,206.136,162.152,207.925,159.941,207.925z"/>
	<path style="fill:#116FFF;" d="M159.941,223.919c-2.21,0-3.998-1.788-3.998-3.999v-15.993c0-2.21,1.788-3.999,3.998-3.999
		c2.211,0,3.999,1.789,3.999,3.999v15.994C163.94,222.131,162.152,223.919,159.941,223.919z"/>
	<path style="fill:#116FFF;" d="M159.941,223.919h-23.99c-2.211,0-3.999-1.788-3.999-3.999c0-2.21,1.788-3.999,3.999-3.999h23.99
		c2.211,0,3.999,1.789,3.999,3.999C163.94,222.131,162.152,223.919,159.941,223.919z"/>
	<path style="fill:#116FFF;" d="M159.941,239.913h-23.03c-2.21,0-3.998-1.788-3.998-3.999s1.788-3.999,3.998-3.999h23.03
		c2.211,0,3.999,1.788,3.999,3.999S162.152,239.913,159.941,239.913z"/>
	<path style="fill:#116FFF;" d="M159.941,255.907c-2.21,0-3.998-1.789-3.998-3.999v-15.994c0-2.21,1.788-3.999,3.998-3.999
		c2.211,0,3.999,1.788,3.999,3.999v15.994C163.94,254.118,162.152,255.907,159.941,255.907z"/>
	<path style="fill:#116FFF;" d="M159.941,255.907h-23.99c-2.211,0-3.999-1.789-3.999-3.999c0-2.21,1.788-3.999,3.999-3.999h23.99
		c2.211,0,3.999,1.788,3.999,3.999C163.94,254.118,162.152,255.907,159.941,255.907z"/>
	<path style="fill:#116FFF;" d="M159.941,271.901h-23.03c-2.21,0-3.998-1.788-3.998-3.999c0-2.21,1.788-3.998,3.998-3.998h23.03
		c2.211,0,3.999,1.788,3.999,3.998C163.94,270.113,162.152,271.901,159.941,271.901z"/>
	<path style="fill:#116FFF;" d="M159.941,287.895c-2.21,0-3.998-1.788-3.998-3.999v-15.994c0-2.21,1.788-3.998,3.998-3.998
		c2.211,0,3.999,1.788,3.999,3.998v15.994C163.94,286.107,162.152,287.895,159.941,287.895z"/>
	<path style="fill:#116FFF;" d="M159.941,287.895h-23.99c-2.211,0-3.999-1.788-3.999-3.999c0-2.21,1.788-3.998,3.999-3.998h23.99
		c2.211,0,3.999,1.788,3.999,3.998C163.94,286.107,162.152,287.895,159.941,287.895z"/>
	<path style="fill:#116FFF;" d="M159.941,303.889h-23.03c-2.21,0-3.998-1.789-3.998-3.999s1.788-3.998,3.998-3.998h23.03
		c2.211,0,3.999,1.788,3.999,3.998S162.152,303.889,159.941,303.889z"/>
	<path style="fill:#116FFF;" d="M159.941,319.883c-2.21,0-3.998-1.788-3.998-3.998v-15.994c0-2.21,1.788-3.998,3.998-3.998
		c2.211,0,3.999,1.788,3.999,3.998v15.994C163.94,318.095,162.152,319.883,159.941,319.883z"/>
	<path style="fill:#116FFF;" d="M159.941,319.883h-23.99c-2.211,0-3.999-1.788-3.999-3.998s1.788-3.998,3.999-3.998h23.99
		c2.211,0,3.999,1.788,3.999,3.998S162.152,319.883,159.941,319.883z"/>
	<path style="fill:#116FFF;" d="M159.941,335.877h-23.03c-2.21,0-3.998-1.788-3.998-3.998s1.788-3.998,3.998-3.998h23.03
		c2.211,0,3.999,1.788,3.999,3.998S162.152,335.877,159.941,335.877z"/>
	<path style="fill:#116FFF;" d="M159.941,351.871c-2.21,0-3.998-1.788-3.998-3.998v-15.994c0-2.21,1.788-3.998,3.998-3.998
		c2.211,0,3.999,1.788,3.999,3.998v15.994C163.94,350.083,162.152,351.871,159.941,351.871z"/>
	<path style="fill:#116FFF;" d="M159.941,351.871h-23.99c-2.211,0-3.999-1.788-3.999-3.998s1.788-3.998,3.999-3.998h23.99
		c2.211,0,3.999,1.788,3.999,3.998S162.152,351.871,159.941,351.871z"/>
	<path style="fill:#116FFF;" d="M159.941,367.865h-23.03c-2.21,0-3.998-1.788-3.998-3.998s1.788-3.998,3.998-3.998h23.03
		c2.211,0,3.999,1.788,3.999,3.998S162.152,367.865,159.941,367.865z"/>
	<path style="fill:#116FFF;" d="M159.941,383.859c-2.21,0-3.998-1.788-3.998-3.998v-15.994c0-2.21,1.788-3.998,3.998-3.998
		c2.211,0,3.999,1.788,3.999,3.998v15.994C163.94,382.071,162.152,383.859,159.941,383.859z"/>
	<path style="fill:#116FFF;" d="M159.941,383.859h-23.99c-2.211,0-3.999-1.788-3.999-3.998s1.788-3.999,3.999-3.999h23.99
		c2.211,0,3.999,1.789,3.999,3.999S162.152,383.859,159.941,383.859z"/>
	<path style="fill:#116FFF;" d="M159.941,399.853h-23.03c-2.21,0-3.998-1.788-3.998-3.998c0-2.211,1.788-3.999,3.998-3.999h23.03
		c2.211,0,3.999,1.788,3.999,3.999C163.94,398.065,162.152,399.853,159.941,399.853z"/>
	<path style="fill:#116FFF;" d="M159.941,415.847c-2.21,0-3.998-1.788-3.998-3.998v-15.994c0-2.211,1.788-3.999,3.998-3.999
		c2.211,0,3.999,1.788,3.999,3.999v15.994C163.94,414.059,162.152,415.847,159.941,415.847z"/>
	<path style="fill:#116FFF;" d="M159.941,415.847h-23.99c-2.211,0-3.999-1.788-3.999-3.998c0-2.211,1.788-3.999,3.999-3.999h23.99
		c2.211,0,3.999,1.788,3.999,3.999C163.94,414.059,162.152,415.847,159.941,415.847z"/>
	<path style="fill:#116FFF;" d="M159.941,431.842h-23.03c-2.21,0-3.998-1.788-3.998-3.998c0-2.211,1.788-3.999,3.998-3.999h23.03
		c2.211,0,3.999,1.788,3.999,3.999C163.94,430.053,162.152,431.842,159.941,431.842z"/>
	<path style="fill:#116FFF;" d="M159.941,447.836c-2.21,0-3.998-1.788-3.998-3.998v-15.994c0-2.211,1.788-3.999,3.998-3.999
		c2.211,0,3.999,1.788,3.999,3.999v15.994C163.94,446.048,162.152,447.836,159.941,447.836z"/>
	<path style="fill:#116FFF;" d="M159.941,447.836h-23.99c-2.211,0-3.999-1.788-3.999-3.998c0-2.211,1.788-3.999,3.999-3.999h23.99
		c2.211,0,3.999,1.788,3.999,3.999C163.94,446.048,162.152,447.836,159.941,447.836z"/>
	<path style="fill:#116FFF;" d="M159.941,463.83h-23.03c-2.21,0-3.998-1.789-3.998-3.998c0-2.211,1.788-3.999,3.998-3.999h23.03
		c2.211,0,3.999,1.788,3.999,3.999C163.94,462.041,162.152,463.83,159.941,463.83z"/>
	<path style="fill:#116FFF;" d="M159.941,479.824c-2.21,0-3.998-1.789-3.998-3.998v-15.994c0-2.211,1.788-3.999,3.998-3.999
		c2.211,0,3.999,1.788,3.999,3.999v15.994C163.94,478.035,162.152,479.824,159.941,479.824z"/>
	<path style="fill:#116FFF;" d="M159.941,479.824h-23.99c-2.211,0-3.999-1.789-3.999-3.998c0-2.211,1.788-3.999,3.999-3.999h23.99
		c2.211,0,3.999,1.788,3.999,3.999C163.94,478.035,162.152,479.824,159.941,479.824z"/>
	<path style="fill:#116FFF;" d="M127.954,7.999H23.992c-2.21,0-3.998-1.788-3.998-3.999c0-2.21,1.788-3.999,3.998-3.999h103.962
		c2.21,0,3.998,1.789,3.998,3.999C131.952,6.211,130.164,7.999,127.954,7.999z"/>
	<path style="fill:#116FFF;" d="M23.992,511.812C12.965,511.812,4,502.846,4,491.819c0-2.21,1.788-3.998,3.998-3.998
		s3.999,1.788,3.999,3.998c0,6.725,5.271,11.996,11.995,11.996c2.21,0,3.999,1.788,3.999,3.998S26.202,511.812,23.992,511.812z"/>
	<path style="fill:#116FFF;" d="M127.954,511.812H23.992c-2.21,0-3.998-1.789-3.998-3.999s1.788-3.998,3.998-3.998h103.962
		c2.21,0,3.998,1.788,3.998,3.998S130.164,511.812,127.954,511.812z"/>
	<path style="fill:#116FFF;" d="M7.998,495.818c-2.21,0-3.998-1.789-3.998-3.999V19.994c0-2.21,1.788-3.999,3.998-3.999
		s3.999,1.788,3.999,3.999v471.825C11.997,494.029,10.208,495.818,7.998,495.818z"/>
	<path style="fill:#116FFF;" d="M127.954,31.99H15.995c-2.21,0-3.998-1.789-3.998-3.999s1.788-3.999,3.998-3.999h111.959
		c2.21,0,3.998,1.788,3.998,3.999C131.952,30.201,130.164,31.99,127.954,31.99z"/>
	<path style="fill:#116FFF;" d="M127.954,55.981H15.995c-2.21,0-3.998-1.789-3.998-3.999s1.788-3.998,3.998-3.998h111.959
		c2.21,0,3.998,1.788,3.998,3.998C131.952,54.193,130.164,55.981,127.954,55.981z"/>
	<path style="fill:#116FFF;" d="M127.954,79.972H15.995c-2.21,0-3.998-1.789-3.998-3.999s1.788-3.998,3.998-3.998h111.959
		c2.21,0,3.998,1.788,3.998,3.998C131.952,78.184,130.164,79.972,127.954,79.972z"/>
	<path style="fill:#116FFF;" d="M127.954,103.963H15.995c-2.21,0-3.998-1.789-3.998-3.999s1.788-3.998,3.998-3.998h111.959
		c2.21,0,3.998,1.788,3.998,3.998S130.164,103.963,127.954,103.963z"/>
	<path style="fill:#116FFF;" d="M127.954,127.954H15.995c-2.21,0-3.998-1.789-3.998-3.999s1.788-3.999,3.998-3.999h111.959
		c2.21,0,3.998,1.789,3.998,3.999S130.164,127.954,127.954,127.954z"/>
	<path style="fill:#116FFF;" d="M127.954,151.946H15.995c-2.21,0-3.998-1.789-3.998-3.999s1.788-3.999,3.998-3.999h111.959
		c2.21,0,3.998,1.789,3.998,3.999S130.164,151.946,127.954,151.946z"/>
	<path style="fill:#116FFF;" d="M127.954,175.936H15.995c-2.21,0-3.998-1.788-3.998-3.998s1.788-3.999,3.998-3.999h111.959
		c2.21,0,3.998,1.789,3.998,3.999S130.164,175.936,127.954,175.936z"/>
	<path style="fill:#116FFF;" d="M127.954,199.928H15.995c-2.21,0-3.998-1.788-3.998-3.998s1.788-3.999,3.998-3.999h111.959
		c2.21,0,3.998,1.789,3.998,3.999C131.952,198.139,130.164,199.928,127.954,199.928z"/>
	<path style="fill:#116FFF;" d="M127.954,223.919H15.995c-2.21,0-3.998-1.788-3.998-3.999c0-2.21,1.788-3.999,3.998-3.999h111.959
		c2.21,0,3.998,1.789,3.998,3.999C131.952,222.131,130.164,223.919,127.954,223.919z"/>
	<path style="fill:#116FFF;" d="M127.954,247.91H15.995c-2.21,0-3.998-1.789-3.998-3.999c0-2.21,1.788-3.999,3.998-3.999h111.959
		c2.21,0,3.998,1.788,3.998,3.999C131.952,246.121,130.164,247.91,127.954,247.91z"/>
	<path style="fill:#116FFF;" d="M127.954,271.901H15.995c-2.21,0-3.998-1.788-3.998-3.999c0-2.21,1.788-3.998,3.998-3.998h111.959
		c2.21,0,3.998,1.788,3.998,3.998C131.952,270.113,130.164,271.901,127.954,271.901z"/>
	<path style="fill:#116FFF;" d="M127.954,295.892H15.995c-2.21,0-3.998-1.789-3.998-3.999s1.788-3.998,3.998-3.998h111.959
		c2.21,0,3.998,1.788,3.998,3.998S130.164,295.892,127.954,295.892z"/>
	<path style="fill:#116FFF;" d="M127.954,319.883H15.995c-2.21,0-3.998-1.788-3.998-3.998s1.788-3.998,3.998-3.998h111.959
		c2.21,0,3.998,1.788,3.998,3.998S130.164,319.883,127.954,319.883z"/>
	<path style="fill:#116FFF;" d="M127.954,343.875H15.995c-2.21,0-3.998-1.789-3.998-3.999s1.788-3.999,3.998-3.999h111.959
		c2.21,0,3.998,1.789,3.998,3.999S130.164,343.875,127.954,343.875z"/>
	<path style="fill:#116FFF;" d="M127.954,367.865H15.995c-2.21,0-3.998-1.788-3.998-3.998s1.788-3.998,3.998-3.998h111.959
		c2.21,0,3.998,1.788,3.998,3.998S130.164,367.865,127.954,367.865z"/>
	<path style="fill:#116FFF;" d="M127.954,391.856H15.995c-2.21,0-3.998-1.788-3.998-3.998s1.788-3.999,3.998-3.999h111.959
		c2.21,0,3.998,1.789,3.998,3.999S130.164,391.856,127.954,391.856z"/>
	<path style="fill:#116FFF;" d="M127.954,415.847H15.995c-2.21,0-3.998-1.788-3.998-3.998c0-2.211,1.788-3.999,3.998-3.999h111.959
		c2.21,0,3.998,1.788,3.998,3.999C131.952,414.059,130.164,415.847,127.954,415.847z"/>
	<path style="fill:#116FFF;" d="M127.954,439.839H15.995c-2.21,0-3.998-1.788-3.998-3.999c0-2.209,1.788-3.998,3.998-3.998h111.959
		c2.21,0,3.998,1.789,3.998,3.998C131.952,438.051,130.164,439.839,127.954,439.839z"/>
	<path style="fill:#116FFF;" d="M127.954,463.83H15.995c-2.21,0-3.998-1.789-3.998-3.998c0-2.211,1.788-3.999,3.998-3.999h111.959
		c2.21,0,3.998,1.788,3.998,3.999C131.952,462.041,130.164,463.83,127.954,463.83z"/>
	<path style="fill:#116FFF;" d="M127.954,487.821H15.995c-2.21,0-3.998-1.788-3.998-3.999c0-2.21,1.788-3.998,3.998-3.998h111.959
		c2.21,0,3.998,1.788,3.998,3.998C131.952,486.033,130.164,487.821,127.954,487.821z"/>
	<path style="fill:#116FFF;" d="M71.974,487.821c-2.21,0-3.999-1.788-3.999-3.999v-15.994c0-2.21,1.789-3.998,3.999-3.998
		s3.998,1.788,3.998,3.998v15.994C75.972,486.033,74.184,487.821,71.974,487.821z"/>
	<path style="fill:#116FFF;" d="M71.974,439.839c-2.21,0-3.999-1.788-3.999-3.999v-15.993c0-2.21,1.789-3.999,3.999-3.999
		s3.998,1.789,3.998,3.999v15.993C75.972,438.051,74.184,439.839,71.974,439.839z"/>
	<path style="fill:#116FFF;" d="M71.974,391.856c-2.21,0-3.999-1.788-3.999-3.998v-15.994c0-2.21,1.789-3.999,3.999-3.999
		s3.998,1.789,3.998,3.999v15.994C75.972,390.068,74.184,391.856,71.974,391.856z"/>
	<path style="fill:#116FFF;" d="M71.974,343.875c-2.21,0-3.999-1.789-3.999-3.999v-15.994c0-2.21,1.789-3.999,3.999-3.999
		s3.998,1.789,3.998,3.999v15.994C75.972,342.086,74.184,343.875,71.974,343.875z"/>
	<path style="fill:#116FFF;" d="M71.974,295.892c-2.21,0-3.999-1.789-3.999-3.999v-15.994c0-2.21,1.789-3.998,3.999-3.998
		s3.998,1.788,3.998,3.998v15.994C75.972,294.103,74.184,295.892,71.974,295.892z"/>
	<path style="fill:#116FFF;" d="M71.974,247.91c-2.21,0-3.999-1.789-3.999-3.999v-15.994c0-2.21,1.789-3.999,3.999-3.999
		s3.998,1.789,3.998,3.999v15.994C75.972,246.121,74.184,247.91,71.974,247.91z"/>
	<path style="fill:#116FFF;" d="M71.974,199.928c-2.21,0-3.999-1.788-3.999-3.998v-15.994c0-2.21,1.789-3.999,3.999-3.999
		s3.998,1.789,3.998,3.999v15.994C75.972,198.139,74.184,199.928,71.974,199.928z"/>
	<path style="fill:#116FFF;" d="M71.974,151.946c-2.21,0-3.999-1.789-3.999-3.999v-15.994c0-2.21,1.789-3.999,3.999-3.999
		s3.998,1.789,3.998,3.999v15.994C75.972,150.157,74.184,151.946,71.974,151.946z"/>
	<path style="fill:#116FFF;" d="M71.974,103.963c-2.21,0-3.999-1.789-3.999-3.999V83.97c0-2.21,1.789-3.998,3.999-3.998
		s3.998,1.788,3.998,3.998v15.994C75.972,102.175,74.184,103.963,71.974,103.963z"/>
	<path style="fill:#116FFF;" d="M71.974,55.981c-2.21,0-3.999-1.789-3.999-3.999V35.989c0-2.21,1.789-3.999,3.999-3.999
		s3.998,1.788,3.998,3.999v15.994C75.972,54.193,74.184,55.981,71.974,55.981z"/>
</g>
<g>
</g>
<g>
</g>
<g>
</g>
<g>
</g>
<g>
</g>
<g>
</g>
<g>
</g>
<g>
</g>
<g>
</g>
<g>
</g>
<g>
</g>
<g>
</g>
<g>
</g>
<g>
</g>
<g>
</g>
</svg>
