<?xml version="1.0" encoding="iso-8859-1"?>
<!-- Generator: Adobe Illustrator 19.0.0, SVG Export Plug-In . SVG Version: 6.00 Build 0)  -->
<svg version="1.1" id="Capa_1" xmlns="http://www.w3.org/2000/svg" xmlns:xlink="http://www.w3.org/1999/xlink" x="0px" y="0px"
	 viewBox="0 0 511.886 511.886" style="enable-background:new 0 0 511.886 511.886;" xml:space="preserve">
<polygon style="fill:#94C1FF;" points="117.835,394.031 106.527,371.414 89.556,354.453 100.873,343.144 123.489,365.759 
	134.797,377.068 146.106,388.377 168.722,411.002 157.414,422.31 140.452,405.347 "/>
<path style="fill:#5C9EFF;" d="M233.807,300.675c-1.405-5.264-4.186-10.184-8.309-14.309c-4.069-4.068-9.043-6.902-14.307-8.309
	c-10.793-2.998-22.898-0.172-31.379,8.309c-8.481,8.482-11.316,20.588-8.317,31.381c1.414,5.256,4.24,10.238,8.317,14.314
	c4.123,4.123,9.051,6.896,14.307,8.309c10.792,3,22.898,0.281,31.379-8.309C234.089,323.572,236.806,311.468,233.807,300.675z"/>
<path style="fill:#94C1FF;" d="M411.371,83.529c0.055-0.055,0.109-0.109,0.172-0.172c6.107-6.216,7.294-14.979,2.655-19.618
	l10.918-12.042l16.11-17.822l16.111-17.813l10.746-11.871c0,0,8.481-2.827,25.444,14.143c16.97,16.963,14.143,25.444,14.143,25.444
	L495.8,54.524l-17.814,16.111l-29.863,27.029c-4.639-4.639-13.401-3.452-19.618,2.655c-0.062,0.063-0.116,0.117-0.171,0.172
	L276.163,258.324l-42.355,42.352c-1.405-5.264-4.186-10.184-8.309-14.309c-4.069-4.068-9.043-6.902-14.307-8.309l42.359-42.359
	L411.371,83.529z"/>
<path style="fill:#D7E9FF;" d="M253.55,235.699l-42.359,42.359c2.757,0.734,5.42,1.883,7.935,3.373l40.079-40.078l157.82-152.17
	c0.055-0.055,0.109-0.109,0.172-0.172c6.106-6.216,11.745-16.181,6.302-23.272l7.271-8.388l16.111-17.813L463,21.725l14.448-15.58
	l-9.364-1.953l-10.746,11.871l-16.111,17.813l-16.11,17.822L414.199,63.74c4.639,4.639,3.452,13.401-2.655,19.618
	c-0.063,0.063-0.117,0.117-0.172,0.172L253.55,235.699z"/>
<path style="fill:#5C9EFF;" d="M276.163,258.324l-42.355,42.352c-0.733-2.758-1.882-5.42-3.374-7.928l40.075-40.086l152.17-157.825
	c0.055-0.055,0.109-0.109,0.172-0.172c6.216-6.107,16.181-11.746,23.272-6.302l8.388-7.271l17.813-16.111l17.821-16.111
	l15.572-14.456l1.952,9.364l-11.87,10.746l-17.814,16.111l-17.821,16.111l-12.041,10.918c-4.639-4.639-13.401-3.452-19.618,2.655
	c-0.062,0.063-0.116,0.117-0.171,0.172L276.163,258.324z"/>
<path style="fill:#D7E9FF;" d="M234.034,403.707c30.649-67.865,126.949-60.563,47.783-139.729l-5.654-5.654l-42.355,42.352
	c2.999,10.793,0.281,22.896-8.309,31.387c-8.481,8.59-20.586,11.309-31.379,8.309c-5.256-1.412-10.184-4.186-14.307-8.309
	c-4.077-4.076-6.904-9.059-8.317-14.314c-2.999-10.793-0.164-22.898,8.317-31.381c8.481-8.48,20.586-11.307,31.379-8.309
	l42.359-42.359l-5.654-5.654c-79.174-79.166-71.817,17.188-139.729,47.787c-67.857,30.645-165.353,65.594-52.535,178.402
	C168.504,569.107,203.444,471.619,234.034,403.707z M157.414,422.31l-16.962-16.963l-22.617-11.316l-11.308-22.617l-16.971-16.961
	l11.316-11.309l22.616,22.615l11.309,11.309l11.308,11.309l22.617,22.625L157.414,422.31z"/>
<path style="fill:#FFFFFF;" d="M119.475,289.14c66.202-29.824,60.922-122.08,133.966-53.332l0.109-0.109l-5.654-5.654
	c-79.174-79.166-71.817,17.188-139.729,47.787C40.31,308.477-57.186,343.426,55.632,456.234c1.96,1.961,3.842,3.711,5.756,5.553
	C-42.34,353.57,52.797,319.254,119.475,289.14z"/>
<path style="fill:#94C1FF;" d="M222.773,392.437c29.825-66.201,122.068-60.922,53.328-133.965l0.109-0.109l5.654,5.654
	c79.166,79.166-17.196,71.816-47.783,139.729c-30.645,67.857-65.593,165.346-178.402,52.535c-1.96-1.959-3.718-3.842-5.553-5.764
	C158.336,554.254,192.651,459.117,222.773,392.437z"/>
<g>
	<path style="fill:#116FFF;" d="M465.491,28.026c-2.21,0-4.037-1.789-4.037-3.999s1.749-3.999,3.951-3.999h0.086
		c2.202,0,3.999,1.789,3.999,3.999S467.693,28.026,465.491,28.026z"/>
	<path style="fill:#116FFF;" d="M448.529,44.988c-2.211,0-4.038-1.788-4.038-3.999c0-2.21,1.75-3.999,3.952-3.999h0.086
		c2.202,0,3.998,1.789,3.998,3.999C452.527,43.2,450.731,44.988,448.529,44.988z"/>
	<path style="fill:#116FFF;" d="M431.566,61.959c-2.21,0-4.037-1.789-4.037-3.999s1.749-3.999,3.951-3.999h0.086
		c2.202,0,3.999,1.789,3.999,3.999S433.768,61.959,431.566,61.959z"/>
	<path style="fill:#116FFF;" d="M488.108,50.643c-2.21,0-4.038-1.789-4.038-3.999s1.75-3.999,3.952-3.999h0.086
		c2.202,0,3.998,1.788,3.998,3.999C492.106,48.854,490.31,50.643,488.108,50.643z"/>
	<path style="fill:#116FFF;" d="M471.145,67.613c-2.21,0-4.037-1.789-4.037-3.999s1.749-3.999,3.951-3.999h0.086
		c2.202,0,3.999,1.789,3.999,3.999S473.347,67.613,471.145,67.613z"/>
	<path style="fill:#116FFF;" d="M454.183,84.575c-2.211,0-4.038-1.788-4.038-3.999s1.749-3.999,3.952-3.999h0.086
		c2.202,0,3.998,1.788,3.998,3.999S456.385,84.575,454.183,84.575z"/>
	<path style="fill:#116FFF;" d="M55.631,460.232c-1.023,0-2.046-0.389-2.827-1.17c-40.176-40.174-57.131-73.574-51.84-102.119
		c7.22-38.963,54.042-59.807,95.355-78.189l10.204-4.568c23.769-10.707,37.954-29.798,50.473-46.643
		c12.253-16.49,22.839-30.735,39.153-31.93c14.565-1.059,31.938,8.969,54.574,31.605c1.562,1.562,1.562,4.092,0,5.654
		c-1.562,1.562-4.093,1.562-5.654,0c-20.59-20.586-36.463-30.204-48.333-29.286c-12.667,0.929-21.781,13.198-33.324,28.728
		c-12.448,16.751-27.938,37.6-53.601,49.165l-10.239,4.578c-39.509,17.586-84.293,37.523-90.747,72.34
		c-4.772,25.764,11.46,56.838,49.634,95.012c1.562,1.561,1.562,4.092,0,5.654C57.677,459.843,56.654,460.232,55.631,460.232z"/>
	<path style="fill:#116FFF;" d="M144.618,511.886c-26.209,0-56.377-17.385-91.813-52.824c-1.562-1.563-1.562-4.094,0-5.654
		c1.562-1.563,4.092-1.563,5.654,0c38.212,38.213,69.306,54.424,95.086,49.668c34.838-6.473,54.749-51.316,72.32-90.871
		l4.521-10.137c11.578-25.633,32.414-41.119,49.15-53.566c15.541-11.551,27.818-20.672,28.747-33.348
		c0.875-11.949-8.708-27.764-29.294-48.35c-1.562-1.563-1.562-4.092,0-5.654c1.563-1.561,4.092-1.561,5.654,0
		c22.641,22.641,32.684,39.986,31.613,54.59c-1.195,16.322-15.447,26.92-31.949,39.18c-16.83,12.512-35.908,26.693-46.631,50.436
		l-4.502,10.098c-18.373,41.359-39.193,88.24-78.171,95.48C151.611,511.566,148.148,511.886,144.618,511.886z"/>
	<path style="fill:#116FFF;" d="M202.764,345.548c-3.288,0-6.556-0.445-9.715-1.326c-6.01-1.617-11.578-4.844-16.064-9.334
		c-4.495-4.49-7.728-10.059-9.352-16.104c-3.467-12.486,0.109-26.006,9.352-35.244c9.172-9.168,22.901-12.762,35.276-9.332
		c5.994,1.6,11.562,4.826,16.064,9.332s7.735,10.074,9.344,16.104c3.494,12.574-0.09,26.1-9.36,35.26
		C221.547,341.754,212.464,345.548,202.764,345.548z M202.647,280.894c-7.552,0-14.654,2.951-20.008,8.301
		c-7.205,7.209-10,17.736-7.291,27.482c1.269,4.725,3.788,9.051,7.291,12.557c3.499,3.5,7.825,6.014,12.519,7.279
		c9.82,2.709,20.418-0.094,27.494-7.264c7.248-7.16,10.032-17.688,7.302-27.504c-1.258-4.719-3.772-9.045-7.283-12.551
		s-7.837-6.021-12.511-7.271C207.696,281.236,205.181,280.894,202.647,280.894z"/>
	<path style="fill:#116FFF;" d="M157.414,426.308c-1.022,0-2.046-0.391-2.827-1.172l-16.505-16.502l-22.035-11.027
		c-0.773-0.391-1.402-1.014-1.788-1.787l-11.02-22.039l-16.51-16.502c-0.75-0.75-1.171-1.766-1.171-2.826
		c0-1.063,0.422-2.078,1.171-2.828l11.316-11.309c1.562-1.561,4.092-1.561,5.654,0l67.85,67.857c1.562,1.563,1.562,4.094,0,5.654
		l-11.309,11.309C159.46,425.918,158.437,426.308,157.414,426.308z M120.814,391.048l21.426,10.723
		c0.387,0.195,0.734,0.443,1.039,0.748l14.135,14.137l5.654-5.654l-62.195-62.203l-5.658,5.654l14.139,14.135
		c0.305,0.305,0.558,0.656,0.75,1.039L120.814,391.048z"/>
	<path style="fill:#116FFF;" d="M117.835,375.414c-1.022,0-2.046-0.391-2.827-1.172c-1.562-1.563-1.562-4.092,0-5.654
		l135.715-135.716c1.562-1.563,4.092-1.563,5.654,0c1.562,1.562,1.562,4.092,0,5.654L120.662,374.242
		C119.881,375.023,118.858,375.414,117.835,375.414z"/>
	<path style="fill:#116FFF;" d="M129.143,386.72c-1.023,0-2.046-0.389-2.827-1.17c-1.562-1.563-1.562-4.094,0-5.654L473.746,32.47
		c1.563-1.563,4.093-1.563,5.654,0c1.563,1.562,1.563,4.092,0,5.654L131.97,385.55C131.189,386.332,130.167,386.72,129.143,386.72z"
		/>
	<path style="fill:#116FFF;" d="M140.452,398.029c-1.023,0-2.046-0.391-2.827-1.17c-1.562-1.563-1.562-4.094,0-5.654
		l135.711-135.708c1.563-1.562,4.093-1.562,5.654,0c1.563,1.562,1.563,4.093,0,5.654L143.279,396.859
		C142.498,397.638,141.475,398.029,140.452,398.029z"/>
	<path style="fill:#116FFF;" d="M253.55,239.697c-1.047,0-2.094-0.41-2.878-1.222c-1.534-1.589-1.487-4.124,0.102-5.654
		l157.824-152.17c1.585-1.531,4.115-1.48,5.654,0.102c1.53,1.589,1.483,4.124-0.109,5.654l-157.816,152.17
		C255.549,239.326,254.55,239.697,253.55,239.697z"/>
	<path style="fill:#116FFF;" d="M276.163,262.322c-0.999,0-1.999-0.371-2.772-1.121c-1.593-1.529-1.64-4.064-0.109-5.654
		l152.17-157.832c1.547-1.589,4.077-1.632,5.654-0.102c1.594,1.531,1.641,4.065,0.109,5.654l-152.17,157.832
		C278.256,261.912,277.21,262.322,276.163,262.322z"/>
	<path style="fill:#116FFF;" d="M428.381,104.361c-1.023,0-2.039-0.375-2.805-1.14c-1.546-1.566-1.624-3.999-0.07-5.557l0.172-0.172
		c7.904-7.778,19.001-8.934,25.272-2.655c1.562,1.562,1.562,4.092,0,5.654s-4.093,1.562-5.654,0
		c-3.038-3.026-9.442-1.792-13.987,2.679C430.504,103.959,429.434,104.361,428.381,104.361z"/>
	<path style="fill:#116FFF;" d="M414.393,86.161l-5.85-5.459l0.172-0.172c4.451-4.534,5.678-10.937,2.655-13.963
		c-1.563-1.562-1.563-4.092,0-5.654c1.562-1.562,4.092-1.562,5.654,0C423.296,67.183,422.14,78.273,414.393,86.161z"/>
	<path style="fill:#116FFF;" d="M414.198,67.738c-0.961,0-1.921-0.344-2.687-1.035c-1.633-1.484-1.758-4.015-0.273-5.65
		l53.879-59.544c1.491-1.636,4.029-1.757,5.653-0.281c1.633,1.479,1.758,4.01,0.281,5.646l-53.894,59.552
		C416.369,67.297,415.283,67.738,414.198,67.738z"/>
	<path style="fill:#116FFF;" d="M448.123,101.663c-1.086,0-2.179-0.445-2.968-1.316c-1.476-1.636-1.351-4.167,0.281-5.646
		l59.548-53.886c1.633-1.48,4.163-1.359,5.654,0.281c1.477,1.636,1.352,4.167-0.281,5.646l-59.548,53.887
		C450.044,101.323,449.084,101.663,448.123,101.663z"/>
	<path style="fill:#116FFF;" d="M507.671,47.776c-0.421,0-0.843-0.066-1.265-0.207c-2.094-0.695-3.226-2.96-2.53-5.057
		c0,0.004,0,0.004,0,0.004c-0.023,0,1.038-7.146-13.175-21.355c-14.37-14.365-21.539-13.108-21.578-13.112
		c-2.116,0.695-4.24-0.469-4.943-2.562s0.547-4.393,2.64-5.088c1.812-0.605,11.737-2.702,29.536,15.107
		c17.813,17.806,15.713,27.729,15.111,29.536C510.904,46.718,509.342,47.776,507.671,47.776z"/>
	<path style="fill:#116FFF;" d="M470.911,101.491c-1.022,0-2.046-0.39-2.827-1.171L457.4,89.636c-1.562-1.562-1.562-4.092,0-5.654
		c1.563-1.562,4.093-1.562,5.654,0l10.684,10.684c1.563,1.562,1.563,4.092,0,5.654C472.957,101.101,471.934,101.491,470.911,101.491
		z"/>
	<path style="fill:#116FFF;" d="M468.084,104.318c-1.022,0-2.046-0.39-2.826-1.171c-1.563-1.562-1.563-4.092,0-5.654l5.661-5.658
		c1.563-1.554,4.101-1.562,5.662,0.008c1.554,1.563,1.554,4.097-0.008,5.654l-5.662,5.65
		C470.131,103.928,469.107,104.318,468.084,104.318z"/>
	<path style="fill:#116FFF;" d="M487.881,84.528c-1.023,0-2.046-0.391-2.827-1.171l-9.895-9.895c-1.563-1.562-1.563-4.092,0-5.654
		c1.562-1.562,4.092-1.562,5.654,0l9.895,9.895c1.562,1.562,1.562,4.092,0,5.654C489.927,84.138,488.904,84.528,487.881,84.528z"/>
	<path style="fill:#116FFF;" d="M485.054,87.356c-1.023,0-2.046-0.391-2.827-1.171c-1.562-1.562-1.562-4.092,0-5.654l5.654-5.654
		c1.562-1.563,4.092-1.563,5.654,0c1.562,1.562,1.562,4.092,0,5.654l-5.654,5.654C487.1,86.965,486.078,87.356,485.054,87.356z"/>
	<path style="fill:#116FFF;" d="M502.017,70.393c-1.023,0-2.047-0.39-2.828-1.171c-1.562-1.562-1.562-4.093,0-5.654l5.654-5.654
		c1.563-1.562,4.093-1.562,5.654,0c1.563,1.562,1.563,4.092,0,5.654l-5.654,5.654C504.063,70.003,503.04,70.393,502.017,70.393z"/>
	<path style="fill:#116FFF;" d="M504.843,67.566c-1.022,0-2.046-0.391-2.826-1.171l-9.044-9.044c-1.562-1.562-1.562-4.092,0-5.654
		s4.092-1.562,5.654,0l9.043,9.043c1.563,1.562,1.563,4.092,0,5.654C506.89,67.175,505.867,67.566,504.843,67.566z"/>
	<path style="fill:#116FFF;" d="M425.116,55.695c-1.023,0-2.046-0.391-2.827-1.171l-10.746-10.746c-1.563-1.562-1.563-4.092,0-5.654
		c1.562-1.563,4.092-1.563,5.654,0l10.746,10.746c1.562,1.562,1.562,4.092,0,5.654C427.162,55.305,426.138,55.695,425.116,55.695z"
		/>
	<path style="fill:#116FFF;" d="M411.543,47.776c-1.023,0-2.047-0.391-2.827-1.171c-1.562-1.562-1.562-4.092,0-5.654l5.654-5.654
		c1.562-1.563,4.092-1.563,5.653,0c1.563,1.562,1.563,4.092,0,5.654l-5.653,5.654C413.589,47.386,412.566,47.776,411.543,47.776z"/>
	<path style="fill:#116FFF;" d="M441.226,37.874c-1.022,0-2.046-0.391-2.826-1.172l-9.896-9.895c-1.562-1.562-1.562-4.092,0-5.654
		c1.563-1.562,4.093-1.562,5.654,0l9.896,9.895c1.562,1.563,1.562,4.093,0,5.654C443.273,37.484,442.25,37.874,441.226,37.874z"/>
	<path style="fill:#116FFF;" d="M428.505,30.806c-1.022,0-2.046-0.391-2.827-1.171c-1.562-1.562-1.562-4.092,0-5.654l5.654-5.654
		c1.563-1.562,4.093-1.562,5.654,0c1.563,1.562,1.563,4.092,0,5.654l-5.654,5.654C430.55,30.416,429.528,30.806,428.505,30.806z"/>
	<path style="fill:#116FFF;" d="M445.467,13.844c-1.023,0-2.046-0.391-2.827-1.172c-1.563-1.562-1.563-4.092,0-5.654l5.654-5.654
		c1.562-1.562,4.092-1.562,5.654,0c1.562,1.562,1.562,4.092,0,5.654l-5.654,5.654C447.513,13.453,446.49,13.844,445.467,13.844z"/>
	<path style="fill:#116FFF;" d="M457.338,20.06c-1.022,0-2.046-0.39-2.826-1.171l-9.044-9.044c-1.562-1.562-1.562-4.092,0-5.654
		s4.092-1.562,5.654,0l9.043,9.043c1.563,1.562,1.563,4.092,0,5.654C459.384,19.67,458.361,20.06,457.338,20.06z"/>
</g>
<g>
</g>
<g>
</g>
<g>
</g>
<g>
</g>
<g>
</g>
<g>
</g>
<g>
</g>
<g>
</g>
<g>
</g>
<g>
</g>
<g>
</g>
<g>
</g>
<g>
</g>
<g>
</g>
<g>
</g>
</svg>
