<?xml version="1.0" encoding="iso-8859-1"?>
<!-- Generator: Adobe Illustrator 19.0.0, SVG Export Plug-In . SVG Version: 6.00 Build 0)  -->
<svg version="1.1" id="Capa_1" xmlns="http://www.w3.org/2000/svg" xmlns:xlink="http://www.w3.org/1999/xlink" x="0px" y="0px"
	 viewBox="0 0 511.793 511.793" style="enable-background:new 0 0 511.793 511.793;" xml:space="preserve">
<path style="fill:#94C1FF;" d="M426.07,57.364l33.879-45.178c10.964-10.972,28.668-11.031,39.641-0.059
	c10.918,10.914,10.91,28.669,0,39.583l-0.063,0.059l-45.232,33.929l-16.963,5.654L212.447,321.887l-10.531-12.09l-12.039-10.48
	L420.361,74.385L426.07,57.364z"/>
<g>
	<path style="fill:#5C9EFF;" d="M201.959,309.844c45.288,45.28,45.288,118.706,0,163.986c-45.28,45.28-118.698,45.28-163.986,0
		c-45.28-45.28-45.28-118.706,0-163.986C83.26,264.565,156.678,264.565,201.959,309.844z"/>
	<path style="fill:#5C9EFF;" d="M201.916,309.797l10.531,12.09l5.509-5.654c-3.167-4.17-6.532-8.239-10.344-12.043
		c-3.818-3.826-7.907-7.2-12.093-10.387l-5.643,5.514L201.916,309.797z"/>
</g>
<path style="fill:#FFFFFF;" d="M190.65,321.153c39.036,39.032,39.036,102.337,0,141.369c-39.037,39.033-102.333,39.033-141.37,0
	c-39.037-39.032-39.037-102.337,0-141.369C88.317,282.121,151.614,282.121,190.65,321.153z"/>
<polygon style="fill:#D7E9FF;" points="80.386,448.387 69.074,459.696 57.762,459.696 52.107,454.042 52.107,442.733 
	63.416,431.424 "/>
<g>
	<path style="fill:#116FFF;" d="M471.569,27.512c-2.202,0-4.038-1.789-4.038-3.999c0-2.21,1.75-3.998,3.96-3.998h0.078
		c2.21,0,3.999,1.788,3.999,3.998S473.779,27.512,471.569,27.512z"/>
	<path style="fill:#116FFF;" d="M446.126,58.61c-2.21,0-4.046-1.789-4.046-3.999s1.75-3.998,3.968-3.998h0.078
		c2.202,0,3.998,1.788,3.998,3.998C450.124,56.821,448.328,58.61,446.126,58.61z"/>
	<path style="fill:#116FFF;" d="M488.531,44.474c-2.201,0-4.037-1.788-4.037-3.998c0-2.21,1.75-3.999,3.959-3.999h0.078
		c2.211,0,3.999,1.789,3.999,3.999C492.53,42.686,490.742,44.474,488.531,44.474z"/>
	<path style="fill:#116FFF;" d="M457.433,69.918c-2.202,0-4.037-1.789-4.037-3.999c0-2.21,1.749-3.999,3.959-3.999h0.078
		c2.211,0,3.999,1.789,3.999,3.999C461.432,68.129,459.644,69.918,457.433,69.918z"/>
	<path style="fill:#116FFF;" d="M119.965,511.793c-32.039,0-62.165-12.48-84.816-35.136c-22.66-22.655-35.14-52.777-35.14-84.82
		c0-32.042,12.479-62.164,35.14-84.819c22.655-22.664,52.777-35.144,84.82-35.144c32.039,0,62.161,12.479,84.816,35.144
		c22.66,22.647,35.14,52.777,35.14,84.812c0,32.051-12.479,62.173-35.14,84.82C182.134,499.305,152.008,511.793,119.965,511.793z
		 M119.969,279.872c-29.907,0-58.021,11.652-79.166,32.8C19.655,333.82,8.007,361.935,8.007,391.837
		c0,29.903,11.648,58.018,32.796,79.166c21.145,21.148,49.259,32.793,79.162,32.793c29.907,0,58.021-11.645,79.166-32.801
		c21.148-21.141,32.796-49.255,32.796-79.166c0-29.902-11.648-58.018-32.796-79.158
		C177.987,291.524,149.872,279.872,119.969,279.872z"/>
	<path style="fill:#116FFF;" d="M119.969,495.792c-27.767,0-53.875-10.809-73.508-30.442c-40.536-40.531-40.536-106.491,0-147.023
		c19.629-19.633,45.733-30.457,73.504-30.457s53.878,10.824,73.516,30.457c19.633,19.634,30.446,45.733,30.446,73.504
		s-10.813,53.879-30.45,73.512C173.848,484.983,147.74,495.792,119.969,495.792z M119.965,295.866
		c-25.631,0-49.728,9.988-67.85,28.114c-37.416,37.416-37.416,98.3,0,135.716c18.123,18.118,42.223,28.099,67.854,28.099
		c25.635,0,49.732-9.98,67.854-28.106c18.126-18.127,28.106-42.219,28.106-67.858c0-25.631-9.98-49.731-28.103-67.85
		C169.701,305.854,145.601,295.866,119.965,295.866z"/>
	<path style="fill:#116FFF;" d="M193.477,469.34c-1.023,0-2.046-0.391-2.827-1.172l-2.827-2.827c-1.563-1.562-1.563-4.092,0-5.653
		c1.562-1.563,4.092-1.563,5.654,0l2.827,2.826c1.562,1.563,1.562,4.093,0,5.654C195.523,468.95,194.5,469.34,193.477,469.34z"/>
	<path style="fill:#116FFF;" d="M49.288,325.151c-1.022,0-2.046-0.39-2.827-1.171l-2.831-2.827
		c-1.562-1.562-1.562-4.092-0.004-5.654c1.562-1.562,4.096-1.562,5.658,0l2.831,2.827c1.563,1.562,1.563,4.093,0.004,5.654
		C51.338,324.761,50.312,325.151,49.288,325.151z"/>
	<path style="fill:#116FFF;" d="M205.129,455.47c-0.789,0-1.585-0.234-2.284-0.718l-3.28-2.289
		c-1.812-1.265-2.253-3.756-0.991-5.568c1.257-1.804,3.74-2.257,5.568-0.991l3.28,2.288c1.813,1.266,2.253,3.756,0.992,5.568
		C207.636,454.869,206.395,455.47,205.129,455.47z"/>
	<path style="fill:#116FFF;" d="M38.074,338.499c-0.793,0-1.59-0.234-2.289-0.727l-3.272-2.28c-1.808-1.266-2.25-3.765-0.984-5.576
		c1.266-1.804,3.753-2.249,5.568-0.984l3.272,2.296c1.808,1.266,2.249,3.749,0.984,5.561
		C40.577,337.905,39.335,338.499,38.074,338.499z"/>
	<path style="fill:#116FFF;" d="M214.181,439.773c-0.563,0-1.137-0.117-1.683-0.375l-3.616-1.679
		c-2.003-0.938-2.87-3.312-1.937-5.311c0.925-1.999,3.292-2.874,5.311-1.938l3.616,1.68c2.003,0.93,2.87,3.304,1.937,5.311
		C217.133,438.922,215.688,439.773,214.181,439.773z"/>
	<path style="fill:#116FFF;" d="M29.374,353.594c-0.563,0-1.133-0.117-1.679-0.375l-3.639-1.688
		c-2.003-0.921-2.874-3.303-1.944-5.311c0.925-1.999,3.295-2.873,5.311-1.937l3.639,1.688c2.003,0.921,2.874,3.304,1.945,5.311
		C32.33,352.735,30.885,353.594,29.374,353.594z"/>
	<path style="fill:#116FFF;" d="M220.397,422.756c-0.344,0-0.695-0.047-1.042-0.141l-3.874-1.039
		c-2.132-0.57-3.397-2.772-2.823-4.896c0.574-2.132,2.776-3.39,4.901-2.827l3.874,1.046c2.132,0.57,3.397,2.766,2.823,4.897
		C223.774,421.584,222.158,422.756,220.397,422.756z"/>
	<path style="fill:#116FFF;" d="M23.415,369.971c-0.34,0-0.683-0.039-1.027-0.133l-3.874-1.031
		c-2.136-0.563-3.409-2.749-2.843-4.889c0.57-2.124,2.753-3.397,4.889-2.843l3.874,1.03c2.136,0.563,3.409,2.758,2.843,4.89
		C26.801,368.792,25.184,369.971,23.415,369.971z"/>
	<path style="fill:#116FFF;" d="M223.544,404.903c-0.117,0-0.234,0-0.355-0.016l-3.99-0.344c-2.198-0.203-3.827-2.14-3.632-4.342
		s2.117-3.795,4.334-3.623l3.991,0.343c2.198,0.203,3.827,2.14,3.632,4.343C227.34,403.341,225.594,404.903,223.544,404.903z"/>
	<path style="fill:#116FFF;" d="M20.389,387.128c-0.113,0-0.226,0-0.343-0.016l-3.995-0.344c-2.198-0.188-3.831-2.116-3.643-4.318
		c0.183-2.202,2.03-3.897,4.323-3.647l3.994,0.344c2.199,0.188,3.831,2.124,3.644,4.326
		C24.192,385.551,22.443,387.128,20.389,387.128z"/>
	<path style="fill:#116FFF;" d="M219.538,387.136c-2.05,0-3.796-1.569-3.979-3.647c-0.195-2.202,1.434-4.139,3.632-4.334
		l3.998-0.352c2.304-0.156,4.144,1.438,4.335,3.632c0.195,2.202-1.434,4.146-3.632,4.334l-3.999,0.352
		C219.772,387.128,219.655,387.136,219.538,387.136z"/>
	<path style="fill:#116FFF;" d="M16.391,404.918c-2.046,0-3.788-1.562-3.979-3.639c-0.199-2.195,1.421-4.14,3.62-4.343l3.991-0.358
		c2.265-0.172,4.143,1.421,4.346,3.615c0.199,2.194-1.421,4.146-3.62,4.35l-3.99,0.359
		C16.633,404.918,16.512,404.918,16.391,404.918z"/>
	<path style="fill:#116FFF;" d="M216.508,369.979c-1.765,0-3.382-1.18-3.858-2.968c-0.57-2.132,0.695-4.327,2.831-4.89l3.886-1.046
		c2.116-0.563,4.322,0.703,4.893,2.835s-0.695,4.318-2.831,4.896l-3.885,1.031C217.199,369.932,216.852,369.979,216.508,369.979z"/>
	<path style="fill:#116FFF;" d="M19.542,422.772c-1.758,0-3.366-1.172-3.854-2.944c-0.582-2.132,0.672-4.327,2.804-4.913
		l3.866-1.062c2.121-0.547,4.331,0.68,4.913,2.812c0.582,2.124-0.672,4.326-2.804,4.904l-3.866,1.063
		C20.249,422.725,19.893,422.772,19.542,422.772z"/>
	<path style="fill:#116FFF;" d="M210.561,353.594c-1.515,0-2.96-0.859-3.635-2.327c-0.925-1.999-0.047-4.374,1.957-5.303l3.643-1.68
		c2.011-0.921,4.385-0.047,5.306,1.952c0.926,2.016,0.047,4.39-1.956,5.311l-3.643,1.68
		C211.689,353.477,211.119,353.594,210.561,353.594z"/>
	<path style="fill:#116FFF;" d="M25.746,439.804c-1.503,0-2.94-0.851-3.623-2.296c-0.938-1.999-0.082-4.381,1.917-5.318l3.635-1.719
		c2-0.944,4.377-0.077,5.322,1.922c0.937,1.999,0.082,4.381-1.917,5.326l-3.635,1.702C26.895,439.687,26.316,439.804,25.746,439.804
		z"/>
	<path style="fill:#116FFF;" d="M201.849,338.522c-1.261,0-2.503-0.594-3.28-1.703c-1.266-1.812-0.824-4.311,0.983-5.576
		l3.296-2.296c1.823-1.265,4.311-0.819,5.568,0.984c1.265,1.812,0.824,4.295-0.984,5.561l-3.295,2.312
		C203.439,338.288,202.638,338.522,201.849,338.522z"/>
	<path style="fill:#116FFF;" d="M34.81,455.501c-1.258,0-2.491-0.586-3.269-1.694c-1.277-1.797-0.847-4.296,0.957-5.568l3.284-2.319
		c1.808-1.281,4.303-0.844,5.572,0.952c1.277,1.813,0.847,4.304-0.957,5.576l-3.284,2.32
		C36.41,455.259,35.606,455.501,34.81,455.501z"/>
	<path style="fill:#116FFF;" d="M190.647,325.174c-1.023,0-2.05-0.39-2.831-1.171c-1.559-1.569-1.559-4.101,0.004-5.662l2.847-2.843
		c1.562-1.546,4.096-1.554,5.658,0.008c1.558,1.57,1.558,4.101-0.004,5.662l-2.847,2.843
		C192.692,324.785,191.669,325.174,190.647,325.174z"/>
	<path style="fill:#116FFF;" d="M46.458,469.387c-1.019,0-2.039-0.383-2.819-1.164c-1.566-1.554-1.574-4.084-0.02-5.654l2.831-2.85
		c1.566-1.555,4.092-1.57,5.658-0.023c1.566,1.562,1.574,4.092,0.02,5.661l-2.831,2.851
		C48.512,468.989,47.484,469.387,46.458,469.387z"/>
	<path style="fill:#116FFF;" d="M177.292,313.984c-0.793,0-1.59-0.234-2.288-0.719c-1.809-1.265-2.25-3.765-0.984-5.576l2.312-3.296
		c1.27-1.819,3.761-2.249,5.568-0.983c1.808,1.265,2.249,3.757,0.984,5.561l-2.312,3.312
		C179.795,313.39,178.553,313.984,177.292,313.984z"/>
	<path style="fill:#116FFF;" d="M60.343,481.032c-0.789,0-1.585-0.234-2.28-0.719c-1.812-1.266-2.261-3.749-1-5.568l2.284-3.288
		c1.261-1.812,3.737-2.265,5.568-0.999c1.812,1.265,2.261,3.756,1,5.575l-2.284,3.28C62.854,480.43,61.608,481.032,60.343,481.032z"
		/>
	<path style="fill:#116FFF;" d="M162.2,305.276c-0.566,0-1.144-0.117-1.695-0.383c-1.999-0.937-2.858-3.311-1.921-5.311l1.714-3.654
		c0.934-2,3.3-2.858,5.318-1.922c2,0.938,2.858,3.312,1.921,5.311l-1.714,3.655C165.144,304.424,163.703,305.276,162.2,305.276z"/>
	<path style="fill:#116FFF;" d="M76.036,490.09c-0.562,0-1.132-0.125-1.679-0.375c-2.003-0.93-2.874-3.312-1.945-5.311l1.683-3.623
		c0.929-2,3.292-2.891,5.311-1.953c2.003,0.938,2.874,3.312,1.944,5.311l-1.683,3.632C78.992,489.231,77.548,490.09,76.036,490.09z"
		/>
	<path style="fill:#116FFF;" d="M145.843,299.325c-0.344,0-0.691-0.039-1.039-0.133c-2.132-0.577-3.397-2.764-2.827-4.904
		l1.047-3.904c0.578-2.125,2.772-3.382,4.896-2.827c2.132,0.578,3.397,2.765,2.827,4.904l-1.047,3.905
		C149.22,298.146,147.607,299.325,145.843,299.325z"/>
	<path style="fill:#116FFF;" d="M93.077,496.284c-0.34,0-0.684-0.039-1.027-0.133c-2.136-0.563-3.409-2.749-2.843-4.889l1.023-3.866
		c0.57-2.132,2.772-3.39,4.889-2.843c2.136,0.57,3.409,2.757,2.843,4.889l-1.023,3.866
		C96.462,495.104,94.846,496.284,93.077,496.284z"/>
	<path style="fill:#116FFF;" d="M128.685,296.303c-0.117,0-0.238,0-0.359-0.016c-2.198-0.195-3.822-2.141-3.627-4.343l0.359-4.014
		c0.199-2.202,2.109-3.858,4.338-3.632c2.198,0.195,3.823,2.14,3.627,4.334l-0.359,4.03
		C132.477,294.741,130.735,296.303,128.685,296.303z"/>
	<path style="fill:#116FFF;" d="M110.926,499.43c-0.113,0-0.227,0-0.344-0.016c-2.198-0.188-3.831-2.124-3.643-4.326l0.339-3.998
		c0.184-2.203,2.066-3.874,4.323-3.64c2.198,0.188,3.83,2.124,3.643,4.326l-0.339,3.999
		C114.729,497.853,112.98,499.43,110.926,499.43z"/>
	<path style="fill:#116FFF;" d="M111.266,296.303c-2.05,0-3.796-1.563-3.979-3.647l-0.355-4.022
		c-0.195-2.202,1.433-4.139,3.631-4.334c2.237-0.219,4.143,1.43,4.334,3.632l0.355,4.021c0.195,2.194-1.433,4.14-3.631,4.335
		C111.5,296.303,111.383,296.303,111.266,296.303z"/>
	<path style="fill:#116FFF;" d="M129.04,499.43c-2.05,0-3.795-1.562-3.979-3.639l-0.355-3.999c-0.195-2.202,1.429-4.146,3.627-4.342
		c2.238-0.156,4.147,1.437,4.339,3.624l0.355,3.998c0.195,2.202-1.429,4.146-3.627,4.342
		C129.278,499.43,129.157,499.43,129.04,499.43z"/>
	<path style="fill:#116FFF;" d="M94.1,299.317c-1.765,0-3.385-1.171-3.861-2.967l-1.039-3.905c-0.566-2.124,0.703-4.318,2.839-4.889
		c2.116-0.531,4.323,0.702,4.893,2.843l1.039,3.896c0.566,2.133-0.703,4.319-2.839,4.896
		C94.787,299.278,94.443,299.317,94.1,299.317z"/>
	<path style="fill:#116FFF;" d="M146.893,496.284c-1.761,0-3.374-1.172-3.854-2.952l-1.047-3.866
		c-0.578-2.132,0.684-4.326,2.812-4.904c2.147-0.578,4.327,0.68,4.904,2.812l1.047,3.866c0.578,2.132-0.684,4.334-2.812,4.904
		C147.592,496.245,147.24,496.284,146.893,496.284z"/>
	<path style="fill:#116FFF;" d="M77.743,305.284c-1.511,0-2.956-0.859-3.631-2.312l-1.699-3.671
		c-0.929-1.999-0.059-4.373,1.945-5.311c2.015-0.929,4.385-0.047,5.311,1.953l1.698,3.654c0.93,2.008,0.059,4.39-1.944,5.311
		C78.875,305.167,78.305,305.284,77.743,305.284z"/>
	<path style="fill:#116FFF;" d="M163.922,490.09c-1.515,0-2.96-0.859-3.636-2.327l-1.675-3.624
		c-0.926-2.015-0.047-4.389,1.956-5.311c2.015-0.922,4.381-0.047,5.307,1.953l1.675,3.639c0.925,1.999,0.047,4.373-1.957,5.303
		C165.05,489.973,164.48,490.09,163.922,490.09z"/>
	<path style="fill:#116FFF;" d="M62.658,313.992c-1.265,0-2.507-0.602-3.284-1.71l-2.308-3.312
		c-1.261-1.812-0.816-4.312,0.992-5.568c1.819-1.258,4.311-0.82,5.568,0.991l2.308,3.312c1.261,1.812,0.816,4.312-0.996,5.568
		C64.244,313.757,63.447,313.992,62.658,313.992z"/>
	<path style="fill:#116FFF;" d="M179.619,481.024c-1.266,0-2.511-0.602-3.288-1.711l-2.28-3.28c-1.261-1.819-0.813-4.311,1-5.575
		c1.82-1.258,4.303-0.813,5.568,0.999l2.281,3.28c1.261,1.819,0.812,4.311-1,5.576C181.2,480.797,180.408,481.024,179.619,481.024z"
		/>
	<path style="fill:#116FFF;" d="M52.107,458.04c-2.21,0-3.998-1.796-3.998-3.998v-11.309c0-2.21,1.788-3.998,3.998-3.998
		c2.21,0,3.999,1.788,3.999,3.998v11.309C56.106,456.244,54.318,458.04,52.107,458.04z"/>
	<path style="fill:#116FFF;" d="M69.078,463.694H57.762c-2.21,0-3.998-1.788-3.998-3.998c0-2.211,1.788-3.999,3.998-3.999h11.316
		c2.21,0,3.998,1.788,3.998,3.999C73.076,461.906,71.288,463.694,69.078,463.694z"/>
	<path style="fill:#116FFF;" d="M52.107,446.731c-1.022,0-2.046-0.391-2.827-1.171c-1.562-1.562-1.562-4.093,0-5.654l11.312-11.309
		c1.562-1.562,4.092-1.562,5.654,0c1.562,1.563,1.562,4.093,0,5.654L54.933,445.56C54.154,446.34,53.131,446.731,52.107,446.731z"/>
	<path style="fill:#116FFF;" d="M69.078,463.694c-1.023,0-2.046-0.391-2.827-1.172c-1.562-1.562-1.562-4.092,0-5.654L77.56,445.56
		c1.562-1.562,4.092-1.562,5.654,0s1.562,4.092,0,5.654l-11.308,11.308C71.124,463.303,70.101,463.694,69.078,463.694z"/>
	<path style="fill:#116FFF;" d="M80.386,452.385c-1.023,0-2.046-0.391-2.827-1.171l-16.967-16.963c-1.562-1.562-1.562-4.092,0-5.654
		c1.562-1.562,4.092-1.562,5.654,0l16.966,16.963c1.562,1.562,1.562,4.092,0,5.654C82.433,451.995,81.409,452.385,80.386,452.385z"
		/>
	<path style="fill:#116FFF;" d="M196.304,296.88c-1.039,0-2.082-0.397-2.862-1.202c-1.543-1.578-1.512-4.116,0.07-5.654
		l224.124-218.47c1.577-1.535,4.123-1.511,5.653,0.07c1.547,1.581,1.516,4.115-0.07,5.654l-224.123,218.47
		C198.319,296.506,197.312,296.88,196.304,296.88z"/>
	<path style="fill:#116FFF;" d="M83.21,432.596c-1.023,0-2.046-0.391-2.827-1.172c-1.562-1.562-1.562-4.092,0-5.654L476.989,29.167
		c1.562-1.562,4.093-1.562,5.654,0s1.562,4.092,0,5.654L86.037,431.424C85.256,432.206,84.232,432.596,83.21,432.596z"/>
	<path style="fill:#116FFF;" d="M218.937,319.498c-1.008,0-2.015-0.375-2.792-1.141c-1.582-1.53-1.613-4.068-0.07-5.654
		L434.52,88.587c1.546-1.578,4.085-1.605,5.654-0.07c1.585,1.539,1.616,4.073,0.078,5.654L221.799,318.294
		C221.018,319.091,219.975,319.498,218.937,319.498z"/>
	<path style="fill:#116FFF;" d="M420.431,78.415c-0.422,0-0.851-0.066-1.265-0.207c-2.101-0.699-3.233-2.964-2.53-5.057l5.67-16.981
		c0.703-2.093,2.951-3.226,5.061-2.526c2.093,0.699,3.217,2.963,2.522,5.057l-5.67,16.981
		C423.665,77.357,422.103,78.415,420.431,78.415z"/>
	<path style="fill:#116FFF;" d="M437.386,95.377c-1.68,0-3.233-1.059-3.787-2.733c-0.703-2.093,0.421-4.358,2.521-5.057l16.971-5.67
		c2.093-0.707,4.357,0.434,5.061,2.526s-0.43,4.357-2.53,5.057l-16.97,5.67C438.238,95.311,437.8,95.377,437.386,95.377z"/>
	<path style="fill:#116FFF;" d="M454.365,89.708c-1.219,0-2.414-0.551-3.202-1.601c-1.328-1.766-0.969-4.272,0.804-5.596
		L497.2,48.586c1.765-1.332,4.272-0.973,5.6,0.8c1.328,1.766,0.969,4.272-0.804,5.596l-45.234,33.925
		C456.043,89.446,455.2,89.708,454.365,89.708z"/>
	<path style="fill:#116FFF;" d="M426.093,61.433c-0.836,0-1.679-0.262-2.397-0.801c-1.765-1.324-2.124-3.831-0.796-5.596
		l33.924-45.229c1.328-1.776,3.827-2.12,5.592-0.8c1.773,1.323,2.133,3.83,0.805,5.595l-33.925,45.229
		C428.506,60.882,427.304,61.433,426.093,61.433z"/>
	<path style="fill:#116FFF;" d="M460.027,16.204c-1.031,0-2.047-0.391-2.828-1.167c-1.562-1.562-1.562-4.092-0.008-5.658
		c6.037-6.044,14.073-9.375,22.617-9.379c0.008,0,0.008,0,0.008,0c8.543,0,16.572,3.327,22.616,9.368
		c1.563,1.562,1.563,4.092,0,5.654c-1.562,1.562-4.092,1.562-5.653,0c-4.53-4.53-10.559-7.025-16.963-7.025l0,0
		c-6.412,0-12.434,2.499-16.963,7.037C462.072,15.813,461.042,16.204,460.027,16.204z"/>
	<path style="fill:#116FFF;" d="M499.621,55.779c-1.03,0-2.046-0.391-2.826-1.168c-1.563-1.562-1.563-4.092-0.008-5.654
		c9.348-9.36,9.348-24.588,0-33.94c-1.555-1.566-1.555-4.096,0.008-5.658c1.562-1.554,4.092-1.558,5.653,0.004
		c12.448,12.472,12.448,32.769,0,45.241C501.668,55.388,500.636,55.779,499.621,55.779z"/>
	<path style="fill:#116FFF;" d="M71.901,421.28c-1.023,0-2.046-0.391-2.827-1.172c-1.562-1.562-1.562-4.092,0-5.653l100.42-100.416
		c1.562-1.562,4.092-1.562,5.654,0s1.562,4.092,0,5.654L74.729,420.108C73.947,420.889,72.924,421.28,71.901,421.28z"/>
	<path style="fill:#116FFF;" d="M94.522,443.905c-1.023,0-2.046-0.391-2.827-1.172c-1.562-1.563-1.562-4.092,0-5.654
		l100.424-100.416c1.562-1.562,4.092-1.562,5.654,0c1.562,1.563,1.562,4.093,0,5.654L97.349,442.733
		C96.568,443.514,95.545,443.905,94.522,443.905z"/>
	<path style="fill:#116FFF;" d="M114.269,429.714c-1.023,0-2.046-0.391-2.827-1.172l-28.275-28.27c-1.562-1.562-1.562-4.092,0-5.654
		c1.562-1.562,4.092-1.562,5.654,0l28.275,28.271c1.562,1.562,1.562,4.092,0,5.653C116.314,429.324,115.291,429.714,114.269,429.714
		z"/>
</g>
<g>
</g>
<g>
</g>
<g>
</g>
<g>
</g>
<g>
</g>
<g>
</g>
<g>
</g>
<g>
</g>
<g>
</g>
<g>
</g>
<g>
</g>
<g>
</g>
<g>
</g>
<g>
</g>
<g>
</g>
</svg>
