<?xml version="1.0" encoding="iso-8859-1"?>
<!-- Generator: Adobe Illustrator 19.0.0, SVG Export Plug-In . SVG Version: 6.00 Build 0)  -->
<svg version="1.1" id="Capa_1" xmlns="http://www.w3.org/2000/svg" xmlns:xlink="http://www.w3.org/1999/xlink" x="0px" y="0px"
	 viewBox="0 0 511.811 511.811" style="enable-background:new 0 0 511.811 511.811;" xml:space="preserve">
<rect x="3.999" y="155.945" style="fill:#94C1FF;" width="503.81" height="263.9"/>
<g>
	<rect x="179.936" y="203.925" style="fill:#D7E9FF;" width="23.991" height="215.92"/>
	<rect x="307.886" y="203.925" style="fill:#D7E9FF;" width="23.991" height="215.92"/>
</g>
<path style="fill:#656D78;" d="M19.993,419.868v7.95c0,4.396,3.6,7.996,7.997,7.996h39.985h71.974h231.914h71.974h39.984
	c4.397,0,7.997-3.6,7.997-7.996v-7.95H19.993z"/>
<g>
	<path style="fill:#5C9EFF;" d="M19.993,419.868v7.95c0,4.396,3.6,7.996,7.997,7.996h39.985h71.974h231.914h71.974h39.984
		c4.397,0,7.997-3.6,7.997-7.996v-7.95H19.993z"/>
	<circle style="fill:#5C9EFF;" cx="91.966" cy="331.875" r="71.973"/>
</g>
<path style="fill:#94C1FF;" d="M27.99,331.877c0-38.399,30.098-69.686,67.975-71.771c-1.328-0.078-2.647-0.202-3.999-0.202
	c-39.751,0-71.973,32.222-71.973,71.973s32.222,71.974,71.973,71.974c1.352,0,2.671-0.125,3.999-0.203
	C58.089,401.563,27.99,370.277,27.99,331.877z"/>
<circle style="fill:#D7E9FF;" cx="91.966" cy="331.875" r="19.992"/>
<path style="fill:#FFFFFF;" d="M79.971,331.877c0-9.676,6.864-17.735,15.994-19.586c-1.289-0.266-2.632-0.406-3.999-0.406
	c-11.043,0-19.992,8.949-19.992,19.992s8.949,19.992,19.992,19.992c1.367,0,2.71-0.141,3.999-0.406
	C86.836,349.612,79.971,341.552,79.971,331.877z"/>
<circle style="fill:#5C9EFF;" cx="415.846" cy="331.875" r="71.973"/>
<g>
	<circle style="fill:#D7E9FF;" cx="415.846" cy="331.875" r="19.992"/>
	<rect x="59.976" y="171.935" style="fill:#D7E9FF;" width="63.977" height="71.973"/>
	<rect x="387.856" y="171.935" style="fill:#D7E9FF;" width="63.976" height="71.973"/>
</g>
<rect x="139.946" y="171.935" style="fill:#FFFFFF;" width="231.91" height="31.988"/>
<g>
	<rect x="19.996" y="187.935" style="fill:#D7E9FF;" width="15.994" height="39.985"/>
	<rect x="475.826" y="187.935" style="fill:#D7E9FF;" width="15.993" height="39.985"/>
</g>
<g>
	<path style="fill:#FFFFFF;" d="M203.926,303.887c0,6.622-5.373,11.995-11.996,11.995c-6.622,0-11.995-5.373-11.995-11.995
		c0-6.623,5.373-11.996,11.995-11.996S203.926,297.264,203.926,303.887z"/>
	<path style="fill:#FFFFFF;" d="M203.926,351.869c0,6.623-5.373,11.996-11.996,11.996c-6.622,0-11.995-5.373-11.995-11.996
		c0-6.622,5.373-11.995,11.995-11.995S203.926,345.247,203.926,351.869z"/>
	<path style="fill:#FFFFFF;" d="M331.878,303.887c0,6.622-5.373,11.995-11.996,11.995c-6.622,0-11.995-5.373-11.995-11.995
		c0-6.623,5.373-11.996,11.995-11.996C326.505,291.891,331.878,297.264,331.878,303.887z"/>
	<path style="fill:#FFFFFF;" d="M331.878,351.869c0,6.623-5.373,11.996-11.996,11.996c-6.622,0-11.995-5.373-11.995-11.996
		c0-6.622,5.373-11.995,11.995-11.995C326.505,339.874,331.878,345.247,331.878,351.869z"/>
</g>
<rect x="203.926" y="203.925" style="fill:#94C1FF;" width="103.96" height="215.92"/>
<rect x="215.916" y="387.855" style="fill:#CCD1D9;" width="79.971" height="7.997"/>
<rect x="219.916" y="291.895" style="fill:#94C1FF;" width="71.973" height="55.979"/>
<g>
	<path style="fill:#5C9EFF;" d="M247.909,319.888c0,6.615-5.373,11.988-11.996,11.988c-6.615,0-11.996-5.373-11.996-11.988
		c0-6.622,5.381-12.003,11.996-12.003C242.536,307.885,247.909,313.266,247.909,319.888z"/>
	<path style="fill:#5C9EFF;" d="M287.894,319.888c0,6.615-5.373,11.988-11.996,11.988c-6.614,0-11.995-5.373-11.995-11.988
		c0-6.622,5.381-12.003,11.995-12.003C282.521,307.885,287.894,313.266,287.894,319.888z"/>
</g>
<g>
	<path style="fill:#D7E9FF;" d="M467.827,83.968v7.997h-15.994V75.971h7.998C464.227,75.971,467.827,79.572,467.827,83.968z"/>
	<path style="fill:#D7E9FF;" d="M59.978,75.971v15.994H43.985v-7.997c0-4.396,3.6-7.997,7.997-7.997H59.978z"/>
</g>
<rect x="59.976" y="75.975" style="fill:#94C1FF;" width="391.85" height="15.994"/>
<rect x="3.999" y="155.945" style="fill:#D7E9FF;" width="7.997" height="263.93"/>
<g style="opacity:0.2;">
	<rect x="499.816" y="155.945" width="7.997" height="263.93"/>
</g>
<rect x="59.976" y="171.935" style="fill:#FFFFFF;" width="7.997" height="71.973"/>
<rect x="443.836" y="171.935" style="fill:#94C1FF;" width="7.996" height="71.973"/>
<path style="fill:#2287FF;" d="M479.823,331.877c0,38.4-30.099,69.686-67.975,71.771c1.327,0.078,2.647,0.203,3.998,0.203
	c39.751,0,71.974-32.223,71.974-71.974s-32.223-71.973-71.974-71.973c-1.351,0-2.671,0.124-3.998,0.202
	C449.724,262.191,479.823,293.477,479.823,331.877z"/>
<path style="fill:#94C1FF;" d="M427.843,331.877c0,9.676-6.865,17.735-15.994,19.586c1.288,0.266,2.632,0.406,3.998,0.406
	c11.043,0,19.992-8.949,19.992-19.992s-8.949-19.992-19.992-19.992c-1.366,0-2.71,0.141-3.998,0.406
	C420.977,314.141,427.843,322.201,427.843,331.877z"/>
<g>
	<path style="fill:#116FFF;" d="M28.232,367.863c-2.21,0-4.037-1.788-4.037-3.998s1.749-3.998,3.952-3.998h0.085
		c2.203,0,3.999,1.788,3.999,3.998S30.435,367.863,28.232,367.863z"/>
	<path style="fill:#116FFF;" d="M44.226,383.857c-2.21,0-4.037-1.788-4.037-3.998s1.749-3.999,3.951-3.999h0.086
		c2.203,0,3.999,1.789,3.999,3.999S46.429,383.857,44.226,383.857z"/>
	<path style="fill:#116FFF;" d="M60.22,399.852c-2.21,0-4.037-1.788-4.037-3.998c0-2.211,1.749-3.999,3.951-3.999h0.086
		c2.203,0,3.999,1.788,3.999,3.999C64.219,398.063,62.423,399.852,60.22,399.852z"/>
	<path style="fill:#116FFF;" d="M28.232,335.875c-2.21,0-4.037-1.788-4.037-3.998s1.749-3.998,3.952-3.998h0.085
		c2.203,0,3.999,1.788,3.999,3.998S30.435,335.875,28.232,335.875z"/>
	<path style="fill:#116FFF;" d="M44.226,351.869c-2.21,0-4.037-1.788-4.037-3.998s1.749-3.998,3.951-3.998h0.086
		c2.203,0,3.999,1.788,3.999,3.998S46.429,351.869,44.226,351.869z"/>
	<path style="fill:#116FFF;" d="M60.22,367.863c-2.21,0-4.037-1.788-4.037-3.998s1.749-3.998,3.951-3.998h0.086
		c2.203,0,3.999,1.788,3.999,3.998S62.423,367.863,60.22,367.863z"/>
	<path style="fill:#116FFF;" d="M76.215,383.857c-2.21,0-4.037-1.788-4.037-3.998s1.749-3.999,3.951-3.999h0.086
		c2.202,0,3.999,1.789,3.999,3.999S78.417,383.857,76.215,383.857z"/>
	<path style="fill:#116FFF;" d="M92.209,399.852c-2.21,0-4.038-1.788-4.038-3.998c0-2.211,1.75-3.999,3.952-3.999h0.086
		c2.202,0,3.999,1.788,3.999,3.999C96.207,398.063,94.411,399.852,92.209,399.852z"/>
	<path style="fill:#116FFF;" d="M28.232,303.887c-2.21,0-4.037-1.789-4.037-3.999s1.749-3.998,3.952-3.998h0.085
		c2.203,0,3.999,1.788,3.999,3.998S30.435,303.887,28.232,303.887z"/>
	<path style="fill:#116FFF;" d="M44.226,319.882c-2.21,0-4.037-1.788-4.037-3.998s1.749-3.998,3.951-3.998h0.086
		c2.203,0,3.999,1.788,3.999,3.998S46.429,319.882,44.226,319.882z"/>
	<path style="fill:#116FFF;" d="M60.22,335.875c-2.21,0-4.037-1.788-4.037-3.998s1.749-3.998,3.951-3.998h0.086
		c2.203,0,3.999,1.788,3.999,3.998S62.423,335.875,60.22,335.875z"/>
	<path style="fill:#116FFF;" d="M76.215,351.869c-2.21,0-4.037-1.788-4.037-3.998s1.749-3.998,3.951-3.998h0.086
		c2.202,0,3.999,1.788,3.999,3.998S78.417,351.869,76.215,351.869z"/>
	<path style="fill:#116FFF;" d="M92.209,367.863c-2.21,0-4.038-1.788-4.038-3.998s1.75-3.998,3.952-3.998h0.086
		c2.202,0,3.999,1.788,3.999,3.998S94.411,367.863,92.209,367.863z"/>
	<path style="fill:#116FFF;" d="M108.203,383.857c-2.21,0-4.038-1.788-4.038-3.998s1.75-3.999,3.952-3.999h0.086
		c2.202,0,3.999,1.789,3.999,3.999S110.405,383.857,108.203,383.857z"/>
	<path style="fill:#116FFF;" d="M124.197,399.852c-2.21,0-4.038-1.788-4.038-3.998c0-2.211,1.75-3.999,3.952-3.999h0.086
		c2.202,0,3.999,1.788,3.999,3.999C128.196,398.063,126.399,399.852,124.197,399.852z"/>
	<path style="fill:#116FFF;" d="M44.226,287.893c-2.21,0-4.037-1.788-4.037-3.999c0-2.21,1.749-3.998,3.951-3.998h0.086
		c2.203,0,3.999,1.788,3.999,3.998C48.225,286.105,46.429,287.893,44.226,287.893z"/>
	<path style="fill:#116FFF;" d="M60.22,303.887c-2.21,0-4.037-1.789-4.037-3.999s1.749-3.998,3.951-3.998h0.086
		c2.203,0,3.999,1.788,3.999,3.998S62.423,303.887,60.22,303.887z"/>
	<path style="fill:#116FFF;" d="M76.215,319.882c-2.21,0-4.037-1.788-4.037-3.998s1.749-3.998,3.951-3.998h0.086
		c2.202,0,3.999,1.788,3.999,3.998S78.417,319.882,76.215,319.882z"/>
	<path style="fill:#116FFF;" d="M92.209,335.875c-2.21,0-4.038-1.788-4.038-3.998s1.75-3.998,3.952-3.998h0.086
		c2.202,0,3.999,1.788,3.999,3.998S94.411,335.875,92.209,335.875z"/>
	<path style="fill:#116FFF;" d="M108.203,351.869c-2.21,0-4.038-1.788-4.038-3.998s1.75-3.998,3.952-3.998h0.086
		c2.202,0,3.999,1.788,3.999,3.998S110.405,351.869,108.203,351.869z"/>
	<path style="fill:#116FFF;" d="M124.197,367.863c-2.21,0-4.038-1.788-4.038-3.998s1.75-3.998,3.952-3.998h0.086
		c2.202,0,3.999,1.788,3.999,3.998S126.399,367.863,124.197,367.863z"/>
	<path style="fill:#116FFF;" d="M140.191,383.857c-2.21,0-4.038-1.788-4.038-3.998s1.75-3.999,3.952-3.999h0.086
		c2.202,0,3.998,1.789,3.998,3.999S142.393,383.857,140.191,383.857z"/>
	<path style="fill:#116FFF;" d="M60.22,271.899c-2.21,0-4.037-1.788-4.037-3.999c0-2.21,1.749-3.998,3.951-3.998h0.086
		c2.203,0,3.999,1.788,3.999,3.998C64.219,270.111,62.423,271.899,60.22,271.899z"/>
	<path style="fill:#116FFF;" d="M76.215,287.893c-2.21,0-4.037-1.788-4.037-3.999c0-2.21,1.749-3.998,3.951-3.998h0.086
		c2.202,0,3.999,1.788,3.999,3.998C80.214,286.105,78.417,287.893,76.215,287.893z"/>
	<path style="fill:#116FFF;" d="M92.209,303.887c-2.21,0-4.038-1.789-4.038-3.999s1.75-3.998,3.952-3.998h0.086
		c2.202,0,3.999,1.788,3.999,3.998S94.411,303.887,92.209,303.887z"/>
	<path style="fill:#116FFF;" d="M108.203,319.882c-2.21,0-4.038-1.788-4.038-3.998s1.75-3.998,3.952-3.998h0.086
		c2.202,0,3.999,1.788,3.999,3.998S110.405,319.882,108.203,319.882z"/>
	<path style="fill:#116FFF;" d="M124.197,335.875c-2.21,0-4.038-1.788-4.038-3.998s1.75-3.998,3.952-3.998h0.086
		c2.202,0,3.999,1.788,3.999,3.998S126.399,335.875,124.197,335.875z"/>
	<path style="fill:#116FFF;" d="M140.191,351.869c-2.21,0-4.038-1.788-4.038-3.998s1.75-3.998,3.952-3.998h0.086
		c2.202,0,3.998,1.788,3.998,3.998S142.393,351.869,140.191,351.869z"/>
	<path style="fill:#116FFF;" d="M156.185,367.863c-2.21,0-4.038-1.788-4.038-3.998s1.75-3.998,3.952-3.998h0.086
		c2.202,0,3.998,1.788,3.998,3.998S158.387,367.863,156.185,367.863z"/>
	<path style="fill:#116FFF;" d="M92.209,271.899c-2.21,0-4.038-1.788-4.038-3.999c0-2.21,1.75-3.998,3.952-3.998h0.086
		c2.202,0,3.999,1.788,3.999,3.998C96.207,270.111,94.411,271.899,92.209,271.899z"/>
	<path style="fill:#116FFF;" d="M108.203,287.893c-2.21,0-4.038-1.788-4.038-3.999c0-2.21,1.75-3.998,3.952-3.998h0.086
		c2.202,0,3.999,1.788,3.999,3.998C112.201,286.105,110.405,287.893,108.203,287.893z"/>
	<path style="fill:#116FFF;" d="M124.197,303.887c-2.21,0-4.038-1.789-4.038-3.999s1.75-3.998,3.952-3.998h0.086
		c2.202,0,3.999,1.788,3.999,3.998S126.399,303.887,124.197,303.887z"/>
	<path style="fill:#116FFF;" d="M140.191,319.882c-2.21,0-4.038-1.788-4.038-3.998s1.75-3.998,3.952-3.998h0.086
		c2.202,0,3.998,1.788,3.998,3.998S142.393,319.882,140.191,319.882z"/>
	<path style="fill:#116FFF;" d="M156.185,335.875c-2.21,0-4.038-1.788-4.038-3.998s1.75-3.998,3.952-3.998h0.086
		c2.202,0,3.998,1.788,3.998,3.998S158.387,335.875,156.185,335.875z"/>
	<path style="fill:#116FFF;" d="M124.197,271.899c-2.21,0-4.038-1.788-4.038-3.999c0-2.21,1.75-3.998,3.952-3.998h0.086
		c2.202,0,3.999,1.788,3.999,3.998C128.196,270.111,126.399,271.899,124.197,271.899z"/>
	<path style="fill:#116FFF;" d="M140.191,287.893c-2.21,0-4.038-1.788-4.038-3.999c0-2.21,1.75-3.998,3.952-3.998h0.086
		c2.202,0,3.998,1.788,3.998,3.998C144.189,286.105,142.393,287.893,140.191,287.893z"/>
	<path style="fill:#116FFF;" d="M156.185,303.887c-2.21,0-4.038-1.789-4.038-3.999s1.75-3.998,3.952-3.998h0.086
		c2.202,0,3.998,1.788,3.998,3.998S158.387,303.887,156.185,303.887z"/>
	<path style="fill:#116FFF;" d="M507.812,423.843H3.999c-2.21,0-3.999-1.788-3.999-3.998V155.942c0-2.21,1.789-3.999,3.999-3.999
		h503.813c2.21,0,3.999,1.789,3.999,3.999v263.902C511.811,422.054,510.022,423.843,507.812,423.843z M7.998,415.845h495.816V159.94
		H7.998V415.845z"/>
	<path style="fill:#116FFF;" d="M27.99,439.837c-6.615,0-11.996-5.381-11.996-11.995c0-2.211,1.788-3.999,3.999-3.999
		s3.999,1.788,3.999,3.999c0,2.202,1.796,3.998,3.999,3.998c2.21,0,3.999,1.789,3.999,3.998
		C31.989,438.049,30.2,439.837,27.99,439.837z"/>
	<path style="fill:#116FFF;" d="M483.821,439.837H27.99c-2.21,0-3.999-1.788-3.999-3.999c0-2.209,1.788-3.998,3.999-3.998h455.831
		c2.211,0,3.999,1.789,3.999,3.998C487.82,438.049,486.032,439.837,483.821,439.837z"/>
	<path style="fill:#116FFF;" d="M67.975,439.837c-2.21,0-3.998-1.788-3.998-3.999v-7.996c0-2.211,1.788-3.999,3.998-3.999
		s3.999,1.788,3.999,3.999v7.996C71.974,438.049,70.186,439.837,67.975,439.837z"/>
	<path style="fill:#116FFF;" d="M139.949,439.837c-2.21,0-3.999-1.788-3.999-3.999v-7.996c0-2.211,1.789-3.999,3.999-3.999
		s3.999,1.788,3.999,3.999v7.996C143.948,438.049,142.159,439.837,139.949,439.837z"/>
	<path style="fill:#116FFF;" d="M483.821,439.837c-2.21,0-3.998-1.788-3.998-3.999c0-2.209,1.788-3.998,3.998-3.998
		c2.203,0,3.999-1.796,3.999-3.998c0-2.211,1.788-3.999,3.998-3.999s3.999,1.788,3.999,3.999
		C495.817,434.456,490.436,439.837,483.821,439.837z"/>
	<path style="fill:#116FFF;" d="M443.837,439.837c-2.211,0-3.999-1.788-3.999-3.999v-7.996c0-2.211,1.788-3.999,3.999-3.999
		c2.21,0,3.998,1.788,3.998,3.999v7.996C447.835,438.049,446.047,439.837,443.837,439.837z"/>
	<path style="fill:#116FFF;" d="M371.863,439.837c-2.21,0-3.999-1.788-3.999-3.999v-7.996c0-2.211,1.789-3.999,3.999-3.999
		s3.998,1.788,3.998,3.999v7.996C375.861,438.049,374.073,439.837,371.863,439.837z"/>
	<path style="fill:#116FFF;" d="M91.967,407.848c-41.891,0-75.972-34.081-75.972-75.972s34.081-75.971,75.972-75.971
		s75.972,34.081,75.972,75.972S133.857,407.848,91.967,407.848z M91.967,263.902c-37.478,0-67.975,30.496-67.975,67.975
		s30.497,67.975,67.975,67.975c37.479,0,67.975-30.496,67.975-67.975S129.445,263.902,91.967,263.902z"/>
	<path style="fill:#116FFF;" d="M91.967,355.868c-13.229,0-23.991-10.762-23.991-23.991s10.762-23.991,23.991-23.991
		s23.991,10.762,23.991,23.991S105.196,355.868,91.967,355.868z M91.967,315.883c-8.817,0-15.994,7.178-15.994,15.994
		c0,8.817,7.177,15.994,15.994,15.994s15.994-7.177,15.994-15.994S100.784,315.883,91.967,315.883z"/>
	<path style="fill:#116FFF;" d="M352.112,367.863c-2.21,0-4.037-1.788-4.037-3.998s1.749-3.998,3.951-3.998h0.086
		c2.203,0,3.999,1.788,3.999,3.998S354.315,367.863,352.112,367.863z"/>
	<path style="fill:#116FFF;" d="M368.106,383.857c-2.21,0-4.037-1.788-4.037-3.998s1.749-3.999,3.951-3.999h0.086
		c2.203,0,3.999,1.789,3.999,3.999S370.309,383.857,368.106,383.857z"/>
	<path style="fill:#116FFF;" d="M384.1,399.852c-2.21,0-4.037-1.788-4.037-3.998c0-2.211,1.749-3.999,3.951-3.999h0.086
		c2.203,0,3.999,1.788,3.999,3.999C388.099,398.063,386.303,399.852,384.1,399.852z"/>
	<path style="fill:#116FFF;" d="M352.112,335.875c-2.21,0-4.037-1.788-4.037-3.998s1.749-3.998,3.951-3.998h0.086
		c2.203,0,3.999,1.788,3.999,3.998S354.315,335.875,352.112,335.875z"/>
	<path style="fill:#116FFF;" d="M368.106,351.869c-2.21,0-4.037-1.788-4.037-3.998s1.749-3.998,3.951-3.998h0.086
		c2.203,0,3.999,1.788,3.999,3.998S370.309,351.869,368.106,351.869z"/>
	<path style="fill:#116FFF;" d="M384.1,367.863c-2.21,0-4.037-1.788-4.037-3.998s1.749-3.998,3.951-3.998h0.086
		c2.203,0,3.999,1.788,3.999,3.998S386.303,367.863,384.1,367.863z"/>
	<path style="fill:#116FFF;" d="M400.094,383.857c-2.21,0-4.037-1.788-4.037-3.998s1.749-3.999,3.951-3.999h0.086
		c2.202,0,3.999,1.789,3.999,3.999S402.297,383.857,400.094,383.857z"/>
	<path style="fill:#116FFF;" d="M416.089,399.852c-2.21,0-4.037-1.788-4.037-3.998c0-2.211,1.749-3.999,3.951-3.999h0.086
		c2.202,0,3.998,1.788,3.998,3.999C420.087,398.063,418.291,399.852,416.089,399.852z"/>
	<path style="fill:#116FFF;" d="M352.112,303.887c-2.21,0-4.037-1.789-4.037-3.999s1.749-3.998,3.951-3.998h0.086
		c2.203,0,3.999,1.788,3.999,3.998S354.315,303.887,352.112,303.887z"/>
	<path style="fill:#116FFF;" d="M368.106,319.882c-2.21,0-4.037-1.788-4.037-3.998s1.749-3.998,3.951-3.998h0.086
		c2.203,0,3.999,1.788,3.999,3.998S370.309,319.882,368.106,319.882z"/>
	<path style="fill:#116FFF;" d="M384.1,335.875c-2.21,0-4.037-1.788-4.037-3.998s1.749-3.998,3.951-3.998h0.086
		c2.203,0,3.999,1.788,3.999,3.998S386.303,335.875,384.1,335.875z"/>
	<path style="fill:#116FFF;" d="M400.094,351.869c-2.21,0-4.037-1.788-4.037-3.998s1.749-3.998,3.951-3.998h0.086
		c2.202,0,3.999,1.788,3.999,3.998S402.297,351.869,400.094,351.869z"/>
	<path style="fill:#116FFF;" d="M416.089,367.863c-2.21,0-4.037-1.788-4.037-3.998s1.749-3.998,3.951-3.998h0.086
		c2.202,0,3.998,1.788,3.998,3.998S418.291,367.863,416.089,367.863z"/>
	<path style="fill:#116FFF;" d="M432.083,383.857c-2.21,0-4.037-1.788-4.037-3.998s1.749-3.999,3.951-3.999h0.086
		c2.202,0,3.998,1.789,3.998,3.999S434.285,383.857,432.083,383.857z"/>
	<path style="fill:#116FFF;" d="M448.077,399.852c-2.21,0-4.037-1.788-4.037-3.998c0-2.211,1.749-3.999,3.951-3.999h0.086
		c2.202,0,3.998,1.788,3.998,3.999C452.075,398.063,450.279,399.852,448.077,399.852z"/>
	<path style="fill:#116FFF;" d="M368.106,287.893c-2.21,0-4.037-1.788-4.037-3.999c0-2.21,1.749-3.998,3.951-3.998h0.086
		c2.203,0,3.999,1.788,3.999,3.998C372.105,286.105,370.309,287.893,368.106,287.893z"/>
	<path style="fill:#116FFF;" d="M384.1,303.887c-2.21,0-4.037-1.789-4.037-3.999s1.749-3.998,3.951-3.998h0.086
		c2.203,0,3.999,1.788,3.999,3.998S386.303,303.887,384.1,303.887z"/>
	<path style="fill:#116FFF;" d="M400.094,319.882c-2.21,0-4.037-1.788-4.037-3.998s1.749-3.998,3.951-3.998h0.086
		c2.202,0,3.999,1.788,3.999,3.998S402.297,319.882,400.094,319.882z"/>
	<path style="fill:#116FFF;" d="M416.089,335.875c-2.21,0-4.037-1.788-4.037-3.998s1.749-3.998,3.951-3.998h0.086
		c2.202,0,3.998,1.788,3.998,3.998S418.291,335.875,416.089,335.875z"/>
	<path style="fill:#116FFF;" d="M432.083,351.869c-2.21,0-4.037-1.788-4.037-3.998s1.749-3.998,3.951-3.998h0.086
		c2.202,0,3.998,1.788,3.998,3.998S434.285,351.869,432.083,351.869z"/>
	<path style="fill:#116FFF;" d="M448.077,367.863c-2.21,0-4.037-1.788-4.037-3.998s1.749-3.998,3.951-3.998h0.086
		c2.202,0,3.998,1.788,3.998,3.998S450.279,367.863,448.077,367.863z"/>
	<path style="fill:#116FFF;" d="M464.071,383.857c-2.21,0-4.037-1.788-4.037-3.998s1.749-3.999,3.951-3.999h0.086
		c2.202,0,3.998,1.789,3.998,3.999S466.273,383.857,464.071,383.857z"/>
	<path style="fill:#116FFF;" d="M384.1,271.899c-2.21,0-4.037-1.788-4.037-3.999c0-2.21,1.749-3.998,3.951-3.998h0.086
		c2.203,0,3.999,1.788,3.999,3.998C388.099,270.111,386.303,271.899,384.1,271.899z"/>
	<path style="fill:#116FFF;" d="M400.094,287.893c-2.21,0-4.037-1.788-4.037-3.999c0-2.21,1.749-3.998,3.951-3.998h0.086
		c2.202,0,3.999,1.788,3.999,3.998C404.094,286.105,402.297,287.893,400.094,287.893z"/>
	<path style="fill:#116FFF;" d="M416.089,303.887c-2.21,0-4.037-1.789-4.037-3.999s1.749-3.998,3.951-3.998h0.086
		c2.202,0,3.998,1.788,3.998,3.998S418.291,303.887,416.089,303.887z"/>
	<path style="fill:#116FFF;" d="M432.083,319.882c-2.21,0-4.037-1.788-4.037-3.998s1.749-3.998,3.951-3.998h0.086
		c2.202,0,3.998,1.788,3.998,3.998S434.285,319.882,432.083,319.882z"/>
	<path style="fill:#116FFF;" d="M448.077,335.875c-2.21,0-4.037-1.788-4.037-3.998s1.749-3.998,3.951-3.998h0.086
		c2.202,0,3.998,1.788,3.998,3.998S450.279,335.875,448.077,335.875z"/>
	<path style="fill:#116FFF;" d="M464.071,351.869c-2.21,0-4.037-1.788-4.037-3.998s1.749-3.998,3.951-3.998h0.086
		c2.202,0,3.998,1.788,3.998,3.998S466.273,351.869,464.071,351.869z"/>
	<path style="fill:#116FFF;" d="M480.065,367.863c-2.211,0-4.038-1.788-4.038-3.998s1.75-3.998,3.952-3.998h0.086
		c2.202,0,3.998,1.788,3.998,3.998S482.267,367.863,480.065,367.863z"/>
	<path style="fill:#116FFF;" d="M416.089,271.899c-2.21,0-4.037-1.788-4.037-3.999c0-2.21,1.749-3.998,3.951-3.998h0.086
		c2.202,0,3.998,1.788,3.998,3.998C420.087,270.111,418.291,271.899,416.089,271.899z"/>
	<path style="fill:#116FFF;" d="M432.083,287.893c-2.21,0-4.037-1.788-4.037-3.999c0-2.21,1.749-3.998,3.951-3.998h0.086
		c2.202,0,3.998,1.788,3.998,3.998C436.081,286.105,434.285,287.893,432.083,287.893z"/>
	<path style="fill:#116FFF;" d="M448.077,303.887c-2.21,0-4.037-1.789-4.037-3.999s1.749-3.998,3.951-3.998h0.086
		c2.202,0,3.998,1.788,3.998,3.998S450.279,303.887,448.077,303.887z"/>
	<path style="fill:#116FFF;" d="M464.071,319.882c-2.21,0-4.037-1.788-4.037-3.998s1.749-3.998,3.951-3.998h0.086
		c2.202,0,3.998,1.788,3.998,3.998S466.273,319.882,464.071,319.882z"/>
	<path style="fill:#116FFF;" d="M480.065,335.875c-2.211,0-4.038-1.788-4.038-3.998s1.75-3.998,3.952-3.998h0.086
		c2.202,0,3.998,1.788,3.998,3.998S482.267,335.875,480.065,335.875z"/>
	<path style="fill:#116FFF;" d="M448.077,271.899c-2.21,0-4.037-1.788-4.037-3.999c0-2.21,1.749-3.998,3.951-3.998h0.086
		c2.202,0,3.998,1.788,3.998,3.998C452.075,270.111,450.279,271.899,448.077,271.899z"/>
	<path style="fill:#116FFF;" d="M464.071,287.893c-2.21,0-4.037-1.788-4.037-3.999c0-2.21,1.749-3.998,3.951-3.998h0.086
		c2.202,0,3.998,1.788,3.998,3.998C468.069,286.105,466.273,287.893,464.071,287.893z"/>
	<path style="fill:#116FFF;" d="M480.065,303.887c-2.211,0-4.038-1.789-4.038-3.999s1.75-3.998,3.952-3.998h0.086
		c2.202,0,3.998,1.788,3.998,3.998S482.267,303.887,480.065,303.887z"/>
	<path style="fill:#116FFF;" d="M415.846,407.848c-41.891,0-75.972-34.081-75.972-75.972s34.082-75.971,75.972-75.971
		s75.972,34.081,75.972,75.972S457.737,407.848,415.846,407.848z M415.846,263.902c-37.479,0-67.975,30.496-67.975,67.975
		s30.496,67.975,67.975,67.975s67.975-30.496,67.975-67.975S453.325,263.902,415.846,263.902z"/>
	<path style="fill:#116FFF;" d="M415.846,355.868c-13.229,0-23.991-10.762-23.991-23.991s10.762-23.991,23.991-23.991
		s23.991,10.762,23.991,23.991S429.076,355.868,415.846,355.868z M415.846,315.883c-8.816,0-15.994,7.178-15.994,15.994
		c0,8.817,7.178,15.994,15.994,15.994c8.817,0,15.994-7.177,15.994-15.994C431.841,323.06,424.664,315.883,415.846,315.883z"/>
	<path style="fill:#116FFF;" d="M35.988,231.914H19.993c-2.21,0-3.999-1.788-3.999-3.999V187.93c0-2.21,1.788-3.999,3.999-3.999
		h15.994c2.21,0,3.999,1.789,3.999,3.999v39.985C39.986,230.126,38.198,231.914,35.988,231.914z M23.992,223.917h7.997v-31.988
		h-7.997V223.917z"/>
	<path style="fill:#116FFF;" d="M35.988,211.921H19.993c-2.21,0-3.999-1.789-3.999-3.999s1.788-3.998,3.999-3.998h15.994
		c2.21,0,3.999,1.788,3.999,3.998S38.198,211.921,35.988,211.921z"/>
	<path style="fill:#116FFF;" d="M123.955,247.908H59.978c-2.21,0-3.998-1.789-3.998-3.999v-71.973c0-2.21,1.788-3.999,3.998-3.999
		h63.977c2.21,0,3.999,1.789,3.999,3.999v71.973C127.953,246.119,126.165,247.908,123.955,247.908z M63.977,239.911h55.979v-63.977
		H63.977V239.911z"/>
	<path style="fill:#116FFF;" d="M115.958,199.926H67.975c-2.21,0-3.998-1.788-3.998-3.998s1.788-3.999,3.998-3.999h47.982
		c2.21,0,3.999,1.789,3.999,3.999C119.956,198.137,118.168,199.926,115.958,199.926z"/>
	<path style="fill:#116FFF;" d="M115.958,223.917H67.975c-2.21,0-3.998-1.788-3.998-3.999c0-2.21,1.788-3.999,3.998-3.999h47.982
		c2.21,0,3.999,1.789,3.999,3.999C119.956,222.129,118.168,223.917,115.958,223.917z"/>
	<path style="fill:#116FFF;" d="M91.967,239.911c-2.21,0-3.998-1.788-3.998-3.999v-55.979c0-2.21,1.788-3.999,3.998-3.999
		s3.999,1.789,3.999,3.999v55.979C95.966,238.123,94.177,239.911,91.967,239.911z"/>
	<path style="fill:#116FFF;" d="M491.818,231.914h-15.993c-2.211,0-3.999-1.788-3.999-3.999V187.93c0-2.21,1.788-3.999,3.999-3.999
		h15.993c2.21,0,3.999,1.789,3.999,3.999v39.985C495.817,230.126,494.028,231.914,491.818,231.914z M479.823,223.917h7.997v-31.988
		h-7.997V223.917z"/>
	<path style="fill:#116FFF;" d="M491.818,211.921h-15.993c-2.211,0-3.999-1.789-3.999-3.999s1.788-3.998,3.999-3.998h15.993
		c2.21,0,3.999,1.788,3.999,3.998S494.028,211.921,491.818,211.921z"/>
	<path style="fill:#116FFF;" d="M451.833,247.908h-63.976c-2.21,0-3.999-1.789-3.999-3.999v-71.973c0-2.21,1.789-3.999,3.999-3.999
		h63.976c2.211,0,3.999,1.789,3.999,3.999v71.973C455.832,246.119,454.044,247.908,451.833,247.908z M391.855,239.911h55.979
		v-63.977h-55.979V239.911z"/>
	<path style="fill:#116FFF;" d="M443.837,199.926h-47.982c-2.211,0-3.999-1.788-3.999-3.998s1.788-3.999,3.999-3.999h47.982
		c2.21,0,3.998,1.789,3.998,3.999C447.835,198.137,446.047,199.926,443.837,199.926z"/>
	<path style="fill:#116FFF;" d="M443.837,223.917h-47.982c-2.211,0-3.999-1.788-3.999-3.999c0-2.21,1.788-3.999,3.999-3.999h47.982
		c2.21,0,3.998,1.789,3.998,3.999C447.835,222.129,446.047,223.917,443.837,223.917z"/>
	<path style="fill:#116FFF;" d="M419.845,239.911c-2.21,0-3.999-1.788-3.999-3.999v-55.979c0-2.21,1.789-3.999,3.999-3.999
		s3.998,1.789,3.998,3.999v55.979C423.844,238.123,422.055,239.911,419.845,239.911z"/>
	<path style="fill:#116FFF;" d="M371.863,207.923H139.949c-2.21,0-3.999-1.788-3.999-3.998v-31.988c0-2.21,1.789-3.999,3.999-3.999
		h231.914c2.21,0,3.998,1.789,3.998,3.999v31.988C375.861,206.134,374.073,207.923,371.863,207.923z M143.948,199.926h223.917
		v-23.991H143.948V199.926z"/>
	<path style="fill:#116FFF;" d="M355.869,191.928H155.943c-2.21,0-3.999-1.788-3.999-3.998s1.789-3.999,3.999-3.999h199.926
		c2.21,0,3.999,1.789,3.999,3.999C359.868,190.14,358.079,191.928,355.869,191.928z"/>
	<path style="fill:#116FFF;" d="M283.895,207.923c-2.21,0-3.998-1.788-3.998-3.998v-31.988c0-2.21,1.788-3.999,3.998-3.999
		c2.211,0,3.999,1.789,3.999,3.999v31.988C287.894,206.134,286.106,207.923,283.895,207.923z"/>
	<path style="fill:#116FFF;" d="M192.172,255.905c-2.21,0-4.037-1.789-4.037-3.999c0-2.21,1.749-3.999,3.951-3.999h0.086
		c2.202,0,3.999,1.788,3.999,3.999C196.17,254.116,194.374,255.905,192.172,255.905z"/>
	<path style="fill:#116FFF;" d="M192.172,271.899c-2.21,0-4.037-1.788-4.037-3.999c0-2.21,1.749-3.998,3.951-3.998h0.086
		c2.202,0,3.999,1.788,3.999,3.998C196.17,270.111,194.374,271.899,192.172,271.899z"/>
	<path style="fill:#116FFF;" d="M192.172,391.854c-2.21,0-4.037-1.788-4.037-3.998s1.749-3.999,3.951-3.999h0.086
		c2.202,0,3.999,1.789,3.999,3.999S194.374,391.854,192.172,391.854z"/>
	<path style="fill:#116FFF;" d="M192.172,239.911c-2.21,0-4.037-1.788-4.037-3.999s1.749-3.999,3.951-3.999h0.086
		c2.202,0,3.999,1.788,3.999,3.999S194.374,239.911,192.172,239.911z"/>
	<path style="fill:#116FFF;" d="M179.934,415.845c-2.21,0-3.999-1.788-3.999-3.998V211.921c0-2.21,1.789-3.999,3.999-3.999
		c2.21,0,3.998,1.789,3.998,3.999v199.926C183.932,414.057,182.144,415.845,179.934,415.845z"/>
	<path style="fill:#116FFF;" d="M203.926,415.845c-2.21,0-3.999-1.788-3.999-3.998V211.921c0-2.21,1.789-3.999,3.999-3.999
		c2.21,0,3.998,1.789,3.998,3.999v199.926C207.924,414.057,206.135,415.845,203.926,415.845z"/>
	<path style="fill:#116FFF;" d="M191.929,319.882c-8.817,0-15.994-7.177-15.994-15.993c0-8.817,7.177-15.994,15.994-15.994
		s15.994,7.177,15.994,15.994C207.924,312.704,200.747,319.882,191.929,319.882z M191.929,295.89c-4.412,0-7.997,3.584-7.997,7.997
		c0,4.412,3.585,7.997,7.997,7.997c4.413,0,7.997-3.585,7.997-7.997C199.927,299.474,196.342,295.89,191.929,295.89z"/>
	<path style="fill:#116FFF;" d="M191.929,367.863c-8.817,0-15.994-7.177-15.994-15.994c0-8.816,7.177-15.994,15.994-15.994
		s15.994,7.178,15.994,15.994C207.924,360.686,200.747,367.863,191.929,367.863z M191.929,343.873c-4.412,0-7.997,3.584-7.997,7.996
		c0,4.413,3.585,7.998,7.997,7.998c4.413,0,7.997-3.585,7.997-7.998C199.927,347.457,196.342,343.873,191.929,343.873z"/>
	<path style="fill:#116FFF;" d="M320.124,255.905c-2.21,0-4.037-1.789-4.037-3.999c0-2.21,1.75-3.999,3.951-3.999h0.086
		c2.203,0,3.999,1.788,3.999,3.999C324.123,254.116,322.327,255.905,320.124,255.905z"/>
	<path style="fill:#116FFF;" d="M320.124,271.899c-2.21,0-4.037-1.788-4.037-3.999c0-2.21,1.75-3.998,3.951-3.998h0.086
		c2.203,0,3.999,1.788,3.999,3.998C324.123,270.111,322.327,271.899,320.124,271.899z"/>
	<path style="fill:#116FFF;" d="M320.124,391.854c-2.21,0-4.037-1.788-4.037-3.998s1.75-3.999,3.951-3.999h0.086
		c2.203,0,3.999,1.789,3.999,3.999S322.327,391.854,320.124,391.854z"/>
	<path style="fill:#116FFF;" d="M320.124,239.911c-2.21,0-4.037-1.788-4.037-3.999s1.75-3.999,3.951-3.999h0.086
		c2.203,0,3.999,1.788,3.999,3.999S322.327,239.911,320.124,239.911z"/>
	<path style="fill:#116FFF;" d="M307.886,415.845c-2.21,0-3.998-1.788-3.998-3.998V211.921c0-2.21,1.788-3.999,3.998-3.999
		s3.999,1.789,3.999,3.999v199.926C311.885,414.057,310.096,415.845,307.886,415.845z"/>
	<path style="fill:#116FFF;" d="M331.878,415.845c-2.21,0-3.998-1.788-3.998-3.998V211.921c0-2.21,1.788-3.999,3.998-3.999
		s3.998,1.789,3.998,3.999v199.926C335.876,414.057,334.088,415.845,331.878,415.845z"/>
	<path style="fill:#116FFF;" d="M319.882,319.882c-8.816,0-15.993-7.177-15.993-15.993c0-8.817,7.177-15.994,15.993-15.994
		c8.817,0,15.994,7.177,15.994,15.994C335.876,312.704,328.699,319.882,319.882,319.882z M319.882,295.89
		c-4.412,0-7.996,3.584-7.996,7.997c0,4.412,3.584,7.997,7.996,7.997c4.413,0,7.998-3.585,7.998-7.997
		C327.88,299.474,324.295,295.89,319.882,295.89z"/>
	<path style="fill:#116FFF;" d="M319.882,367.863c-8.816,0-15.993-7.177-15.993-15.994c0-8.816,7.177-15.994,15.993-15.994
		c8.817,0,15.994,7.178,15.994,15.994C335.876,360.686,328.699,367.863,319.882,367.863z M319.882,343.873
		c-4.412,0-7.996,3.584-7.996,7.996c0,4.413,3.584,7.998,7.996,7.998c4.413,0,7.998-3.585,7.998-7.998
		C327.88,347.457,324.295,343.873,319.882,343.873z"/>
	<path style="fill:#116FFF;" d="M291.892,239.911h-71.973c-2.21,0-3.999-1.788-3.999-3.999s1.789-3.999,3.999-3.999h71.973
		c2.21,0,3.999,1.788,3.999,3.999S294.102,239.911,291.892,239.911z"/>
	<path style="fill:#116FFF;" d="M259.905,247.908c-2.211,0-3.999-1.789-3.999-3.999v-15.994c0-2.21,1.788-3.999,3.999-3.999
		c2.209,0,3.998,1.789,3.998,3.999v15.994C263.903,246.119,262.114,247.908,259.905,247.908z"/>
	<path style="fill:#116FFF;" d="M243.91,263.902h-23.991c-2.21,0-3.999-1.789-3.999-3.998c0-2.211,1.789-3.999,3.999-3.999h23.991
		c2.21,0,3.999,1.788,3.999,3.999C247.909,262.113,246.12,263.902,243.91,263.902z"/>
	<path style="fill:#116FFF;" d="M292.392,263.902h-24.491c-2.21,0-3.998-1.789-3.998-3.998c0-2.211,1.788-3.999,3.998-3.999h24.491
		c2.21,0,3.999,1.788,3.999,3.999C296.391,262.113,294.602,263.902,292.392,263.902z"/>
	<path style="fill:#116FFF;" d="M299.889,367.863h-87.967c-2.21,0-3.999-1.788-3.999-3.998s1.789-3.998,3.999-3.998h87.967
		c2.21,0,3.999,1.788,3.999,3.998S302.099,367.863,299.889,367.863z"/>
	<path style="fill:#116FFF;" d="M299.889,279.896h-87.967c-2.21,0-3.999-1.789-3.999-3.999s1.789-3.998,3.999-3.998h87.967
		c2.21,0,3.999,1.788,3.999,3.998S302.099,279.896,299.889,279.896z"/>
	<path style="fill:#116FFF;" d="M215.921,399.852c-2.21,0-3.999-1.788-3.999-3.998v-7.997c0-2.21,1.789-3.999,3.999-3.999
		s3.999,1.789,3.999,3.999v7.997C219.919,398.063,218.131,399.852,215.921,399.852z"/>
	<path style="fill:#116FFF;" d="M231.915,399.852c-2.21,0-3.999-1.788-3.999-3.998v-7.997c0-2.21,1.789-3.999,3.999-3.999
		s3.999,1.789,3.999,3.999v7.997C235.913,398.063,234.125,399.852,231.915,399.852z"/>
	<path style="fill:#116FFF;" d="M247.909,399.852c-2.21,0-3.999-1.788-3.999-3.998v-7.997c0-2.21,1.789-3.999,3.999-3.999
		s3.999,1.789,3.999,3.999v7.997C251.907,398.063,250.119,399.852,247.909,399.852z"/>
	<path style="fill:#116FFF;" d="M263.903,399.852c-2.21,0-3.998-1.788-3.998-3.998v-7.997c0-2.21,1.788-3.999,3.998-3.999
		s3.998,1.789,3.998,3.999v7.997C267.901,398.063,266.113,399.852,263.903,399.852z"/>
	<path style="fill:#116FFF;" d="M279.897,399.852c-2.21,0-3.999-1.788-3.999-3.998v-7.997c0-2.21,1.789-3.999,3.999-3.999
		s3.998,1.789,3.998,3.999v7.997C283.895,398.063,282.107,399.852,279.897,399.852z"/>
	<path style="fill:#116FFF;" d="M295.891,399.852c-2.211,0-3.999-1.788-3.999-3.998v-7.997c0-2.21,1.788-3.999,3.999-3.999
		c2.21,0,3.998,1.789,3.998,3.999v7.997C299.889,398.063,298.101,399.852,295.891,399.852z"/>
	<path style="fill:#116FFF;" d="M295.891,399.852H215.92c-2.21,0-3.999-1.788-3.999-3.998c0-2.211,1.789-3.999,3.999-3.999h79.971
		c2.21,0,3.998,1.788,3.998,3.999C299.889,398.063,298.101,399.852,295.891,399.852z"/>
	<path style="fill:#116FFF;" d="M236.156,323.88c-2.21,0-4.038-1.788-4.038-3.999c0-2.209,1.749-3.998,3.952-3.998h0.086
		c2.202,0,3.999,1.789,3.999,3.998C240.154,322.092,238.358,323.88,236.156,323.88z"/>
	<path style="fill:#116FFF;" d="M219.919,351.869c-2.21,0-3.999-1.788-3.999-3.998v-55.979c0-2.21,1.789-3.998,3.999-3.998
		c2.21,0,3.999,1.788,3.999,3.998v55.979C223.918,350.081,222.13,351.869,219.919,351.869z"/>
	<path style="fill:#116FFF;" d="M291.892,351.869h-71.973c-2.21,0-3.999-1.788-3.999-3.998s1.789-3.998,3.999-3.998h71.973
		c2.21,0,3.999,1.788,3.999,3.998S294.102,351.869,291.892,351.869z"/>
	<path style="fill:#116FFF;" d="M291.892,351.869c-2.21,0-3.998-1.788-3.998-3.998v-55.979c0-2.21,1.788-3.998,3.998-3.998
		s3.999,1.788,3.999,3.998v55.979C295.891,350.081,294.102,351.869,291.892,351.869z"/>
	<path style="fill:#116FFF;" d="M235.913,335.875c-2.21,0-3.999-1.788-3.999-3.998s1.788-3.998,3.999-3.998
		c4.413,0,7.997-3.585,7.997-7.998c0-4.412-3.584-7.996-7.997-7.996c-2.21,0-3.999-1.789-3.999-3.999s1.788-3.998,3.999-3.998
		c8.817,0,15.994,7.177,15.994,15.993C251.907,328.698,244.73,335.875,235.913,335.875z"/>
	<path style="fill:#116FFF;" d="M276.14,323.88c-2.21,0-4.037-1.788-4.037-3.999c0-2.209,1.749-3.998,3.951-3.998h0.086
		c2.202,0,3.999,1.789,3.999,3.998C280.139,322.092,278.343,323.88,276.14,323.88z"/>
	<path style="fill:#116FFF;" d="M275.898,335.875c-8.816,0-15.993-7.177-15.993-15.994c0-8.816,7.177-15.993,15.993-15.993
		c2.21,0,3.999,1.788,3.999,3.998s-1.789,3.999-3.999,3.999c-4.412,0-7.997,3.584-7.997,7.996c0,4.413,3.585,7.998,7.997,7.998
		c2.21,0,3.999,1.788,3.999,3.998S278.108,335.875,275.898,335.875z"/>
	<path style="fill:#116FFF;" d="M291.892,295.89h-71.973c-2.21,0-3.999-1.789-3.999-3.999s1.789-3.998,3.999-3.998h71.973
		c2.21,0,3.999,1.788,3.999,3.998S294.102,295.89,291.892,295.89z"/>
	<path style="fill:#116FFF;" d="M43.985,151.944c-2.21,0-3.999-1.789-3.999-3.999V83.968c0-2.21,1.788-3.998,3.999-3.998
		c2.21,0,3.999,1.788,3.999,3.998v63.977C47.983,150.155,46.195,151.944,43.985,151.944z"/>
	<path style="fill:#116FFF;" d="M43.985,87.968c-2.21,0-3.999-1.789-3.999-3.999c0-6.614,5.381-11.995,11.995-11.995
		c2.21,0,3.999,1.788,3.999,3.998s-1.789,3.999-3.999,3.999c-2.202,0-3.998,1.796-3.998,3.998
		C47.983,86.178,46.195,87.968,43.985,87.968z"/>
	<path style="fill:#116FFF;" d="M467.827,151.944c-2.21,0-3.998-1.789-3.998-3.999V83.968c0-2.21,1.788-3.998,3.998-3.998
		c2.211,0,3.999,1.788,3.999,3.998v63.977C471.826,150.155,470.038,151.944,467.827,151.944z"/>
	<path style="fill:#116FFF;" d="M467.827,87.968c-2.21,0-3.998-1.789-3.998-3.999c0-2.202-1.797-3.998-3.998-3.998
		c-2.211,0-3.999-1.789-3.999-3.999s1.788-3.998,3.999-3.998c6.614,0,11.995,5.381,11.995,11.995
		C471.826,86.178,470.038,87.968,467.827,87.968z"/>
	<path style="fill:#116FFF;" d="M459.831,79.97H51.981c-2.21,0-3.998-1.789-3.998-3.999s1.788-3.998,3.998-3.998h407.85
		c2.209,0,3.998,1.788,3.998,3.998C463.829,78.182,462.04,79.97,459.831,79.97z"/>
	<path style="fill:#116FFF;" d="M459.831,95.965H51.981c-2.21,0-3.998-1.789-3.998-3.999s1.788-3.998,3.998-3.998h407.85
		c2.209,0,3.998,1.788,3.998,3.998S462.04,95.965,459.831,95.965z"/>
	<path style="fill:#116FFF;" d="M59.978,95.965c-2.21,0-3.998-1.789-3.998-3.999V75.971c0-2.21,1.788-3.998,3.998-3.998
		s3.999,1.788,3.999,3.998v15.994C63.977,94.176,62.189,95.965,59.978,95.965z"/>
	<path style="fill:#116FFF;" d="M451.833,95.965c-2.21,0-3.998-1.789-3.998-3.999V75.971c0-2.21,1.788-3.998,3.998-3.998
		c2.211,0,3.999,1.788,3.999,3.998v15.994C455.832,94.176,454.044,95.965,451.833,95.965z"/>
</g>
<g>
</g>
<g>
</g>
<g>
</g>
<g>
</g>
<g>
</g>
<g>
</g>
<g>
</g>
<g>
</g>
<g>
</g>
<g>
</g>
<g>
</g>
<g>
</g>
<g>
</g>
<g>
</g>
<g>
</g>
</svg>
