<?xml version="1.0" encoding="iso-8859-1"?>
<!-- Generator: Adobe Illustrator 19.0.0, SVG Export Plug-In . SVG Version: 6.00 Build 0)  -->
<svg version="1.1" id="Capa_1" xmlns="http://www.w3.org/2000/svg" xmlns:xlink="http://www.w3.org/1999/xlink" x="0px" y="0px"
	 viewBox="0 0 511.812 511.812" style="enable-background:new 0 0 511.812 511.812;" xml:space="preserve">
<path style="fill:#94C1FF;" d="M27.991,239.913v143.955c0,2.483,10.527,4.803,26.99,6.24c12.324,1.117,27.978,1.757,44.983,1.757
	c21.504,0,40.755-1.038,53.98-2.718c11.16-1.437,17.993-3.201,17.993-5.279V239.913H27.991z"/>
<path style="fill:#5C9EFF;" d="M131.952,339.877c0-33.878,15.6-64.063,39.985-83.852v-16.111c0-0.699-0.898-1.375-2.433-2.026
	c-2.905,2.007-5.721,4.115-8.442,6.345c-11.355,9.438-21.113,20.798-28.47,33.667c-10.559,18.236-16.635,39.432-16.635,61.978
	c0,17.118,3.519,33.433,9.758,48.303c0.441,1.046,0.957,2.054,1.434,3.085c6.232-0.281,12.026-0.656,17.247-1.117
	C136.482,375.13,131.952,358.042,131.952,339.877z"/>
<path style="fill:#FFFFFF;" d="M171.938,239.913c0,2.077-6.833,3.838-17.993,5.279c-13.226,1.679-32.477,2.718-53.98,2.718
	c-17.005,0-32.66-0.641-44.983-1.761c-16.462-1.437-26.99-3.756-26.99-6.236c0-4.396,32.207-7.997,71.973-7.997
	S171.938,235.517,171.938,239.913z"/>
<path style="fill:#94C1FF;" d="M342.874,242.912v47.983c0,2.483,10.527,4.803,26.99,6.239c12.323,1.117,27.974,1.757,44.982,1.757
	c21.508,0,40.751-1.038,53.98-2.717c11.16-1.438,17.993-3.202,17.993-5.279v-47.983L342.874,242.912L342.874,242.912z"/>
<path style="fill:#5C9EFF;" d="M339.875,239.913v16.111c12.651,10.278,22.858,23.382,29.825,38.322
	c5.459,0.453,11.378,0.828,17.845,1.086c-2.343-6.084-5.1-11.957-8.325-17.533c-9.23-15.955-22.07-29.458-37.197-39.887
	C340.672,238.621,339.875,239.257,339.875,239.913z"/>
<path style="fill:#FFFFFF;" d="M483.821,239.913c0,2.077-6.833,3.838-17.993,5.279c-13.229,1.679-32.472,2.718-53.979,2.718
	c-17.01,0-32.66-0.641-44.983-1.761c-16.463-1.437-26.99-3.756-26.99-6.236c0-4.396,32.207-7.997,71.974-7.997
	C451.614,231.916,483.821,235.517,483.821,239.913z"/>
<path style="fill:#D7E9FF;" d="M70.975,390.108c-16.462-1.438-26.99-3.757-26.99-6.24V239.913H27.991v143.955
	c0,2.483,10.527,4.803,26.99,6.24c12.324,1.117,27.978,1.757,44.983,1.757c3.042,0,6.021-0.023,8.966-0.063
	C94.681,391.646,81.561,391.069,70.975,390.108z"/>
<path style="fill:#5C9EFF;" d="M467.827,239.913v47.983c0,2.077-6.833,3.842-17.993,5.279c-11.354,1.444-27.161,2.405-45.015,2.655
	c2.336,0.023,4.631,0.063,7.029,0.063c21.508,0,40.75-1.039,53.979-2.718c11.16-1.438,17.993-3.202,17.993-5.279v-47.983
	L467.827,239.913L467.827,239.913z"/>
<polygon style="fill:#D7E9FF;" points="507.812,71.976 347.872,71.976 427.843,47.985 "/>
<path style="fill:#94C1FF;" d="M395.854,117.24c9.918-1.441,15.994-3.202,15.994-5.279v95.964c0,2.077-6.076,3.839-15.994,5.279
	c-6.873,0.957-15.51,1.757-25.35,2.237c-7.037,0.32-14.636,0.48-22.633,0.48c-15.119,0-29.028-0.641-39.985-1.761
	c-14.635-1.438-23.991-3.757-23.991-6.236v-47.982v-23.991V111.96c0,2.48,9.356,4.799,23.991,6.236
	c10.957,1.121,24.866,1.761,39.985,1.761C366.99,119.958,384.093,118.919,395.854,117.24z"/>
<g>
	<path style="fill:#FFFFFF;" d="M411.848,111.961c0,2.078-6.076,3.838-15.994,5.279c-11.762,1.679-28.864,2.718-47.982,2.718
		c-15.119,0-29.028-0.64-39.985-1.761c-14.635-1.437-23.991-3.756-23.991-6.236c0-4.397,28.631-7.997,63.977-7.997
		S411.848,107.564,411.848,111.961z"/>
	<path style="fill:#FFFFFF;" d="M363.225,277.899c10.559,18.236,16.635,39.432,16.635,61.978c0,22.554-6.076,43.749-16.635,61.978
		c-4.396,7.676-9.676,14.877-15.588,21.351c-8.56,9.442-18.634,17.596-29.755,23.991c-18.228,10.559-39.423,16.635-61.976,16.635
		c-22.55,0-43.746-6.076-61.977-16.635c-18.794-10.871-34.468-26.545-45.342-45.342c-2.562-4.397-4.877-8.958-6.877-13.675
		c-6.239-14.87-9.758-31.185-9.758-48.303c0-22.546,6.076-43.741,16.635-61.978c7.356-12.869,17.114-24.229,28.47-33.667
		c5.275-4.318,10.875-8.239,16.873-11.675c18.231-10.559,39.427-16.635,61.977-16.635c22.553,0,43.749,6.076,61.976,16.635
		C336.673,243.432,352.354,259.106,363.225,277.899z M363.866,339.877c0-59.657-48.303-107.96-107.959-107.96
		c-59.658,0-107.96,48.303-107.96,107.96s48.302,107.96,107.96,107.96C315.563,447.837,363.866,399.534,363.866,339.877z"/>
</g>
<path style="fill:#94C1FF;" d="M255.906,231.916c59.657,0,107.959,48.303,107.959,107.96s-48.302,107.961-107.959,107.961
	c-59.658,0-107.96-48.303-107.96-107.96S196.249,231.916,255.906,231.916z"/>
<path style="fill:#D7E9FF;" d="M155.944,339.877c0-58.307,46.174-105.641,103.961-107.757c-1.34-0.051-2.648-0.203-3.999-0.203
	c-59.658,0-107.96,48.303-107.96,107.96s48.302,107.96,107.96,107.96c1.35,0,2.659-0.148,3.999-0.203
	C202.117,445.517,155.944,398.183,155.944,339.877z"/>
<path style="fill:#5C9EFF;" d="M355.228,339.877c0,58.307-46.17,105.641-103.96,107.757c1.339,0.055,2.647,0.203,3.998,0.203
	c59.657,0,107.959-48.303,107.959-107.96s-48.302-107.961-107.959-107.961c-1.351,0-2.659,0.152-3.998,0.203
	C309.058,234.236,355.228,281.57,355.228,339.877z"/>
<path style="fill:#94C1FF;" d="M211.923,117.24c9.918-1.441,15.994-3.202,15.994-5.279v23.991v23.991v47.982
	c0,2.077-6.076,3.839-15.994,5.279c-11.757,1.679-28.868,2.718-47.982,2.718c-15.116,0-29.028-0.641-39.985-1.761
	c-14.635-1.438-23.991-3.757-23.991-6.236v-95.964c0,2.48,9.356,4.799,23.991,6.236c10.957,1.121,24.87,1.761,39.985,1.761
	C183.054,119.958,200.165,118.919,211.923,117.24z"/>
<path style="fill:#D7E9FF;" d="M139.949,214.161c-14.635-1.438-23.991-3.757-23.991-6.236v-90.693
	c-9.918-1.41-15.994-3.284-15.994-5.271v95.964c0,2.479,9.356,4.799,23.991,6.236c10.957,1.12,24.87,1.761,39.985,1.761
	c2.913,0,5.764-0.031,8.571-0.078C160.305,215.668,149.071,215.094,139.949,214.161z"/>
<path style="fill:#5C9EFF;" d="M188.217,214.161c14.635-1.438,23.991-3.757,23.991-6.236v-90.693
	c9.918-1.41,15.994-3.284,15.994-5.271v95.964c0,2.479-9.356,4.799-23.991,6.236c-10.957,1.12-24.87,1.761-39.985,1.761
	c-2.913,0-5.764-0.031-8.571-0.078C167.861,215.668,179.095,215.094,188.217,214.161z"/>
<path style="fill:#D7E9FF;" d="M323.74,214.161c-14.635-1.438-23.991-3.757-23.991-6.236v-90.693
	c-9.918-1.41-15.994-3.284-15.994-5.271v95.964c0,2.479,9.356,4.799,23.991,6.236c10.957,1.12,24.866,1.761,39.985,1.761
	c2.913,0,5.764-0.031,8.575-0.078C344.093,215.668,332.862,215.094,323.74,214.161z"/>
<path style="fill:#5C9EFF;" d="M372.004,214.161c14.635-1.438,23.991-3.757,23.991-6.236v-90.693
	c9.918-1.41,15.994-3.284,15.994-5.271v95.964c0,2.479-9.356,4.799-23.991,6.236c-10.949,1.12-24.866,1.761-39.985,1.761
	c-2.905,0-5.764-0.031-8.567-0.078C351.651,215.668,362.882,215.094,372.004,214.161z"/>
<path style="fill:#FFFFFF;" d="M227.917,111.961c0,2.078-6.076,3.838-15.994,5.279c-11.757,1.679-28.868,2.718-47.982,2.718
	c-15.116,0-29.028-0.64-39.985-1.761c-14.635-1.437-23.991-3.756-23.991-6.236c0-0.32,0.078-0.558,0.32-0.8
	c3.28-3.999,30.547-7.197,63.656-7.197C199.287,103.964,227.917,107.564,227.917,111.961z"/>
<polygon style="fill:#D7E9FF;" points="163.941,71.976 4,71.976 83.97,47.985 "/>
<path style="fill:#FFFFFF;" d="M299.889,339.877c0,24.296-19.695,43.983-43.983,43.983c-24.292,0-43.984-19.688-43.984-43.983
	c0-24.288,19.692-43.983,43.984-43.983C280.194,295.893,299.889,315.589,299.889,339.877z"/>
<g>
	<path style="fill:#116FFF;" d="M483.821,292.496c-2.21,0-3.998-1.585-3.998-3.796v-47.986c0-2.21,1.788-3.999,3.998-3.999
		c2.211,0,3.999,1.789,3.999,3.999v47.58C487.82,290.505,486.032,292.496,483.821,292.496z"/>
	<path style="fill:#116FFF;" d="M411.848,251.909c-20.703,0-39.642-0.917-53.34-2.589c-2.194-0.266-3.757-2.257-3.483-4.452
		c0.266-2.19,2.233-3.792,4.452-3.483c13.182,1.605,32.276,2.526,52.371,2.526c14.486,0,28.208-0.464,39.68-1.347
		c10.551-0.781,17.705-1.769,22.297-2.675c-10.621-2.034-32.457-3.975-61.977-3.975c-14.667,0-28.529,0.464-40.079,1.347
		c-8.294,0.594-15.939,1.507-21.547,2.581c-2.163,0.387-4.256-1.007-4.678-3.179c-0.414-2.167,1.007-4.264,3.179-4.678
		c5.904-1.128,13.877-2.085,22.452-2.698c11.73-0.898,25.803-1.371,40.673-1.371c50.41,0,75.972,4.038,75.972,11.996
		c0,1.347-0.516,2.562-1.546,3.604c-1.094,1.226-4.343,4.823-34.145,7.021C440.463,251.436,426.53,251.909,411.848,251.909z"/>
	<path style="fill:#116FFF;" d="M411.848,299.891c-8.106,0-15.979-0.156-23.281-0.32c-2.21-0.047-3.959-1.874-3.912-4.084
		c0.055-2.202,1.586-3.843,4.092-3.913c7.248,0.164,15.058,0.32,23.102,0.32c14.861,0,28.591-0.405,39.703-1.187
		c18.541-1.156,26.545-3.085,28.662-4.14c0.641-1.343,2.015-2.272,3.607-2.272c2.211,0,3.999,1.789,3.999,3.998
		c0,4.304-2.733,8.342-35.737,10.396C440.822,299.477,426.889,299.891,411.848,299.891z"/>
	<path style="fill:#116FFF;" d="M255.906,467.829c-22.457,0-44.581-5.935-63.98-17.173c-19.395-11.223-35.576-27.404-46.799-46.795
		c-2.71-4.655-5.1-9.411-7.099-14.12c-6.686-15.939-10.075-32.715-10.075-49.864c0-22.452,5.939-44.577,17.173-63.977
		c7.45-13.046,17.337-24.741,29.372-34.741c5.619-4.6,11.48-8.657,17.442-12.074c38.767-22.445,89.142-22.457,127.94,0.012
		c19.399,11.223,35.581,27.404,46.804,46.803c11.237,19.399,17.173,41.524,17.173,63.977c0,22.46-5.936,44.585-17.173,63.984
		c-4.491,7.849-9.911,15.268-16.096,22.046c-8.927,9.832-19.259,18.166-30.708,24.757
		C300.483,461.894,278.366,467.829,255.906,467.829z M255.906,219.921c-21.051,0-41.789,5.564-59.974,16.096
		c-5.596,3.206-11.09,7.009-16.342,11.308c-11.277,9.371-20.547,20.336-27.533,32.559c-10.543,18.204-16.107,38.946-16.107,59.993
		c0,16.088,3.178,31.816,9.446,46.756c1.862,4.39,4.1,8.841,6.646,13.214c10.527,18.196,25.702,33.371,43.891,43.891
		c36.369,21.063,83.574,21.063,119.951,0c10.73-6.178,20.414-13.987,28.786-23.219c5.795-6.349,10.871-13.291,15.089-20.648
		c10.543-18.204,16.103-38.938,16.103-59.993c0-21.047-5.56-41.789-16.095-59.97c-10.52-18.192-25.702-33.367-43.883-43.891
		C297.695,225.485,276.961,219.921,255.906,219.921z"/>
	<path style="fill:#116FFF;" d="M255.906,451.835c-61.735,0-111.958-50.223-111.958-111.958s50.223-111.959,111.958-111.959
		s111.958,50.224,111.958,111.959S317.641,451.835,255.906,451.835z M255.906,235.915c-57.326,0-103.961,46.64-103.961,103.962
		c0,57.33,46.635,103.962,103.961,103.962c57.322,0,103.961-46.632,103.961-103.962
		C359.868,282.554,313.228,235.915,255.906,235.915z"/>
	<path style="fill:#116FFF;" d="M131.952,467.829c-0.496,0-1-0.086-1.484-0.281c-2.05-0.819-3.049-3.146-2.229-5.201l15.994-39.984
		c0.816-2.055,3.167-3.054,5.197-2.227c2.05,0.82,3.05,3.147,2.23,5.193l-15.994,39.986
		C135.041,466.885,133.538,467.829,131.952,467.829z"/>
	<path style="fill:#116FFF;" d="M379.86,467.829c-1.578,0-3.085-0.944-3.71-2.507l-16.002-39.993
		c-0.812-2.046,0.188-4.373,2.233-5.193c2.047-0.819,4.374,0.18,5.201,2.227l15.986,39.977c0.82,2.055-0.164,4.382-2.218,5.201
		C380.86,467.735,380.36,467.829,379.86,467.829z"/>
	<path style="fill:#116FFF;" d="M131.952,343.876h-3.999c-2.21,0-3.999-1.789-3.999-3.999s1.788-3.999,3.999-3.999h3.999
		c2.21,0,3.999,1.789,3.999,3.999S134.162,343.876,131.952,343.876z"/>
	<path style="fill:#116FFF;" d="M383.858,343.876h-3.998c-2.21,0-3.999-1.789-3.999-3.999s1.789-3.999,3.999-3.999h3.998
		c2.211,0,3.999,1.789,3.999,3.999S386.069,343.876,383.858,343.876z"/>
	<path style="fill:#116FFF;" d="M145.073,407.851c-1.39,0-2.745-0.726-3.479-2.022c-1.093-1.921-0.421-4.357,1.5-5.451l3.518-1.999
		c1.929-1.086,4.366-0.414,5.451,1.499c1.094,1.922,0.422,4.365-1.499,5.451l-3.519,2
		C146.42,407.687,145.74,407.851,145.073,407.851z"/>
	<path style="fill:#116FFF;" d="M363.225,281.898c-1.39,0-2.741-0.727-3.475-2.022c-1.094-1.922-0.422-4.357,1.499-5.451
		l3.522-1.999c1.937-1.094,4.365-0.422,5.451,1.499c1.093,1.921,0.421,4.365-1.5,5.451l-3.521,1.999
		C364.577,281.734,363.897,281.898,363.225,281.898z"/>
	<path style="fill:#116FFF;" d="M191.926,454.718c-0.667,0-1.347-0.172-1.972-0.523c-1.921-1.094-2.593-3.53-1.5-5.451l2-3.522
		c1.085-1.921,3.526-2.601,5.451-1.499c1.921,1.093,2.593,3.529,1.499,5.451l-1.999,3.521
		C194.671,453.991,193.317,454.718,191.926,454.718z"/>
	<path style="fill:#116FFF;" d="M317.883,236.555c-0.671,0-1.351-0.168-1.976-0.523c-1.921-1.089-2.593-3.53-1.499-5.451
		l1.999-3.518c1.086-1.921,3.521-2.604,5.451-1.5c1.921,1.089,2.593,3.53,1.499,5.451l-1.999,3.519
		C320.624,235.829,319.273,236.555,317.883,236.555z"/>
	<path style="fill:#116FFF;" d="M319.882,454.639c-1.374,0-2.717-0.711-3.451-1.992l-1.999-3.436
		c-1.117-1.914-0.469-4.358,1.437-5.467c1.906-1.117,4.357-0.469,5.467,1.444l1.999,3.437c1.117,1.913,0.469,4.357-1.437,5.467
		C321.257,454.46,320.569,454.639,319.882,454.639z"/>
	<path style="fill:#116FFF;" d="M193.933,236.555c-1.39,0-2.745-0.726-3.479-2.022l-2-3.519c-1.093-1.921-0.421-4.361,1.5-5.451
		c1.933-1.093,4.369-0.414,5.451,1.5l1.999,3.518c1.094,1.921,0.422,4.362-1.499,5.451
		C195.281,236.387,194.601,236.555,193.933,236.555z"/>
	<path style="fill:#116FFF;" d="M366.74,407.851c-0.672,0-1.344-0.164-1.968-0.522l-3.522-2c-1.921-1.086-2.593-3.529-1.499-5.451
		c1.085-1.921,3.521-2.593,5.451-1.499l3.521,1.999c1.921,1.094,2.593,3.53,1.5,5.451
		C369.489,407.126,368.13,407.851,366.74,407.851z"/>
	<path style="fill:#116FFF;" d="M148.583,281.898c-0.668,0-1.348-0.164-1.972-0.523l-3.518-1.999c-1.921-1.086-2.593-3.53-1.5-5.451
		c1.082-1.921,3.515-2.601,5.451-1.499l3.519,1.999c1.921,1.094,2.593,3.529,1.499,5.451
		C151.328,281.172,149.973,281.898,148.583,281.898z"/>
	<path style="fill:#116FFF;" d="M255.906,219.921c-2.21,0-3.999-1.789-3.999-3.999v-39.985c0-2.21,1.789-3.998,3.999-3.998
		c2.209,0,3.999,1.788,3.999,3.998v39.985C259.905,218.132,258.116,219.921,255.906,219.921z"/>
	<path style="fill:#116FFF;" d="M267.901,195.93c-2.21,0-3.998-1.789-3.998-3.999v-55.979c0-2.21,1.788-3.999,3.998-3.999
		c2.211,0,3.999,1.788,3.999,3.999v55.979C271.9,194.141,270.112,195.93,267.901,195.93z"/>
	<path style="fill:#116FFF;" d="M243.911,195.93c-2.21,0-3.999-1.789-3.999-3.999v-55.979c0-2.21,1.788-3.999,3.999-3.999
		c2.21,0,3.999,1.788,3.999,3.999v55.979C247.909,194.141,246.121,195.93,243.911,195.93z"/>
	<path style="fill:#116FFF;" d="M267.901,179.936h-23.99c-2.21,0-3.999-1.789-3.999-3.999c0-2.21,1.788-3.998,3.999-3.998h23.99
		c2.211,0,3.999,1.788,3.999,3.998C271.9,178.147,270.112,179.936,267.901,179.936z"/>
	<path style="fill:#116FFF;" d="M283.895,139.95h-15.994c-2.21,0-3.998-1.789-3.998-3.999c0-2.21,1.788-3.999,3.998-3.999h15.994
		c2.211,0,3.999,1.788,3.999,3.999C287.894,138.162,286.106,139.95,283.895,139.95z"/>
	<path style="fill:#116FFF;" d="M283.895,163.942h-15.994c-2.21,0-3.998-1.789-3.998-3.999c0-2.21,1.788-3.998,3.998-3.998h15.994
		c2.211,0,3.999,1.788,3.999,3.998C287.894,162.153,286.106,163.942,283.895,163.942z"/>
	<path style="fill:#116FFF;" d="M243.911,139.95h-15.994c-2.21,0-3.999-1.789-3.999-3.999c0-2.21,1.789-3.999,3.999-3.999h15.994
		c2.21,0,3.999,1.788,3.999,3.999C247.909,138.162,246.121,139.95,243.911,139.95z"/>
	<path style="fill:#116FFF;" d="M243.911,163.942h-15.994c-2.21,0-3.999-1.789-3.999-3.999c0-2.21,1.789-3.998,3.999-3.998h15.994
		c2.21,0,3.999,1.788,3.999,3.998C247.909,162.153,246.121,163.942,243.911,163.942z"/>
	<path style="fill:#116FFF;" d="M283.895,211.924c-2.21,0-3.998-1.789-3.998-3.999v-95.964c0-2.21,1.788-3.999,3.998-3.999
		c2.211,0,3.999,1.789,3.999,3.999v95.964C287.894,210.135,286.106,211.924,283.895,211.924z"/>
	<path style="fill:#116FFF;" d="M411.848,211.924c-2.211,0-3.999-1.789-3.999-3.999v-95.964c0-2.21,1.788-3.999,3.999-3.999
		c2.21,0,3.998,1.789,3.998,3.999v95.964C415.846,210.135,414.058,211.924,411.848,211.924z"/>
	<path style="fill:#116FFF;" d="M347.872,123.956c-15.025,0-28.989-0.617-40.392-1.78c-25.451-2.499-27.583-6.416-27.583-10.215
		c0-9.915,36.971-11.996,67.975-11.996s67.975,2.081,67.975,11.996c0,4.737-5.076,7.154-19.414,9.235
		C384.147,122.953,366.451,123.956,347.872,123.956z M292.814,111.941c3.358,0.753,8.356,1.578,15.463,2.277
		c11.152,1.14,24.835,1.741,39.595,1.741c18.22,0,35.502-0.976,47.42-2.679c3.257-0.473,5.732-0.929,7.606-1.347
		c-9.278-2.019-28.739-3.971-55.026-3.971C321.561,107.962,302.084,109.918,292.814,111.941z"/>
	<path style="fill:#116FFF;" d="M347.872,219.921c-15.025,0-28.997-0.617-40.392-1.781c-25.451-2.499-27.583-6.415-27.583-10.215
		c0-2.21,1.788-3.998,3.998-3.998c1.617,0,3.007,0.956,3.64,2.339c1.718,0.914,7.646,2.632,20.742,3.916
		c11.152,1.141,24.835,1.742,39.595,1.742c7.935,0,15.471-0.16,22.445-0.476c9.215-0.449,17.86-1.211,24.99-2.202
		c8.855-1.289,11.934-2.468,12.894-2.96c0.625-1.391,2.022-2.358,3.647-2.358c2.21,0,3.998,1.788,3.998,3.998
		c0,4.736-5.076,7.154-19.414,9.235c-7.389,1.027-16.275,1.812-25.733,2.277C363.593,219.761,355.931,219.921,347.872,219.921z"/>
	<path style="fill:#116FFF;" d="M347.872,171.939c-8.544,0-16.666-0.238-24.163-0.563c-2.202-0.094-3.92-1.96-3.827-4.167
		c0.102-2.206,2.055-3.944,4.171-3.823c14.769,0.633,32.87,0.633,47.639,0c2.28-0.133,4.077,1.617,4.17,3.823
		c0.094,2.207-1.624,4.073-3.826,4.167C364.538,171.7,356.416,171.939,347.872,171.939z"/>
	<path style="fill:#116FFF;" d="M347.872,219.921c-2.21,0-3.998-1.789-3.998-3.999v-15.994c0-2.21,1.788-3.998,3.998-3.998
		s3.998,1.788,3.998,3.998v15.994C351.87,218.132,350.082,219.921,347.872,219.921z"/>
	<path style="fill:#116FFF;" d="M347.872,139.95c-2.21,0-3.998-1.789-3.998-3.999v-15.994c0-2.21,1.788-3.999,3.998-3.999
		s3.998,1.789,3.998,3.999v15.994C351.87,138.162,350.082,139.95,347.872,139.95z"/>
	<path style="fill:#116FFF;" d="M395.854,217.203c-2.211,0-3.999-1.789-3.999-3.999v-9.277c0-2.21,1.788-3.999,3.999-3.999
		c2.21,0,3.998,1.789,3.998,3.999v9.277C399.852,215.414,398.064,217.203,395.854,217.203z"/>
	<path style="fill:#116FFF;" d="M395.854,131.953c-2.211,0-3.999-1.788-3.999-3.999v-10.715c0-2.21,1.788-3.999,3.999-3.999
		c2.21,0,3.998,1.789,3.998,3.999v10.715C399.852,130.165,398.064,131.953,395.854,131.953z"/>
	<path style="fill:#116FFF;" d="M307.886,131.953c-2.21,0-3.998-1.788-3.998-3.999v-9.758c0-2.21,1.788-3.998,3.998-3.998
		s3.999,1.788,3.999,3.998v9.758C311.885,130.165,310.096,131.953,307.886,131.953z"/>
	<path style="fill:#116FFF;" d="M307.886,218.159c-2.21,0-3.998-1.788-3.998-3.998v-10.234c0-2.21,1.788-3.999,3.998-3.999
		s3.999,1.789,3.999,3.999v10.234C311.885,216.371,310.096,218.159,307.886,218.159z"/>
	<path style="fill:#116FFF;" d="M99.964,211.924c-2.21,0-3.998-1.789-3.998-3.999v-95.964c0-2.21,1.788-3.999,3.998-3.999
		s3.999,1.789,3.999,3.999v95.964C103.963,210.135,102.174,211.924,99.964,211.924z"/>
	<path style="fill:#116FFF;" d="M227.917,211.924c-2.21,0-3.999-1.789-3.999-3.999v-95.964c0-2.21,1.789-3.999,3.999-3.999
		c2.21,0,3.999,1.789,3.999,3.999v95.964C231.915,210.135,230.127,211.924,227.917,211.924z"/>
	<path style="fill:#116FFF;" d="M163.941,123.956c-15.026,0-28.993-0.617-40.392-1.78c-25.451-2.499-27.583-6.416-27.583-10.215
		c0-1.765,0.812-2.948,1.491-3.627c6.638-8.126,60.38-8.368,66.483-8.368c31.008,0,67.975,2.081,67.975,11.996
		c0,4.737-5.08,7.154-19.418,9.235C200.216,122.953,182.52,123.956,163.941,123.956z M108.922,111.949
		c3.358,0.75,8.34,1.574,15.424,2.269c11.148,1.14,24.834,1.741,39.595,1.741c18.22,0,35.502-0.976,47.416-2.679
		c3.26-0.473,5.736-0.929,7.61-1.347c-9.278-2.019-28.739-3.971-55.026-3.971C137.681,107.962,118.215,109.922,108.922,111.949z"/>
	<path style="fill:#116FFF;" d="M163.941,219.921c-15.03,0-28.997-0.617-40.392-1.781c-25.451-2.499-27.583-6.415-27.583-10.215
		c0-2.21,1.788-3.998,3.998-3.998c1.617,0,3.007,0.956,3.64,2.339c1.718,0.914,7.646,2.632,20.742,3.916
		c11.148,1.141,24.834,1.742,39.595,1.742c18.22,0,35.502-0.976,47.416-2.678c8.872-1.289,11.948-2.468,12.913-2.96
		c0.625-1.391,2.022-2.358,3.647-2.358c2.21,0,3.999,1.788,3.999,3.998c0,4.736-5.08,7.154-19.418,9.235
		C200.216,218.917,182.52,219.921,163.941,219.921z"/>
	<path style="fill:#116FFF;" d="M163.941,171.939c-8.54,0-16.67-0.238-24.163-0.563c-2.206-0.094-3.917-1.96-3.823-4.167
		c0.098-2.206,2.007-3.944,4.167-3.823c14.768,0.633,32.871,0.633,47.639,0c2.233-0.133,4.072,1.617,4.166,3.823
		c0.094,2.207-1.616,4.073-3.822,4.167C180.61,171.7,172.48,171.939,163.941,171.939z"/>
	<path style="fill:#116FFF;" d="M163.941,219.921c-2.21,0-3.999-1.789-3.999-3.999v-15.994c0-2.21,1.789-3.998,3.999-3.998
		s3.998,1.788,3.998,3.998v15.994C167.939,218.132,166.151,219.921,163.941,219.921z"/>
	<path style="fill:#116FFF;" d="M163.941,139.95c-2.21,0-3.999-1.789-3.999-3.999v-15.994c0-2.21,1.789-3.999,3.999-3.999
		s3.998,1.789,3.998,3.999v15.994C167.939,138.162,166.151,139.95,163.941,139.95z"/>
	<path style="fill:#116FFF;" d="M211.923,217.203c-2.21,0-3.999-1.789-3.999-3.999v-9.277c0-2.21,1.789-3.999,3.999-3.999
		c2.21,0,3.999,1.789,3.999,3.999v9.277C215.921,215.414,214.133,217.203,211.923,217.203z"/>
	<path style="fill:#116FFF;" d="M211.923,131.953c-2.21,0-3.999-1.788-3.999-3.999v-10.715c0-2.21,1.789-3.999,3.999-3.999
		c2.21,0,3.999,1.789,3.999,3.999v10.715C215.921,130.165,214.133,131.953,211.923,131.953z"/>
	<path style="fill:#116FFF;" d="M123.955,131.953c-2.21,0-3.999-1.788-3.999-3.999v-9.758c0-2.21,1.789-3.998,3.999-3.998
		s3.999,1.788,3.999,3.998v9.758C127.954,130.165,126.165,131.953,123.955,131.953z"/>
	<path style="fill:#116FFF;" d="M123.955,218.159c-2.21,0-3.999-1.788-3.999-3.998v-10.234c0-2.21,1.789-3.999,3.999-3.999
		s3.999,1.789,3.999,3.999v10.234C127.954,216.371,126.165,218.159,123.955,218.159z"/>
	<path style="fill:#116FFF;" d="M27.991,387.664c-2.21,0-3.999-1.593-3.999-3.804V239.913c0-2.21,1.788-3.999,3.999-3.999
		c2.21,0,3.999,1.789,3.999,3.999v143.548C31.989,385.673,30.201,387.664,27.991,387.664z"/>
	<path style="fill:#116FFF;" d="M99.964,251.909c-18.052,0-35.241-0.773-48.408-2.183c-24.612-2.562-26.189-6.076-27.134-8.173
		l0.035-0.016c-0.293-0.66-0.465-1.401-0.465-2.022c0-10.246,41.313-12.397,75.972-12.397c26.248,0,50.677,1.687,63.75,4.4
		c2.163,0.449,3.553,2.565,3.104,4.729c-0.453,2.164-2.589,3.507-4.729,3.104c-12.582-2.612-36.385-4.236-62.125-4.236
		c-30.473,0-52.738,2.163-62.922,4.365c3.183,0.711,8.028,1.531,15.354,2.296c12.901,1.379,29.794,2.136,47.568,2.136
		c19.993,0,39.103-0.98,52.434-2.687c2.226-0.234,4.198,1.269,4.475,3.459c0.281,2.19-1.269,4.194-3.459,4.475
		C139.762,250.906,120.281,251.909,99.964,251.909z"/>
	<path style="fill:#116FFF;" d="M99.964,395.856c-18.052,0-35.241-0.773-48.408-2.18c-11.238-1.116-18.993-2.631-23.019-4.514
		c-3.744-1.663-4.545-4.021-4.545-5.701c0-2.21,1.788-3.998,3.999-3.998c1.585,0,2.956,0.922,3.6,2.265
		c2.3,1.039,7.396,2.663,20.785,3.991c12.921,1.382,29.813,2.14,47.588,2.14c9.696,0,18.083-0.18,25.635-0.555
		c2.167-0.188,4.077,1.593,4.19,3.804c0.109,2.202-1.593,4.076-3.8,4.186C118.309,395.677,109.793,395.856,99.964,395.856z"/>
	<path style="fill:#116FFF;" d="M99.964,324.203c-8.056,0-16.197-0.219-24.206-0.641c-2.202-0.125-3.896-2.007-3.779-4.209
		c0.121-2.21,2.019-3.96,4.209-3.78c13.37,0.711,27.342,0.883,39.825,0.32c2.175-0.117,4.077,1.602,4.178,3.812
		c0.102,2.202-1.605,4.076-3.811,4.178C111.124,324.125,105.626,324.203,99.964,324.203z"/>
	<path style="fill:#116FFF;" d="M99.964,267.903c-2.21,0-3.998-1.788-3.998-3.998V247.91c0-2.21,1.788-3.999,3.998-3.999
		s3.999,1.789,3.999,3.999v15.995C103.963,266.115,102.174,267.903,99.964,267.903z"/>
	<path style="fill:#116FFF;" d="M99.964,395.856c-2.21,0-3.998-1.789-3.998-3.999v-15.994c0-2.21,1.788-3.998,3.998-3.998
		s3.999,1.788,3.999,3.998v15.994C103.963,394.067,102.174,395.856,99.964,395.856z"/>
	<path style="fill:#116FFF;" d="M51.982,393.7c-2.21,0-3.998-1.788-3.998-3.998v-9.84c0-2.21,1.788-3.999,3.998-3.999
		c2.21,0,3.999,1.789,3.999,3.999v9.84C55.981,391.912,54.192,393.7,51.982,393.7z"/>
	<path style="fill:#116FFF;" d="M51.982,259.907c-2.21,0-3.998-1.789-3.998-4v-10.156c0-2.21,1.788-3.999,3.998-3.999
		c2.21,0,3.999,1.789,3.999,3.999v10.156C55.981,258.118,54.192,259.907,51.982,259.907z"/>
	<path style="fill:#116FFF;" d="M19.994,467.829c-2.21,0-3.999-1.788-3.999-3.998v-39.985c0-2.21,1.788-3.998,3.999-3.998h3.999
		v-27.99c0-2.21,1.788-3.998,3.999-3.998c2.21,0,3.999,1.788,3.999,3.998v31.988c0,2.21-1.789,3.999-3.999,3.999h-3.999v35.986
		C23.992,466.041,22.204,467.829,19.994,467.829z"/>
	<path style="fill:#116FFF;" d="M4,467.829c-2.21,0-3.999-1.788-3.999-3.998V143.949c0-2.21,1.789-3.999,3.999-3.999
		s3.999,1.788,3.999,3.999v319.882C7.998,466.041,6.21,467.829,4,467.829z"/>
	<path style="fill:#116FFF;" d="M4.004,147.948c-1.359,0-2.683-0.691-3.432-1.94c-1.137-1.895-0.523-4.351,1.37-5.486L81.913,92.54
		c1.894-1.14,4.354-0.527,5.486,1.371c1.136,1.894,0.523,4.35-1.371,5.486l-79.97,47.982C5.413,147.764,4.702,147.948,4.004,147.948
		z"/>
	<path style="fill:#116FFF;" d="M83.97,99.965c-2.21,0-3.998-1.788-3.998-3.998V79.973c0-2.21,1.788-3.999,3.998-3.999
		s3.999,1.789,3.999,3.999v15.994C87.969,98.177,86.18,99.965,83.97,99.965z"/>
	<path style="fill:#116FFF;" d="M163.941,75.974H4c-2.21,0-3.999-1.788-3.999-3.998S1.79,67.977,4,67.977h159.941
		c2.21,0,3.998,1.789,3.998,3.999C167.939,74.186,166.151,75.974,163.941,75.974z"/>
	<path style="fill:#116FFF;" d="M4,75.974c-1.722,0-3.311-1.116-3.831-2.851c-0.633-2.112,0.566-4.342,2.683-4.979l79.971-23.991
		c2.116-0.636,4.346,0.566,4.979,2.683c0.632,2.113-0.566,4.343-2.683,4.979L5.148,75.806C4.765,75.919,4.379,75.974,4,75.974z"/>
	<path style="fill:#116FFF;" d="M163.941,75.974c-0.379,0-0.766-0.055-1.148-0.168l-79.97-23.991
		c-2.117-0.636-3.315-2.866-2.683-4.979c0.628-2.116,2.85-3.319,4.979-2.683l79.97,23.991c2.116,0.637,3.315,2.866,2.683,4.979
		C167.252,74.858,165.662,75.974,163.941,75.974z"/>
	<path style="fill:#116FFF;" d="M507.812,467.829c-2.21,0-3.998-1.788-3.998-3.998V143.949c0-2.21,1.788-3.999,3.998-3.999
		s3.999,1.788,3.999,3.999v319.882C511.811,466.041,510.022,467.829,507.812,467.829z"/>
	<path style="fill:#116FFF;" d="M507.812,147.948c-0.702,0-1.413-0.184-2.062-0.57l-79.971-47.982
		c-1.89-1.136-2.499-3.592-1.366-5.486c1.132-1.898,3.593-2.511,5.49-1.371l79.97,47.982c1.891,1.136,2.5,3.592,1.367,5.486
		C510.491,147.256,509.172,147.948,507.812,147.948z"/>
	<path style="fill:#116FFF;" d="M427.843,99.965c-2.211,0-3.999-1.788-3.999-3.998V79.973c0-2.21,1.788-3.999,3.999-3.999
		c2.21,0,3.998,1.789,3.998,3.999v15.994C431.841,98.177,430.052,99.965,427.843,99.965z"/>
	<path style="fill:#116FFF;" d="M507.812,75.974h-159.94c-2.21,0-3.998-1.788-3.998-3.998s1.788-3.999,3.998-3.999h159.94
		c2.21,0,3.999,1.789,3.999,3.999S510.022,75.974,507.812,75.974z"/>
	<path style="fill:#116FFF;" d="M507.812,75.974c-0.374,0-0.765-0.055-1.147-0.168l-79.971-23.991
		c-2.116-0.636-3.319-2.866-2.679-4.979c0.625-2.116,2.858-3.319,4.975-2.683l79.971,23.991c2.116,0.637,3.319,2.866,2.679,4.979
		C511.124,74.858,509.53,75.974,507.812,75.974z"/>
	<path style="fill:#116FFF;" d="M347.872,75.974c-1.718,0-3.312-1.116-3.826-2.851c-0.641-2.112,0.562-4.342,2.678-4.979
		l79.971-23.991c2.124-0.636,4.342,0.566,4.975,2.683c0.641,2.113-0.563,4.343-2.679,4.979L349.02,75.806
		C348.637,75.919,348.247,75.974,347.872,75.974z"/>
	<path style="fill:#116FFF;" d="M411.848,259.907c-2.211,0-3.999-1.789-3.999-4v-7.997c0-2.21,1.788-3.999,3.999-3.999
		c2.21,0,3.998,1.789,3.998,3.999v7.997C415.846,258.118,414.058,259.907,411.848,259.907z"/>
	<path style="fill:#116FFF;" d="M411.848,299.891c-2.211,0-3.999-1.788-3.999-3.998v-7.997c0-2.21,1.788-3.999,3.999-3.999
		c2.21,0,3.998,1.789,3.998,3.999v7.997C415.846,298.103,414.058,299.891,411.848,299.891z"/>
	<path style="fill:#116FFF;" d="M451.833,259.907c-2.21,0-3.998-1.789-3.998-4v-9.356c0-2.21,1.788-3.999,3.998-3.999
		c2.211,0,3.999,1.788,3.999,3.999v9.356C455.832,258.118,454.044,259.907,451.833,259.907z"/>
	<path style="fill:#116FFF;" d="M451.833,298.697c-2.21,0-3.998-1.789-3.998-3.999v-6.404c0-2.209,1.788-3.998,3.998-3.998
		c2.211,0,3.999,1.789,3.999,3.998v6.404C455.832,296.908,454.044,298.697,451.833,298.697z"/>
	<path style="fill:#116FFF;" d="M99.964,467.829c-2.21,0-3.998-1.788-3.998-3.998v-55.979c0-2.21,1.788-3.998,3.998-3.998
		s3.999,1.788,3.999,3.998v55.979C103.963,466.041,102.174,467.829,99.964,467.829z"/>
	<path style="fill:#116FFF;" d="M411.848,467.829c-2.211,0-3.999-1.788-3.999-3.998V311.887c0-2.211,1.788-3.999,3.999-3.999
		c2.21,0,3.998,1.788,3.998,3.999V463.83C415.846,466.041,414.058,467.829,411.848,467.829z"/>
	<path style="fill:#116FFF;" d="M451.833,467.829c-0.874,0-1.765-0.281-2.498-0.874l-39.985-31.988
		c-1.719-1.382-1.999-3.897-0.625-5.623c1.382-1.71,3.905-1.999,5.623-0.625l39.985,31.988c1.718,1.382,1.999,3.897,0.624,5.623
		C454.161,467.313,453.005,467.829,451.833,467.829z"/>
	<path style="fill:#116FFF;" d="M390.981,452.553c-1.172,0-2.336-0.508-3.124-1.499c-1.383-1.718-1.102-4.241,0.624-5.615
		l20.868-16.713c1.726-1.39,4.248-1.108,5.622,0.617c1.375,1.726,1.102,4.241-0.624,5.623l-20.867,16.712
		C392.738,452.272,391.855,452.553,390.981,452.553z"/>
	<path style="fill:#116FFF;" d="M227.913,377.784c-0.89,0-1.789-0.296-2.53-0.905c-11.093-9.091-17.458-22.577-17.458-37.002
		c0-24.944,18.751-45.499,43.613-47.803c1.48-0.094,2.925-0.18,4.37-0.18c2.209,0,3.999,1.788,3.999,3.999
		c0,2.21-1.789,3.998-3.999,3.998c-1.273,0-2.546,0.078-3.745,0.156c-20.609,1.914-36.24,19.04-36.24,39.829
		c0,12.019,5.295,23.249,14.53,30.816c1.707,1.398,1.957,3.921,0.558,5.631C230.221,377.285,229.073,377.784,227.913,377.784z"/>
	<path style="fill:#116FFF;" d="M255.906,387.859c-2.21,0-3.999-1.788-3.999-3.999c0-2.21,1.789-3.998,3.999-3.998
		c22.045,0,39.985-17.938,39.985-39.985c0-11.987-5.303-23.257-14.542-30.902c-1.702-1.414-1.937-3.929-0.53-5.631
		c1.405-1.702,3.928-1.937,5.622-0.531c11.09,9.169,17.447,22.679,17.447,37.064C303.888,366.336,282.365,387.859,255.906,387.859z"
		/>
	<path style="fill:#116FFF;" d="M267.901,355.871c-1.022,0-2.046-0.391-2.826-1.171l-23.991-23.992
		c-1.562-1.562-1.562-4.092,0-5.653c1.562-1.563,4.092-1.563,5.654,0l23.99,23.991c1.563,1.562,1.563,4.092,0,5.654
		C269.948,355.48,268.925,355.871,267.901,355.871z"/>
	<path style="fill:#116FFF;" d="M243.911,331.88c-1.023,0-2.046-0.391-2.827-1.172c-1.562-1.562-1.562-4.092,0-5.653l55.979-55.979
		c1.563-1.563,4.093-1.563,5.654,0c1.562,1.562,1.562,4.092,0,5.654l-55.979,55.979C245.957,331.489,244.934,331.88,243.911,331.88z
		"/>
	<path style="fill:#116FFF;" d="M211.923,411.85c-1.023,0-2.046-0.391-2.827-1.172c-1.563-1.562-1.563-4.092,0-5.654l55.979-55.979
		c1.562-1.563,4.092-1.563,5.653,0c1.563,1.562,1.563,4.092,0,5.654l-55.979,55.979C213.969,411.46,212.946,411.85,211.923,411.85z"
		/>
</g>
<g>
</g>
<g>
</g>
<g>
</g>
<g>
</g>
<g>
</g>
<g>
</g>
<g>
</g>
<g>
</g>
<g>
</g>
<g>
</g>
<g>
</g>
<g>
</g>
<g>
</g>
<g>
</g>
<g>
</g>
</svg>
