<?xml version="1.0" encoding="iso-8859-1"?>
<!-- Generator: Adobe Illustrator 19.0.0, SVG Export Plug-In . SVG Version: 6.00 Build 0)  -->
<svg version="1.1" id="Capa_1" xmlns="http://www.w3.org/2000/svg" xmlns:xlink="http://www.w3.org/1999/xlink" x="0px" y="0px"
	 viewBox="0 0 511.892 511.892" style="enable-background:new 0 0 511.892 511.892;" xml:space="preserve">
<path style="fill:#94C1FF;" d="M116.987,483.261c16.962-16.962,5.654-39.578,5.654-39.578S100.016,466.3,116.987,483.261z
	 M100.016,364.517l-16.962,16.962l45.241,45.233l5.654-5.654l5.654,5.654c28.271,28.278,11.309,56.549,11.309,56.549l8.942,11.082
	c-24.319,18.665-59.158,18.213-110.896-33.526c-125.25-125.25,48.005-153.076,77.471-176.435
	c29.403-23.401,50.435-83.457,89.459-83.457c13.284-0.055-46.99,44.96,0.563,58.471l5.998,6.103L190.5,296.66l11.308,11.308
	l-5.654,5.654l-11.308,11.309l-11.316-11.309l-22.616,22.616l-22.617,22.617l-16.97,16.971L100.016,364.517z"/>
<path style="fill:#D7E9FF;" d="M132.083,290.037c27.849-22.172,48.225-77.14,83.469-82.887c2.53-3.834,3.397-6.232,0.336-6.224
	c-39.024,0-60.056,60.056-89.459,83.457c-29.466,23.358-202.722,51.185-77.471,176.435c1.078,1.078,2.101,1.999,3.17,3.038
	C-68.015,340.87,102.828,313.231,132.083,290.037z"/>
<path style="fill:#ED5565;" d="M196.153,313.622l5.654-5.654l11.308,11.309l13.347-13.683l6.053,5.936
	c3.101,56.494,51.859-1.414,51.859,17.813c0,31.215-47.002,42.469-65.495,61.978c-10.848,11.425-24.366,76.51-59.025,103.023
	l-8.942-11.082c0,0,16.962-28.271-11.309-56.549l-5.654-5.654l11.309-11.309l-11.309-11.308l16.963-16.963l22.616-22.624
	l22.625-22.617l-11.308-11.308L196.153,313.622z"/>
<g>
	<path style="fill:#FFFFFF;" d="M150.92,483.261c0,0,16.962-28.278-11.309-56.549l-5.654-5.654l11.309-11.316l-11.309-11.308
		l-11.316-11.309l-11.308-11.308l-11.309-11.309l-5.654,5.654l-5.654-5.654c-33.933-33.934,51.067-39.415,107.437-96.129
		l12.105-12.101c2.257,1.132,5.029,2.21,8.2,3.108l6.053,6.048l-0.063,0.063l-31.949,31.153l11.308,11.308l11.316,11.309
		l13.347-13.675l0.055-0.055l5.99,5.99c3.108,56.486,51.859-1.414,51.859,17.813c0,31.215-46.994,42.461-65.487,61.97
		c-10.855,11.425-24.374,76.51-59.033,103.031c-6.388,4.92-13.573,8.481-21.602,10.176L150.92,483.261z"/>
	<path style="fill:#FFFFFF;" d="M201.807,274.035l12.105-12.101l2.546-2.546c-3.171-0.898-5.943-1.977-8.2-3.108l-12.105,12.101
		c-56.37,56.714-141.37,62.195-107.437,96.129l5.654,5.654C60.437,336.23,145.437,330.748,201.807,274.035z"/>
</g>
<g>
	<path style="fill:#116FFF;" d="M173.77,453.367c-2.21,0-4.037-1.789-4.037-3.998c0-2.211,1.749-3.999,3.951-3.999h0.086
		c2.202,0,3.999,1.788,3.999,3.999C177.769,451.578,175.972,453.367,173.77,453.367z"/>
	<path style="fill:#116FFF;" d="M168.116,436.404c-2.21,0-4.037-1.788-4.037-3.998s1.749-3.998,3.951-3.998h0.086
		c2.203,0,3.999,1.788,3.999,3.998S170.319,436.404,168.116,436.404z"/>
	<path style="fill:#116FFF;" d="M162.462,419.442c-2.21,0-4.038-1.788-4.038-3.999c0-2.21,1.749-3.998,3.952-3.998h0.086
		c2.202,0,3.999,1.788,3.999,3.998C166.461,417.654,164.664,419.442,162.462,419.442z"/>
</g>
<path style="fill:#D7E9FF;" d="M122.641,443.683c0,0,11.308,22.616-5.654,39.578C100.016,466.3,122.641,443.683,122.641,443.683z"/>
<path style="fill:#94C1FF;" d="M425.899,100.838L226.462,305.593l-13.347,13.683l-11.308-11.309l-11.308-11.308l31.949-31.161
	L408.937,83.875c4.701-4.693,11.933-17.704,7.247-22.397l7.185-3.562l14.292-7.067l14.369-7.13l14.308-7.06l0.047,0.055l14.37-7.13
	l14.307-7.06l7.185-3.569l5.654,16.853c-45.249,33.933-56.557,56.549-56.557,56.549S437.208,89.529,425.899,100.838z"/>
<path style="fill:#5C9EFF;" d="M507.9,35.807l-5.654-16.853l-3.233,1.601l3.233,9.599c-45.249,33.925-54.729,54.722-54.729,54.722
	s-15.963-1-27.271,10.309L220.807,299.939l-13.347,13.683l5.654,5.654l13.347-13.683l199.438-204.756
	c11.309-11.309,25.444-8.481,25.444-8.481S462.651,69.739,507.9,35.807z"/>
<g>
	<path style="fill:#D7E9FF;" d="M414.592,89.529c4.701-4.693,12.558-17.08,10.246-23.694l4.186-2.265l14.292-7.067l14.369-7.131
		l14.308-7.06l0.047,0.055l14.37-7.13l14.307-7.06l3.951-1.968l-2.421-7.255l-7.185,3.569l-14.307,7.06l-14.37,7.13l-0.047-0.055
		l-14.308,7.06l-14.369,7.13l-14.292,7.067l-7.185,3.562c4.686,4.693-2.546,17.704-7.247,22.397L222.448,265.499l-31.949,31.161
		l5.654,5.653l31.95-31.16L414.592,89.529z"/>
	<polygon style="fill:#D7E9FF;" points="128.295,426.713 83.054,381.479 100.016,364.517 111.325,375.826 122.641,387.134 
		133.949,398.442 145.258,409.75 133.949,421.058 	"/>
</g>
<g>
	<path style="fill:#116FFF;" d="M128.178,509.541c-24.03,0-51.481-15.33-82.048-45.896c-35.659-35.659-50.403-66.094-45.069-93.053
		c7.786-39.345,56.713-59.728,92.442-74.612c13.409-5.584,24.983-10.402,30.442-14.729c10.207-8.13,19.399-20.91,29.138-34.448
		c17.626-24.522,35.861-49.876,62.805-49.876c0.016,0,0.023,0,0.039,0c3.358,0,4.795,1.816,5.35,2.897
		c1.921,3.757-0.984,7.759-6.263,15.022c-6.208,8.547-15.596,21.464-12.566,30.219c1.57,4.557,6.654,8.087,15.096,10.484
		c2.125,0.605,3.358,2.815,2.756,4.939c-0.608,2.116-2.803,3.343-4.943,2.757c-11.105-3.159-17.993-8.396-20.469-15.568
		c-4.389-12.694,6.037-27.053,13.659-37.533c1.171-1.616,2.499-3.44,3.538-4.99c-21,2.487-37.002,24.749-52.512,46.319
		c-10.067,13.995-19.571,27.216-30.653,36.042c-6.333,5.014-17.813,9.801-32.339,15.854c-34.066,14.19-80.712,33.62-87.67,68.779
		c-4.709,23.804,9.715,52.684,42.875,85.843c43.5,43.5,78.057,54.34,105.632,33.184c22.063-16.877,35.378-50.396,45.101-74.879
		c5.373-13.526,9.263-23.304,13.464-27.732c6.756-7.122,16.611-12.924,27.045-19.07c18.36-10.801,37.334-21.969,37.35-40.134
		c-2.109,0.5-6.248,2.577-9.122,4.03c-9.75,4.896-21.87,10.987-31.461,5.443c-6.802-3.944-10.488-12.801-11.27-27.084
		c-0.125-2.203,1.57-4.093,3.772-4.21c2.218-0.233,4.092,1.57,4.209,3.772c0.609,11.066,3.132,18.188,7.295,20.602
		c5.841,3.39,15.838-1.632,23.861-5.67c7.639-3.842,13.168-6.591,17.4-3.975c1.499,0.929,3.311,2.912,3.311,7.075
		c0,22.749-21.929,35.659-41.285,47.045c-9.941,5.85-19.32,11.371-25.303,17.681c-3.147,3.312-7.169,13.448-11.832,25.179
		c-10.066,25.35-23.858,60.056-47.669,78.275C151.841,505.535,140.455,509.541,128.178,509.541z"/>
	<path style="fill:#116FFF;" d="M213.115,323.274c-1.062,0-2.077-0.421-2.827-1.171l-22.616-22.617
		c-0.758-0.757-1.18-1.78-1.172-2.85s0.445-2.094,1.211-2.844L406.157,81.009c1.577-1.526,4.107-1.507,5.654,0.078
		c1.53,1.582,1.499,4.112-0.078,5.654L196.192,296.699l16.884,16.884L423.042,98.05c1.562-1.593,4.092-1.605,5.653-0.078
		c1.578,1.542,1.609,4.072,0.078,5.654L215.981,322.072c-0.75,0.766-1.772,1.194-2.843,1.202
		C213.131,323.274,213.123,323.274,213.115,323.274z"/>
	<path style="fill:#116FFF;" d="M207.461,306.312c-1.022,0-2.046-0.391-2.827-1.172c-1.562-1.562-1.562-4.092,0-5.654
		L420.245,83.875c1.563-1.562,4.093-1.562,5.654,0c1.563,1.563,1.563,4.093,0,5.654L210.288,305.14
		C209.507,305.922,208.484,306.312,207.461,306.312z"/>
	<path style="fill:#116FFF;" d="M122.641,413.749c-1.023,0-2.046-0.391-2.827-1.171c-1.562-1.563-1.562-4.093,0-5.654l84.82-84.82
		c1.562-1.563,4.092-1.563,5.654,0c1.563,1.562,1.563,4.092,0,5.654l-84.82,84.82C124.687,413.358,123.664,413.749,122.641,413.749z
		"/>
	<path style="fill:#116FFF;" d="M111.325,402.44c-1.023,0-2.046-0.39-2.827-1.171c-1.562-1.563-1.562-4.093,0-5.654l84.828-84.82
		c1.562-1.562,4.092-1.562,5.654,0c1.562,1.563,1.562,4.092,0,5.654l-84.828,84.82C113.371,402.05,112.348,402.44,111.325,402.44z"
		/>
	<path style="fill:#116FFF;" d="M100.016,391.133c-1.023,0-2.046-0.391-2.827-1.172c-1.562-1.563-1.562-4.092,0-5.654l84.828-84.82
		c1.562-1.562,4.092-1.562,5.654,0c1.562,1.563,1.562,4.093,0,5.654l-84.828,84.82C102.062,390.742,101.04,391.133,100.016,391.133z
		"/>
	<path style="fill:#116FFF;" d="M201.807,345.891c-1.023,0-2.046-0.391-2.827-1.172l-33.933-33.925
		c-1.562-1.562-1.562-4.092,0-5.654c1.562-1.562,4.092-1.562,5.654,0l33.933,33.925c1.562,1.563,1.562,4.093,0,5.654
		C203.853,345.501,202.83,345.891,201.807,345.891z"/>
	<path style="fill:#116FFF;" d="M156.566,391.133c-1.023,0-2.046-0.391-2.827-1.172l-33.925-33.933
		c-1.562-1.562-1.562-4.093,0-5.654s4.092-1.562,5.654,0l33.925,33.933c1.562,1.563,1.562,4.092,0,5.654
		C158.612,390.742,157.589,391.133,156.566,391.133z"/>
	<path style="fill:#116FFF;" d="M179.182,368.515c-1.023,0-2.046-0.391-2.827-1.172l-33.925-33.932
		c-1.562-1.563-1.562-4.093,0-5.654c1.562-1.563,4.092-1.563,5.654,0l33.925,33.933c1.562,1.562,1.562,4.092,0,5.653
		C181.228,368.125,180.206,368.515,179.182,368.515z"/>
	<path style="fill:#116FFF;" d="M128.295,430.711c-1.023,0-2.046-0.39-2.827-1.171l-45.241-45.234
		c-0.75-0.75-1.172-1.765-1.172-2.827c0-1.062,0.422-2.077,1.172-2.827l16.962-16.962c1.562-1.563,4.093-1.563,5.654,0
		l45.241,45.233c1.562,1.562,1.562,4.092,0,5.654l-16.963,16.962C130.341,430.321,129.318,430.711,128.295,430.711z M88.708,381.479
		l39.587,39.579l11.308-11.309l-39.587-39.578L88.708,381.479z"/>
	<path style="fill:#116FFF;" d="M116.987,487.26c-1.023,0-2.046-0.391-2.827-1.171c-1.563-1.563-1.563-4.093,0-5.654
		c14.666-14.667,5.303-34.152,4.896-34.972c-0.969-1.976-0.164-4.374,1.812-5.357c1.992-0.977,4.366-0.172,5.35,1.788
		c4.358,8.716,8.622,29.169-6.404,44.195C119.033,486.87,118.009,487.26,116.987,487.26z"/>
	<path style="fill:#116FFF;" d="M116.987,487.26c-1.023,0-2.046-0.391-2.827-1.171c-8.224-8.217-9.723-18.813-4.35-30.63
		c3.795-8.341,9.754-14.354,10.004-14.604c1.562-1.555,4.084-1.563,5.646,0c1.562,1.554,1.57,4.084,0.016,5.653
		c-0.812,0.805-19.586,20.009-5.662,33.926c1.562,1.562,1.562,4.092,0,5.654C119.033,486.87,118.009,487.26,116.987,487.26z"/>
	<path style="fill:#116FFF;" d="M150.92,487.253c-0.703,0-1.406-0.18-2.046-0.563c-1.898-1.124-2.515-3.576-1.398-5.475
		c0.625-1.054,14.909-26.061-10.699-51.676c-1.562-1.562-1.562-4.093,0-5.654c1.562-1.562,4.092-1.562,5.654,0
		c30.129,30.138,12.097,61.126,11.91,61.431C153.591,486.565,152.27,487.253,150.92,487.253z"/>
	<path style="fill:#116FFF;" d="M88.708,368.515c-1.023,0-2.046-0.391-2.827-1.172c-6.873-6.872-9.731-13.244-8.739-19.5
		c1.96-12.378,18.392-20.758,41.141-32.355c22.96-11.706,51.528-26.279,75.035-49.927c1.554-1.569,4.084-1.569,5.654-0.016
		c1.562,1.555,1.57,4.085,0.016,5.654c-24.405,24.554-53.605,39.446-77.073,51.411c-19.071,9.73-35.55,18.126-36.877,26.482
		c-0.555,3.545,1.569,7.66,6.497,12.597c1.563,1.562,1.563,4.092,0,5.653C90.755,368.125,89.731,368.515,88.708,368.515z"/>
	<path style="fill:#116FFF;" d="M425.899,104.836c-1.015,0-2.046-0.39-2.826-1.171c-1.563-1.563-1.563-4.093,0-5.654
		c12.666-12.675,28.411-9.708,29.051-9.575c2.172,0.433,3.577,2.538,3.14,4.706c-0.437,2.171-2.608,3.573-4.701,3.135
		c-0.5-0.094-12.261-2.179-21.836,7.388C427.946,104.446,426.93,104.836,425.899,104.836z"/>
	<path style="fill:#116FFF;" d="M451.343,96.347c-0.609,0-1.219-0.137-1.796-0.425c-1.969-0.992-2.766-3.382-1.781-5.354
		c0.484-0.957,12.262-23.854,57.729-57.959c1.766-1.324,4.264-0.977,5.607,0.8c1.313,1.765,0.953,4.272-0.813,5.595
		c-43.687,32.77-55.261,54.933-55.37,55.151C454.217,95.547,452.796,96.347,451.343,96.347z"/>
	<path style="fill:#116FFF;" d="M507.9,39.805c-1.671,0-3.233-1.054-3.795-2.726l-5.654-16.853c-0.141-0.41-0.203-0.839-0.203-1.273
		c0-2.21,1.78-4.053,3.998-4.053c1.938,0,3.562,1.351,3.921,3.182l5.514,16.451c0.703,2.093-0.422,4.361-2.515,5.064
		C508.744,39.739,508.322,39.805,507.9,39.805z"/>
	<path style="fill:#116FFF;" d="M408.937,87.874c-1.016,0-2.046-0.391-2.827-1.172c-1.563-1.562-1.563-4.092,0-5.654
		c1.812-1.812,4.545-5.677,6.264-9.887c1.655-4.049,1.483-6.353,0.983-6.856c-1.562-1.563-1.562-4.093,0-5.654
		c1.562-1.562,4.093-1.562,5.654,0c7.31,7.31-2.218,23.03-7.247,28.052C410.983,87.483,409.967,87.874,408.937,87.874z"/>
	<path style="fill:#116FFF;" d="M416.184,65.475c-1.469,0-2.89-0.816-3.592-2.222c-0.969-1.979-0.172-4.377,1.812-5.357
		l50.153-24.823c1.983-0.964,4.389-0.168,5.357,1.816c0.983,1.979,0.172,4.377-1.813,5.354l-50.152,24.815
		C417.387,65.342,416.778,65.475,416.184,65.475z"/>
	<path style="fill:#116FFF;" d="M466.384,40.712c-1.468,0-2.874-0.813-3.577-2.222c-0.983-1.976-0.172-4.377,1.797-5.357
		l35.861-17.759c1.952-0.976,4.373-0.184,5.357,1.8c0.984,1.976,0.172,4.377-1.796,5.361l-35.862,17.759
		C467.602,40.579,466.994,40.712,466.384,40.712z"/>
	<path style="fill:#116FFF;" d="M495.061,26.521c-1.468,0-2.874-0.813-3.576-2.222l-7.139-14.37
		c-0.969-1.976-0.172-4.377,1.813-5.357c1.983-0.979,4.373-0.183,5.357,1.805l7.138,14.369c0.968,1.976,0.172,4.377-1.812,5.357
		C496.264,26.388,495.671,26.521,495.061,26.521z"/>
	<path style="fill:#116FFF;" d="M484.378,13.901c-1.483,0-2.905-0.82-3.592-2.237c-0.969-1.98-0.156-4.378,1.827-5.35l7.169-3.546
		c1.952-0.976,4.373-0.184,5.357,1.8c0.984,1.976,0.172,4.378-1.796,5.361l-7.2,3.562C485.565,13.768,484.971,13.901,484.378,13.901
		z"/>
	<path style="fill:#116FFF;" d="M480.755,33.581c-1.469,0-2.89-0.812-3.593-2.222l-7.122-14.354
		c-0.969-1.976-0.172-4.378,1.812-5.357c1.983-0.988,4.373-0.18,5.357,1.804l7.122,14.354c0.984,1.976,0.172,4.377-1.796,5.357
		C481.957,33.448,481.347,33.581,480.755,33.581z"/>
	<path style="fill:#116FFF;" d="M470.009,21.031c-1.469,0-2.874-0.812-3.577-2.214c-0.984-1.976-0.188-4.377,1.796-5.361
		l7.201-3.573c1.983-0.964,4.373-0.16,5.357,1.824c0.968,1.979,0.156,4.377-1.828,5.354l-7.153,3.549
		C471.226,20.898,470.618,21.031,470.009,21.031z"/>
	<path style="fill:#116FFF;" d="M466.353,40.7c-1.015,0-2.015-0.387-2.796-1.16l-0.047-0.055c-0.313-0.309-0.563-0.664-0.766-1.058
		l-7.06-14.315c-0.983-1.979-0.172-4.377,1.812-5.354c1.984-0.977,4.374-0.164,5.357,1.815l7.014,14.198
		c0.812,1.522,0.594,3.463-0.672,4.74C468.399,40.301,467.368,40.7,466.353,40.7z"/>
	<path style="fill:#116FFF;" d="M455.701,28.099c-1.468,0-2.89-0.816-3.577-2.23c-0.983-1.979-0.172-4.377,1.813-5.354l7.153-3.553
		c1.999-0.992,4.389-0.188,5.373,1.792c0.983,1.976,0.188,4.377-1.796,5.361l-7.186,3.569
		C456.903,27.966,456.295,28.099,455.701,28.099z"/>
	<path style="fill:#116FFF;" d="M452.03,47.717c-1.468,0-2.889-0.816-3.592-2.226l-7.061-14.3c-0.983-1.979-0.172-4.377,1.813-5.357
		c1.952-0.968,4.373-0.176,5.357,1.812l7.06,14.299c0.984,1.98,0.172,4.377-1.812,5.357
		C453.233,47.584,452.624,47.717,452.03,47.717z"/>
	<path style="fill:#116FFF;" d="M441.393,35.167c-1.468,0-2.889-0.82-3.592-2.238c-0.969-1.98-0.156-4.377,1.827-5.349l7.138-3.507
		c1.984-0.969,4.374-0.156,5.342,1.823c0.984,1.98,0.172,4.377-1.812,5.354l-7.138,3.507
		C442.596,35.034,441.987,35.167,441.393,35.167z"/>
	<path style="fill:#116FFF;" d="M437.661,54.846c-1.469,0-2.89-0.816-3.577-2.226l-7.075-14.307
		c-0.969-1.984-0.156-4.381,1.812-5.357c1.952-0.968,4.39-0.175,5.357,1.812l7.075,14.307c0.969,1.984,0.156,4.381-1.812,5.357
		C438.864,54.714,438.27,54.846,437.661,54.846z"/>
	<path style="fill:#116FFF;" d="M427.04,42.297c-1.469,0-2.89-0.816-3.593-2.229c-0.968-1.979-0.156-4.377,1.812-5.354l7.186-3.558
		c1.968-0.983,4.373-0.18,5.357,1.8c0.984,1.976,0.172,4.377-1.797,5.361l-7.2,3.565C428.243,42.164,427.634,42.297,427.04,42.297z"
		/>
	<path style="fill:#116FFF;" d="M423.369,61.914c-1.468,0-2.89-0.816-3.592-2.226l-7.076-14.307
		c-0.968-1.979-0.155-4.377,1.813-5.357c1.968-0.969,4.373-0.176,5.357,1.812l7.075,14.307c0.984,1.979,0.172,4.377-1.812,5.357
		C424.572,61.782,423.963,61.914,423.369,61.914z"/>
	<path style="fill:#116FFF;" d="M412.732,49.364c-1.468,0-2.89-0.815-3.592-2.229c-0.969-1.979-0.156-4.377,1.812-5.354l7.138-3.518
		c1.999-0.972,4.374-0.156,5.357,1.824c0.969,1.979,0.156,4.377-1.827,5.354l-7.122,3.51
		C413.935,49.232,413.326,49.364,412.732,49.364z"/>
</g>
<g>
</g>
<g>
</g>
<g>
</g>
<g>
</g>
<g>
</g>
<g>
</g>
<g>
</g>
<g>
</g>
<g>
</g>
<g>
</g>
<g>
</g>
<g>
</g>
<g>
</g>
<g>
</g>
<g>
</g>
</svg>
