<?xml version="1.0" encoding="iso-8859-1"?>
<!-- Generator: Adobe Illustrator 19.0.0, SVG Export Plug-In . SVG Version: 6.00 Build 0)  -->
<svg version="1.1" id="Capa_1" xmlns="http://www.w3.org/2000/svg" xmlns:xlink="http://www.w3.org/1999/xlink" x="0px" y="0px"
	 viewBox="0 0 511.793 511.793" style="enable-background:new 0 0 511.793 511.793;" xml:space="preserve">
<path style="fill:#D7E9FF;" d="M147.945,175.357c-30.918,0-55.979,25.061-55.979,55.979v112.67
	c0,30.918,25.062,55.979,55.979,55.979s55.979-25.061,55.979-55.979v-112.67C203.925,200.418,178.863,175.357,147.945,175.357z
	 M187.931,343.294c0,22.085-17.9,39.984-39.985,39.984c-22.086,0-39.985-17.899-39.985-39.984V231.335
	c0-22.085,17.899-39.984,39.985-39.984c22.085,0,39.985,17.899,39.985,39.984V343.294z"/>
<rect x="3.999" y="95.387" style="fill:#94C1FF;" width="15.994" height="191.93"/>
<path style="fill:#5C9EFF;" d="M19.993,198.309c-6.295,9.035-11.699,18.728-15.994,29.013v59.993h15.994
	C19.993,287.315,19.993,198.309,19.993,198.309z"/>
<g>
	<path style="fill:#FFFFFF;" d="M91.966,303.309c8.794,0,15.994,7.114,15.994,15.994c0,8.716-7.036,15.838-15.674,15.994
		c-0.078,0-0.242,0-0.32,0c-8.793,0-15.994-7.2-15.994-15.994C75.972,310.423,83.172,303.309,91.966,303.309z"/>
	<path style="fill:#FFFFFF;" d="M107.96,287.315c0,8.794-7.2,15.994-15.994,15.994c-8.793,0-15.994-7.2-15.994-15.994
		c0-8.88,7.201-15.994,15.994-15.994C100.76,271.321,107.96,278.435,107.96,287.315z"/>
	<path style="fill:#FFFFFF;" d="M107.96,255.327c0,8.794-7.2,15.994-15.994,15.994c-8.793,0-15.994-7.2-15.994-15.994
		c0-8.793,7.201-15.994,15.994-15.994C100.76,239.333,107.96,246.534,107.96,255.327z"/>
</g>
<g>
	<path style="fill:#116FFF;" d="M92.208,259.326c-2.21,0-4.038-1.789-4.038-3.999c0-2.21,1.75-3.998,3.952-3.998h0.086
		c2.202,0,3.999,1.788,3.999,3.998S94.41,259.326,92.208,259.326z"/>
	<path style="fill:#116FFF;" d="M92.208,291.306c-2.21,0-4.038-1.789-4.038-3.999s1.75-3.999,3.952-3.999h0.086
		c2.202,0,3.999,1.789,3.999,3.999S94.41,291.306,92.208,291.306z"/>
	<path style="fill:#116FFF;" d="M92.208,323.286c-2.21,0-4.038-1.788-4.038-3.998s1.75-3.999,3.952-3.999h0.086
		c2.202,0,3.999,1.789,3.999,3.999S94.41,323.286,92.208,323.286z"/>
</g>
<g>
	<path style="fill:#D7E9FF;" d="M171.937,447.255c-37.51,4.318-68.068-3.592-98.604-23.991
		c-69.74-46.592-64.539-99.041-64.539-99.041c37.689,99.041,114.122,107.038,139.151,107.038c66.936,0,108.46-45.982,122.47-68.271
		l29.473-35.689c23.75-28.146,55.582-76.612,40.947-119.956c-9.92-25.35-11.598-44.46-2.719-51.02
		c17.275-12.714,68.053,26.709,113.318,88.045c45.178,61.415,67.896,121.557,50.535,134.271
		c-8.076,5.998-20.625-3.357-42.141-13.198C351.23,313.626,289.892,435.9,171.937,447.255z"/>
	<path style="fill:#D7E9FF;" d="M147.945,431.261c-25.03,0-48.545-6.396-69.014-17.595C34.308,389.199,3.999,341.771,3.999,287.315
		c0-79.494,64.453-143.946,143.947-143.946s143.947,64.452,143.947,143.946c0,12.558-1.602,24.788-4.639,36.385
		C271.103,385.599,214.881,431.261,147.945,431.261z M24.952,322.505c15.19,53.573,64.539,92.762,122.994,92.762
		c43.585,0,81.97-21.749,105.078-54.94c14.4-20.711,22.875-45.904,22.875-73.012s-8.475-52.301-22.875-73.012
		c-23.108-33.191-61.493-54.94-105.078-54.94c-70.692,0-127.953,57.26-127.953,127.952
		C19.993,299.552,21.672,311.306,24.952,322.505z"/>
</g>
<path style="fill:#94C1FF;" d="M485.273,297.608c14.955,32.215,19.211,57.346,8.699,65.038c-8.074,5.998-20.625-3.357-42.141-13.197
	c-76.783-36.636-129.951,13.729-196.192,50.418c-0.016,0.016-0.039,0.031-0.055,0.047c19.829-18.992,34.737-43.109,42.407-70.317
	l-27.576,33.394c-14.01,22.289-55.534,68.271-122.47,68.271c-25.03,0-101.462-7.997-139.151-107.038c0,0-5.201,52.449,64.538,99.041
	c30.536,20.399,61.095,28.31,98.604,23.991c117.956-11.355,179.293-133.63,287.893-81.813c21.516,9.841,34.064,19.196,42.141,13.198
	C514.169,369.707,506.523,337.343,485.273,297.608z"/>
<path style="fill:#FFFFFF;" d="M270.509,391.316c7.037-7.537,12.355-14.69,15.9-20.329l29.473-35.689
	c23.75-28.146,55.582-76.612,40.945-119.956c-9.918-25.35-11.596-44.46-2.717-51.02c4.131-3.038,10.223-3.022,17.658-0.508
	c-14.809-9.316-26.85-12.495-33.652-7.489c-8.879,6.56-7.201,25.67,2.719,51.02c14.635,43.344-17.197,91.81-40.947,119.956
	l-1.896,2.296c-7.654,27.161-22.492,51.263-42.274,70.231C260.716,397.055,265.636,394.197,270.509,391.316z"/>
<rect x="3.999" y="63.397" style="fill:#5C9EFF;" width="15.994" height="31.988"/>
<g>
	<path style="fill:#116FFF;" d="M147.945,435.26c-24.78,0-49.31-6.256-70.935-18.087C29.505,391.128,0,341.373,0,287.315
		C0,205.736,66.366,139.37,147.945,139.37S295.89,205.736,295.89,287.315c0,12.737-1.602,25.318-4.771,37.4
		C274.14,389.8,215.264,435.26,147.945,435.26z M147.945,147.367c-77.167,0-139.948,62.781-139.948,139.948
		c0,51.13,27.919,98.206,72.856,122.845c20.453,11.191,43.648,17.104,67.092,17.104c63.68,0,119.376-43,135.441-104.57
		c2.992-11.426,4.508-23.328,4.508-35.378C287.894,210.148,225.112,147.367,147.945,147.367z"/>
	<path style="fill:#116FFF;" d="M152.584,452.394c-30.582,0-57.955-8.676-81.603-25.896c-1.788-1.305-2.179-3.803-0.882-5.584
		c1.304-1.796,3.803-2.179,5.583-0.883c26.975,19.634,59.197,27.49,95.793,23.25c2.155-0.211,4.186,1.319,4.436,3.514
		s-1.327,4.179-3.514,4.437C165.649,452.003,159.043,452.394,152.584,452.394z"/>
	<path style="fill:#116FFF;" d="M147.945,419.266c-58.713,0-110.873-39.345-126.844-95.668c-3.382-11.565-5.107-23.788-5.107-36.283
		c0-72.754,59.197-131.951,131.951-131.951c43.156,0,83.664,21.18,108.358,56.651c15.432,22.202,23.592,48.239,23.592,75.3
		s-8.16,53.098-23.592,75.292C231.609,398.086,191.101,419.266,147.945,419.266z M147.945,163.361
		c-68.35,0-123.954,55.604-123.954,123.954c0,11.737,1.616,23.194,4.795,34.065c15.01,52.941,64.008,89.889,119.159,89.889
		c40.54,0,78.596-19.898,101.798-53.23c14.495-20.844,22.157-45.304,22.157-70.724s-7.662-49.88-22.157-70.731
		C226.541,183.26,188.485,163.361,147.945,163.361z"/>
	<path style="fill:#116FFF;" d="M496.105,384.537c-6.646,0-14.572-3.967-24.373-8.879c-4.078-2.039-8.576-4.296-13.566-6.576
		c-2.006-0.922-2.889-3.296-1.975-5.303c0.92-2.015,3.311-2.866,5.303-1.976c5.084,2.327,9.668,4.623,13.822,6.7
		c11.637,5.834,20.047,10.066,24.271,6.928c2.031-1.484,3.336-4.101,3.898-7.787c3.42-22.296-19.307-72.012-55.27-120.907
		c-46.92-63.578-94.379-96.957-107.732-87.194c-6.725,4.975-5.162,22.733,4.076,46.342c0.805,2.062-0.211,4.381-2.266,5.186
		c-2.068,0.805-4.381-0.203-5.186-2.265c-7.848-20.07-14.463-46.022-1.367-55.698c22.461-16.455,78.02,33.472,118.91,88.889
		c37.713,51.271,60.516,102.251,56.736,126.859c-0.898,5.865-3.271,10.238-7.053,13.011
		C501.814,383.74,499.087,384.537,496.105,384.537z"/>
	<path style="fill:#116FFF;" d="M171.929,451.254c-2.031,0-3.772-1.547-3.976-3.616c-0.21-2.194,1.398-4.154,3.601-4.365
		c48.341-4.654,86.811-28.178,124.008-50.927c51.824-31.691,100.775-61.626,165.986-30.512c1.998,0.952,2.842,3.335,1.889,5.326
		c-0.953,2.007-3.342,2.835-5.326,1.89c-61.313-29.255-106.297-1.734-158.371,30.121c-37.977,23.219-77.244,47.232-127.42,52.067
		C172.187,451.247,172.062,451.254,171.929,451.254z"/>
	<path style="fill:#116FFF;" d="M299.888,331.298c-0.914,0-1.826-0.313-2.576-0.944c-1.688-1.422-1.906-3.944-0.477-5.631
		c21.18-25.108,54.574-73.566,40.211-116.098c-0.711-2.093,0.414-4.365,2.508-5.068c2.139-0.703,4.365,0.422,5.068,2.507
		c15.619,46.248-19.408,97.425-41.68,123.813C302.154,330.814,301.021,331.298,299.888,331.298z"/>
	<path style="fill:#116FFF;" d="M3.999,227.337c-2.21,0-3.999-1.788-3.999-3.999V63.398c0-2.21,1.789-3.998,3.999-3.998
		s3.999,1.788,3.999,3.998v159.94C7.997,225.549,6.209,227.337,3.999,227.337z"/>
	<path style="fill:#116FFF;" d="M19.993,203.346c-2.21,0-3.999-1.788-3.999-3.998V63.398c0-2.21,1.788-3.998,3.999-3.998
		s3.999,1.788,3.999,3.998v135.95C23.991,201.558,22.203,203.346,19.993,203.346z"/>
	<path style="fill:#116FFF;" d="M19.993,67.397H3.999C1.789,67.397,0,65.608,0,63.398c0-2.21,1.789-3.998,3.999-3.998h15.994
		c2.21,0,3.999,1.788,3.999,3.998S22.203,67.397,19.993,67.397z"/>
	<path style="fill:#116FFF;" d="M19.993,99.384H3.999C1.789,99.384,0,97.596,0,95.386s1.789-3.998,3.999-3.998h15.994
		c2.21,0,3.999,1.788,3.999,3.998S22.203,99.384,19.993,99.384z"/>
	<path style="fill:#116FFF;" d="M203.925,235.335c-2.21,0-3.999-1.788-3.999-3.999c0-28.661-23.319-51.98-51.98-51.98
		s-51.98,23.319-51.98,51.98c0,2.211-1.789,3.999-3.999,3.999s-3.998-1.788-3.998-3.999c0-33.073,26.904-59.978,59.978-59.978
		c33.073,0,59.978,26.904,59.978,59.978C207.923,233.546,206.135,235.335,203.925,235.335z"/>
	<path style="fill:#116FFF;" d="M147.945,403.272c-33.074,0-59.978-26.904-59.978-59.978c0-2.211,1.788-3.999,3.998-3.999
		s3.999,1.788,3.999,3.999c0,28.661,23.319,51.98,51.98,51.98s51.98-23.319,51.98-51.98c0-2.211,1.789-3.999,3.999-3.999
		c2.21,0,3.998,1.788,3.998,3.999C207.923,376.368,181.019,403.272,147.945,403.272z"/>
	<path style="fill:#116FFF;" d="M219.919,275.32H91.966c-2.21,0-3.998-1.789-3.998-3.999s1.788-3.999,3.998-3.999h127.953
		c2.21,0,3.999,1.789,3.999,3.999S222.129,275.32,219.919,275.32z"/>
	<path style="fill:#116FFF;" d="M219.919,307.308H91.966c-2.21,0-3.998-1.789-3.998-3.999s1.788-3.999,3.998-3.999h127.953
		c2.21,0,3.999,1.789,3.999,3.999S222.129,307.308,219.919,307.308z"/>
	<path style="fill:#116FFF;" d="M227.916,339.295H92.286c-2.21,0-3.999-1.788-3.999-3.998s1.789-3.999,3.999-3.999h135.629
		c2.21,0,3.999,1.789,3.999,3.999S230.126,339.295,227.916,339.295z"/>
	<path style="fill:#116FFF;" d="M91.966,275.32c-11.027,0-19.992-8.966-19.992-19.993c0-11.027,8.965-19.992,19.992-19.992
		s19.993,8.965,19.993,19.992S102.993,275.32,91.966,275.32z M91.966,243.332c-6.614,0-11.995,5.381-11.995,11.995
		s5.381,11.995,11.995,11.995c6.615,0,11.996-5.381,11.996-11.995C103.962,248.713,98.581,243.332,91.966,243.332z"/>
	<path style="fill:#116FFF;" d="M91.966,307.308c-11.027,0-19.992-8.966-19.992-19.993s8.965-19.993,19.992-19.993
		s19.993,8.966,19.993,19.993S102.993,307.308,91.966,307.308z M91.966,275.32c-6.614,0-11.995,5.381-11.995,11.995
		s5.381,11.995,11.995,11.995c6.615,0,11.996-5.381,11.996-11.995S98.581,275.32,91.966,275.32z"/>
	<path style="fill:#116FFF;" d="M92.286,339.295h-0.32c-11.027,0-19.992-8.965-19.992-19.992s8.965-19.993,19.992-19.993
		s19.993,8.966,19.993,19.993c0,10.832-8.793,19.797-19.602,19.992C92.333,339.295,92.31,339.295,92.286,339.295z M91.966,307.308
		c-6.614,0-11.995,5.38-11.995,11.995c0,6.614,5.381,11.995,11.995,11.995l0.32,3.999l-0.07-3.999
		c6.474-0.117,11.746-5.498,11.746-11.995C103.961,312.688,98.581,307.308,91.966,307.308z"/>
	<path style="fill:#116FFF;" d="M219.919,307.308c-2.21,0-3.999-1.789-3.999-3.999s1.789-3.999,3.999-3.999
		c6.615,0,11.996-5.381,11.996-11.995s-5.381-11.995-11.996-11.995c-2.21,0-3.999-1.789-3.999-3.999s1.789-3.999,3.999-3.999
		c11.027,0,19.993,8.966,19.993,19.993S230.946,307.308,219.919,307.308z"/>
	<path style="fill:#116FFF;" d="M252.789,364.169c-2.21,0-3.999-1.789-3.999-3.999c0-11.511-9.364-20.875-20.875-20.875
		c-2.21,0-3.999-1.788-3.999-3.998s1.788-3.999,3.999-3.999c15.924,0,28.872,12.948,28.872,28.872
		C256.788,362.38,254.999,364.169,252.789,364.169z"/>
	<path style="fill:#116FFF;" d="M227.916,243.332H91.966c-2.21,0-3.998-1.789-3.998-3.999s1.788-3.998,3.998-3.998h135.95
		c2.21,0,3.999,1.788,3.999,3.998S230.126,243.332,227.916,243.332z"/>
	<path style="fill:#116FFF;" d="M227.916,243.332c-2.21,0-3.999-1.789-3.999-3.999s1.788-3.998,3.999-3.998
		c11.511,0,20.875-9.364,20.875-20.875c0-2.21,1.789-3.999,3.999-3.999s3.999,1.789,3.999,3.999
		C256.788,230.383,243.839,243.332,227.916,243.332z"/>
	<path style="fill:#116FFF;" d="M59.978,331.298c-2.21,0-3.998-1.788-3.998-3.998v-79.971c0-2.21,1.788-3.998,3.998-3.998
		c2.21,0,3.999,1.788,3.999,3.998V327.3C63.977,329.51,62.188,331.298,59.978,331.298z"/>
	<path style="fill:#116FFF;" d="M59.978,323.301H35.987c-2.21,0-3.999-1.788-3.999-3.998s1.788-3.999,3.999-3.999h23.991
		c2.21,0,3.999,1.789,3.999,3.999S62.188,323.301,59.978,323.301z"/>
	<path style="fill:#116FFF;" d="M59.978,291.314H35.987c-2.21,0-3.999-1.789-3.999-3.999s1.788-3.999,3.999-3.999h23.991
		c2.21,0,3.999,1.789,3.999,3.999S62.188,291.314,59.978,291.314z"/>
	<path style="fill:#116FFF;" d="M59.978,259.326H35.987c-2.21,0-3.999-1.789-3.999-3.999c0-2.21,1.788-3.998,3.999-3.998h23.991
		c2.21,0,3.999,1.788,3.999,3.998S62.188,259.326,59.978,259.326z"/>
	<path style="fill:#116FFF;" d="M187.931,235.335c-2.21,0-3.999-1.788-3.999-3.999c0-19.844-16.143-35.986-35.986-35.986
		c-19.844,0-35.987,16.143-35.987,35.986c0,2.211-1.789,3.999-3.999,3.999s-3.999-1.788-3.999-3.999
		c0-24.248,19.735-43.983,43.984-43.983s43.983,19.735,43.983,43.983C191.929,233.546,190.141,235.335,187.931,235.335z"/>
	<path style="fill:#116FFF;" d="M147.945,387.278c-24.249,0-43.984-19.735-43.984-43.983c0-2.211,1.789-3.999,3.999-3.999
		s3.999,1.788,3.999,3.999c0,19.844,16.143,35.986,35.987,35.986s35.986-16.143,35.986-35.986c0-2.211,1.789-3.999,3.999-3.999
		c2.21,0,3.998,1.788,3.998,3.999C191.929,367.543,172.194,387.278,147.945,387.278z"/>
	<path style="fill:#116FFF;" d="M203.925,267.322c-2.21,0-3.999-1.788-3.999-3.998V247.33c0-2.21,1.789-3.998,3.999-3.998
		c2.21,0,3.998,1.788,3.998,3.998v15.994C207.923,265.534,206.135,267.322,203.925,267.322z"/>
	<path style="fill:#116FFF;" d="M203.925,331.298c-2.21,0-3.999-1.788-3.999-3.998v-15.994c0-2.21,1.789-3.998,3.999-3.998
		c2.21,0,3.998,1.788,3.998,3.998V327.3C207.923,329.51,206.135,331.298,203.925,331.298z"/>
	<path style="fill:#116FFF;" d="M187.931,331.298c-2.21,0-3.999-1.788-3.999-3.998v-15.994c0-2.21,1.789-3.998,3.999-3.998
		c2.21,0,3.998,1.788,3.998,3.998V327.3C191.929,329.51,190.141,331.298,187.931,331.298z"/>
	<path style="fill:#116FFF;" d="M187.931,267.322c-2.21,0-3.999-1.788-3.999-3.998V247.33c0-2.21,1.789-3.998,3.999-3.998
		c2.21,0,3.998,1.788,3.998,3.998v15.994C191.929,265.534,190.141,267.322,187.931,267.322z"/>
	<path style="fill:#116FFF;" d="M203.925,299.31c-2.21,0-3.999-1.788-3.999-3.998v-15.994c0-2.21,1.789-3.998,3.999-3.998
		c2.21,0,3.998,1.788,3.998,3.998v15.994C207.923,297.522,206.135,299.31,203.925,299.31z"/>
	<path style="fill:#116FFF;" d="M187.931,299.31c-2.21,0-3.999-1.788-3.999-3.998v-15.994c0-2.21,1.789-3.998,3.999-3.998
		c2.21,0,3.998,1.788,3.998,3.998v15.994C191.929,297.522,190.141,299.31,187.931,299.31z"/>
	<path style="fill:#116FFF;" d="M43.984,179.355c-11.027,0-19.993-8.965-19.993-19.992c0-2.21,1.788-3.999,3.999-3.999
		c2.21,0,3.999,1.789,3.999,3.999c0,6.724,5.271,11.995,11.996,11.995c2.21,0,3.999,1.788,3.999,3.999
		C47.982,177.567,46.194,179.355,43.984,179.355z"/>
</g>
<g>
</g>
<g>
</g>
<g>
</g>
<g>
</g>
<g>
</g>
<g>
</g>
<g>
</g>
<g>
</g>
<g>
</g>
<g>
</g>
<g>
</g>
<g>
</g>
<g>
</g>
<g>
</g>
<g>
</g>
</svg>
