<?xml version="1.0" encoding="iso-8859-1"?>
<!-- Generator: Adobe Illustrator 19.0.0, SVG Export Plug-In . SVG Version: 6.00 Build 0)  -->
<svg version="1.1" id="Capa_1" xmlns="http://www.w3.org/2000/svg" xmlns:xlink="http://www.w3.org/1999/xlink" x="0px" y="0px"
	 viewBox="0 0 511.811 511.811" style="enable-background:new 0 0 511.811 511.811;" xml:space="preserve">
<path style="fill:#94C1FF;" d="M158.271,92.685h-9.036c0.164-21.43,0.398-41.188,0.64-56.542l8.396,0.086
	c22.796,10.871,46.545,47.576,64.46,75.332c22.07,34.222,37.985,58.938,62.055,60.454c0.883,0,1.679,0,2.562,0
	c17.907,0,34.144-11.199,49.896-21.992c6.958-4.795,20.398-13.917,27.115-15.83l3.514,6.154
	c-19.195,12.769-32.69,53.917-95.238,50.146C221.376,187.4,195.781,101.159,158.271,92.685z"/>
<polygon style="fill:#D7E9FF;" points="150.75,467.827 142.753,507.812 126.759,507.812 134.756,467.827 "/>
<polygon style="fill:#94C1FF;" points="254.711,507.812 142.753,507.812 150.75,467.827 166.264,467.827 190.736,467.827 
	246.715,467.827 249.912,483.821 "/>
<g style="opacity:0.2;">
	<polygon points="249.912,483.821 246.715,467.827 238.718,467.827 241.915,483.821 246.715,507.812 254.711,507.812 	"/>
</g>
<g>
	<path style="fill:#D7E9FF;" d="M337.719,149.945c-15.752,10.793-31.988,21.992-49.903,21.992c-0.875,0-1.679,0-2.554,0
		c-24.077-1.523-39.989-26.232-62.059-60.454c-17.915-27.756-41.664-64.461-64.456-75.34l-8.396-0.156
		c0.078-11.113,0.238-19.993,0.32-25.514l8.075,0.164c58.619,15.51,99.962,135.629,127.952,137.309
		c28.872,1.757,75.254-67.015,103.962-23.991c5.357,7.997,0,23.991,0,23.991v7.997h-22.789v-15.596
		c0.477-1.516,0.953-3.757,1.117-5.357c-0.883-0.961-1.438-1.281-1.438-1.281C362.428,133.069,345.795,144.424,337.719,149.945z"/>
	<polygon style="fill:#D7E9FF;" points="390.661,155.943 246.715,459.831 246.715,467.827 190.736,467.827 190.736,459.831 
		366.67,155.943 367.872,155.943 	"/>
</g>
<g>
	<rect x="367.876" y="147.946" style="fill:#94C1FF;" width="22.789" height="7.997"/>
	<polygon style="fill:#94C1FF;" points="382.664,155.943 238.718,459.831 246.715,459.831 390.661,155.943 	"/>
</g>
<path style="fill:#D7E9FF;" d="M150.352,35.988c-0.563,41.742-1.363,115.559-1.042,167.938h-17.271
	c-4.561-74.45-13.277-191.93-13.277-191.93l31.988-7.997c0,0,0,2.32-0.078,6.474C150.59,15.995,150.43,24.875,150.352,35.988z"/>
<path style="fill:#5C9EFF;" d="M158.271,36.229l-8.396-0.086c-0.242,15.354-0.477,35.112-0.64,56.542h8.461
	c0.203-21.352,0.441-41.04,0.648-56.417C158.322,36.26,158.294,36.237,158.271,36.229z"/>
<path style="fill:#94C1FF;" d="M150.672,10.473c-0.082,5.521-0.242,14.401-0.32,25.514l7.997,0.148c0-0.046,0-0.101,0-0.148
	c0.078-11.02,0.234-19.821,0.316-25.35L150.672,10.473z"/>
<path style="fill:#FFFFFF;" d="M150.739,5.999c0.012-1.273,0.012-2,0.012-2l-31.988,7.997c0,0,8.716,117.48,13.276,191.929h7.997
	c-4.561-74.449-13.277-191.929-13.277-191.929L150.739,5.999z"/>
<path style="fill:#94C1FF;" d="M150.75,259.905c0.64,6.474,1.601,17.836,2.8,31.987h-0.082h-18.712c0-14.314,0-25.748,0-31.987
	c0-8.396-1.121-29.427-2.718-55.979h17.271C149.469,230.314,149.871,251.267,150.75,259.905z"/>
<path style="fill:#D7E9FF;" d="M150.75,467.827h-15.994v-7.996c0,0,0-108.757,0-167.938h18.712h0.082
	c4.799,59.416,12.714,167.938,12.714,167.938v7.996H150.75z"/>
<path style="fill:#FFFFFF;" d="M142.753,291.892h-7.997c0,59.182,0,167.938,0,167.938h7.997
	C142.753,459.831,142.753,351.074,142.753,291.892z"/>
<g>
	<rect x="134.756" y="459.836" style="fill:#94C1FF;" width="31.508" height="7.996"/>
	<rect x="190.976" y="459.836" style="fill:#94C1FF;" width="55.737" height="7.996"/>
</g>
<g>
	<path style="fill:#116FFF;" d="M254.871,511.811c-0.055-0.008-0.109-0.008-0.16,0H126.759c-1.199,0-2.331-0.539-3.093-1.461
		c-0.757-0.929-1.062-2.147-0.828-3.318l7.997-39.985c0.375-1.874,2.015-3.218,3.92-3.218h111.958c1.906,0,3.545,1.344,3.92,3.218
		l7.786,38.923c0.285,0.555,0.445,1.18,0.445,1.843C258.866,510.022,257.077,511.811,254.871,511.811z M131.636,503.814h118.198
		l-6.399-31.988H138.032L131.636,503.814z"/>
	<path style="fill:#116FFF;" d="M166.26,463.829c-2.077,0-3.831-1.602-3.983-3.71c-0.082-1.085-7.97-109.186-12.714-167.906
		l-0.074-0.874c-1.159-13.714-2.093-24.718-2.718-31.044c-0.8-7.864-1.276-26.295-1.46-56.346
		c-0.344-56.245,0.613-136.231,1.042-168.016c0.063-9.114,0.184-16.744,0.27-22.25l0.051-3.272c0.078-4.1,0.078-6.388,0.078-6.412
		c0-2.21,1.789-3.999,3.999-3.999s3.998,1.789,3.998,3.999c0,0,0,2.343-0.078,6.552l-0.051,3.257
		c-0.085,5.482-0.207,13.097-0.269,22.21c-0.429,31.777-1.386,111.708-1.042,167.883c0.18,29.793,0.645,47.982,1.421,55.597
		c0.629,6.364,1.563,17.407,2.729,31.168l0.074,0.89c4.749,58.768,12.64,166.899,12.718,167.985c0.16,2.202-1.492,4.115-3.698,4.279
		C166.455,463.829,166.358,463.829,166.26,463.829z"/>
	<path style="fill:#116FFF;" d="M118.758,15.995c-1.792,0-3.421-1.21-3.874-3.03c-0.539-2.14,0.765-4.311,2.909-4.85l31.988-7.997
		c2.136-0.516,4.311,0.766,4.846,2.913c0.539,2.14-0.765,4.311-2.909,4.85l-31.988,7.997
		C119.406,15.956,119.078,15.995,118.758,15.995z"/>
	<path style="fill:#116FFF;" d="M134.756,463.829c-2.21,0-3.999-1.789-3.999-3.998V259.905c0-7.279-0.863-24.991-2.71-55.738
		c-4.506-73.566-13.187-190.703-13.272-191.874c-0.164-2.203,1.488-4.124,3.69-4.288c2.229-0.234,4.116,1.492,4.284,3.694
		c0.09,1.179,8.77,118.354,13.28,191.983c1.886,31.332,2.726,48.669,2.726,56.222V459.83
		C138.755,462.04,136.966,463.829,134.756,463.829z"/>
	<path style="fill:#116FFF;" d="M190.732,463.829c-0.68,0-1.371-0.172-2-0.539c-1.91-1.109-2.565-3.553-1.457-5.467L363.21,153.936
		c1.109-1.914,3.562-2.562,5.467-1.453s2.562,3.554,1.453,5.467L194.195,461.838C193.453,463.11,192.11,463.829,190.732,463.829z"/>
	<path style="fill:#116FFF;" d="M390.661,159.941H366.67c-2.21,0-3.999-1.788-3.999-3.998s1.789-3.999,3.999-3.999h23.991
		c2.21,0,3.998,1.789,3.998,3.999S392.871,159.941,390.661,159.941z"/>
	<path style="fill:#116FFF;" d="M246.711,463.829c-0.574,0-1.156-0.125-1.707-0.383c-1.995-0.945-2.851-3.335-1.901-5.326
		l143.942-303.887c0.953-2.007,3.351-2.827,5.326-1.906c1.999,0.945,2.851,3.335,1.905,5.326l-143.95,303.888
		C249.643,462.985,248.21,463.829,246.711,463.829z"/>
	<path style="fill:#116FFF;" d="M287.808,151.976c-0.453,0-0.906-0.008-1.352-0.039c-13.964-0.835-28.333-23.117-46.533-51.317
		c-22.316-34.581-50.083-77.62-82.2-86.117c-2.136-0.562-3.409-2.756-2.843-4.889c0.563-2.132,2.769-3.428,4.889-2.843
		c35.108,9.293,63.812,53.769,86.874,89.514c15.618,24.209,30.379,47.077,40.297,47.67c9.263,0.429,21.75-8.005,34.933-17.072
		c16.994-11.699,34.573-23.772,51.137-20.594c8.122,1.562,15.175,6.755,20.977,15.447c6.264,9.348,1.078,25.654,0.461,27.482
		c-0.688,2.085-2.928,3.225-5.053,2.515c-2.093-0.695-3.225-2.96-2.53-5.053c1.227-3.678,3.937-15.331,0.477-20.5
		c-4.639-6.942-9.816-10.879-15.838-12.042c-13.292-2.554-29.474,8.567-45.093,19.329
		C312.596,142.979,299.514,151.976,287.808,151.976z"/>
	<path style="fill:#116FFF;" d="M287.816,175.935h-2.554c-26.318-1.655-42.691-27.044-65.351-62.18
		c-17.357-26.889-41.036-63.57-62.887-74.004c-1.992-0.953-2.839-3.335-1.886-5.334c0.953-1.991,3.339-2.835,5.33-1.882
		c23.897,11.402,48.287,49.192,66.093,76.776c21.461,33.277,36.912,57.245,58.951,58.634l2.304-0.008
		c16.571,0,32.222-10.722,47.357-21.102c19.446-13.284,27.927-17.712,32.878-17.095c0.523,0.063,1.039,0.234,1.5,0.508
		c0.328,0.187,1.21,0.757,2.382,2.038c0.772,0.835,1.147,1.976,1.03,3.108c-0.18,1.819-0.71,4.342-1.28,6.153
		c-0.656,2.101-2.866,3.265-5.014,2.608c-2.101-0.656-3.272-2.905-2.608-5.014c0.063-0.211,0.133-0.453,0.203-0.695
		c-3.593,1.492-10.66,5.482-24.288,14.799C323.552,164.494,306.864,175.935,287.816,175.935z"/>
	<path style="fill:#116FFF;" d="M274.946,194.413c-0.625,0-1.258,0-1.891-0.008c-30.769-0.382-52.582-29.965-71.824-56.065
		c-14.573-19.766-28.337-38.439-43.367-41.836c-2.151-0.484-3.502-2.624-3.019-4.78c0.488-2.155,2.62-3.514,4.784-3.014
		c17.931,4.045,32.554,23.881,48.037,44.881c19.024,25.803,38.693,52.489,65.483,52.816c49.256,1,66.702-24.155,66.866-24.405
		c1.257-1.82,3.765-2.272,5.561-1.046c1.819,1.25,2.288,3.741,1.046,5.561C345.834,167.665,326.942,194.413,274.946,194.413z"/>
	<path style="fill:#116FFF;" d="M270.705,487.82h-20.792c-2.21,0-3.998-1.788-3.998-3.999c0-2.21,1.788-3.998,3.998-3.998h20.792
		c2.21,0,3.999,1.788,3.999,3.998C274.704,486.032,272.915,487.82,270.705,487.82z"/>
	<path style="fill:#116FFF;" d="M238.718,487.82h-15.994c-2.21,0-3.999-1.788-3.999-3.999c0-2.21,1.788-3.998,3.999-3.998h15.994
		c2.21,0,3.999,1.788,3.999,3.998C242.716,486.032,240.927,487.82,238.718,487.82z"/>
	<path style="fill:#116FFF;" d="M206.729,487.82h-7.997c-2.21,0-3.999-1.788-3.999-3.999c0-2.21,1.789-3.998,3.999-3.998h7.997
		c2.21,0,3.999,1.788,3.999,3.998C210.728,486.032,208.94,487.82,206.729,487.82z"/>
	<path style="fill:#116FFF;" d="M186.893,438.557c-2.112,0-3.877-1.656-3.99-3.788L166.268,119.05
		c-0.113-2.202,1.577-4.084,3.784-4.202c2.152-0.305,4.088,1.578,4.206,3.78l16.634,315.719c0.113,2.202-1.578,4.085-3.784,4.202
		C187.037,438.557,186.963,438.557,186.893,438.557z"/>
	<path style="fill:#116FFF;" d="M201.528,413.207c-2.113,0-3.877-1.655-3.991-3.788l-14.155-269.415
		c-0.113-2.21,1.582-4.084,3.784-4.202c2.257-0.273,4.088,1.578,4.206,3.78l14.155,269.416c0.113,2.21-1.581,4.084-3.784,4.201
		C201.669,413.207,201.598,413.207,201.528,413.207z"/>
	<path style="fill:#116FFF;" d="M216.241,387.935c-2.112,0-3.877-1.655-3.991-3.788l-11.675-221.199
		c-0.113-2.202,1.577-4.084,3.784-4.201c2.16-0.305,4.088,1.577,4.206,3.779l11.675,221.199c0.113,2.203-1.578,4.085-3.784,4.202
		C216.386,387.935,216.312,387.935,216.241,387.935z"/>
	<path style="fill:#116FFF;" d="M230.877,362.585c-2.113,0-3.877-1.655-3.991-3.787l-9.278-176.575
		c-0.113-2.21,1.582-4.084,3.784-4.202c2.226-0.297,4.088,1.578,4.206,3.78l9.278,176.575c0.113,2.21-1.582,4.084-3.784,4.201
		C231.017,362.585,230.947,362.585,230.877,362.585z"/>
	<path style="fill:#116FFF;" d="M245.512,337.313c-2.112,0-3.878-1.656-3.991-3.787l-7.196-137.707
		c-0.113-2.21,1.582-4.093,3.788-4.202c2.12-0.304,4.084,1.578,4.201,3.78l7.196,137.707c0.113,2.21-1.581,4.092-3.787,4.201
		C245.653,337.313,245.582,337.313,245.512,337.313z"/>
	<path style="fill:#116FFF;" d="M260.232,311.964c-2.116,0-3.88-1.656-3.994-3.788l-5.521-104.516
		c-0.113-2.203,1.577-4.085,3.784-4.202c2.101-0.265,4.088,1.578,4.205,3.78l5.518,104.516c0.117,2.202-1.578,4.085-3.78,4.202
		C260.373,311.964,260.302,311.964,260.232,311.964z"/>
	<path style="fill:#116FFF;" d="M274.86,286.613c-2.117,0-3.882-1.655-3.991-3.787l-3.998-76.292
		c-0.117-2.21,1.577-4.085,3.779-4.202c2.187-0.242,4.085,1.578,4.202,3.78l3.998,76.292c0.117,2.21-1.577,4.084-3.779,4.201
		C275.001,286.613,274.93,286.613,274.86,286.613z"/>
	<path style="fill:#116FFF;" d="M289.495,261.263c-2.116,0-3.881-1.655-3.99-3.796l-2.64-51.262
		c-0.117-2.203,1.577-4.085,3.787-4.194c2.405-0.273,4.085,1.586,4.194,3.788l2.64,51.262c0.116,2.203-1.578,4.085-3.788,4.194
		C289.628,261.263,289.557,261.263,289.495,261.263z"/>
	<path style="fill:#116FFF;" d="M304.216,235.913c-2.116,0-3.881-1.656-3.99-3.788l-1.522-28.388
		c-0.117-2.203,1.569-4.085,3.779-4.202c2.187-0.234,4.085,1.578,4.202,3.78l1.522,28.388c0.117,2.202-1.569,4.084-3.78,4.202
		C304.356,235.913,304.286,235.913,304.216,235.913z"/>
	<path style="fill:#116FFF;" d="M318.844,210.641c-2.108,0-3.874-1.647-3.991-3.78l-0.397-7.279
		c-0.125-2.202,1.569-4.092,3.771-4.209c2.522-0.227,4.093,1.569,4.21,3.772l0.398,7.279c0.125,2.202-1.57,4.092-3.772,4.209
		C318.984,210.641,318.914,210.641,318.844,210.641z"/>
	<path style="fill:#116FFF;" d="M142.757,511.811c-0.258,0-0.523-0.023-0.789-0.078c-2.163-0.43-3.569-2.538-3.136-4.701
		l7.997-39.985c0.43-2.171,2.507-3.585,4.706-3.14c2.164,0.43,3.569,2.538,3.135,4.701l-7.997,39.985
		C146.295,510.499,144.623,511.811,142.757,511.811z"/>
	<path style="fill:#116FFF;" d="M149.309,207.924h-17.271c-2.21,0-3.999-1.788-3.999-3.998s1.789-3.999,3.999-3.999h17.271
		c2.21,0,3.999,1.789,3.999,3.999C153.308,206.135,151.519,207.924,149.309,207.924z"/>
	<path style="fill:#116FFF;" d="M153.468,295.891h-18.712c-2.21,0-3.999-1.789-3.999-3.999s1.789-3.998,3.999-3.998h18.712
		c2.21,0,3.998,1.788,3.998,3.998S155.678,295.891,153.468,295.891z"/>
</g>
<g>
</g>
<g>
</g>
<g>
</g>
<g>
</g>
<g>
</g>
<g>
</g>
<g>
</g>
<g>
</g>
<g>
</g>
<g>
</g>
<g>
</g>
<g>
</g>
<g>
</g>
<g>
</g>
<g>
</g>
</svg>
