<?xml version="1.0" encoding="iso-8859-1"?>
<!-- Generator: Adobe Illustrator 19.0.0, SVG Export Plug-In . SVG Version: 6.00 Build 0)  -->
<svg version="1.1" id="Capa_1" xmlns="http://www.w3.org/2000/svg" xmlns:xlink="http://www.w3.org/1999/xlink" x="0px" y="0px"
	 viewBox="0 0 511.812 511.812" style="enable-background:new 0 0 511.812 511.812;" xml:space="preserve">
<path style="fill:#D7E9FF;" d="M352.526,275.26c-7.919-7.92-14.314-16.072-18.556-23.351
	c-15.588,37.267-23.054,60.689-26.692,90.076l-0.734,5.889l-2.64,111.959h-0.047c0,0.086,0.047,0.156,0.047,0.241
	c0,4.413-3.585,7.997-7.997,7.997s-7.997-3.584-7.997-7.997c0-0.085,0.047-0.155,0.047-0.241h-0.047l7.997-287.895h-7.997h-7.997
	V43.986c0-22.07-17.916-39.985-39.985-39.985c-23.991,0-20.867,24.151-55.979,24.151v7.997
	c33.589,6.318,39.829-15.756,55.979-16.392v0.238c13.198,0,23.913,10.715,23.913,23.913c0,0-0.563,8.875-1.523,24.069
	c-2.155,33.429-6.231,97.323-10.315,163.939c-5.998,97.886-11.996,201.847-11.832,223.917c0,28.708,23.272,51.98,51.98,51.98
	s51.981-23.272,51.981-51.98c0-35.986-0.242-100.447,31.745-162.019C368.598,289.574,360.445,283.178,352.526,275.26z"/>
<g>
	<path style="fill:#94C1FF;" d="M369.817,289.926c-31.988,61.57-33.684,129.921-33.684,165.907
		c0,27.356-21.148,49.731-47.981,51.777c1.319,0.102,2.647,0.203,3.998,0.203c28.708,0,51.981-23.272,51.981-51.98
		c0-35.986-0.242-100.447,31.745-162.019L369.817,289.926z"/>
	<path style="fill:#94C1FF;" d="M279.96,459.832c0,0.086-0.047,0.156-0.047,0.241c0,4.413,3.584,7.997,7.997,7.997
		c1.491,0,2.804-0.523,3.998-1.226c-2.343-1.391-3.998-3.843-3.998-6.771c0-0.085,0.047-0.155,0.047-0.241h-0.047l7.997-287.894
		h-7.997l-7.997,287.894L279.96,459.832L279.96,459.832z"/>
	<path style="fill:#94C1FF;" d="M271.916,43.986l0.047,163.939h7.95V43.986c0-22.07-17.916-39.985-39.985-39.985
		c-1.648,0-3.147,0.133-4.561,0.348C255.805,6.121,271.916,23.095,271.916,43.986z"/>
	<path style="fill:#94C1FF;" d="M231.931,19.994v-0.238c-13.308,0.523-19.922,15.569-40.618,17.326
		c24.686,1.812,32.371-13.386,44.687-16.678C234.672,20.174,233.321,19.994,231.931,19.994z"/>
</g>
<g>
	<path style="fill:#FFFFFF;" d="M275.914,419.846c6.639,0,11.996,5.356,11.996,11.995s-5.357,11.996-11.996,11.996
		c-6.638,0-11.995-5.357-11.995-11.996S269.276,419.846,275.914,419.846z"/>
	<path style="fill:#FFFFFF;" d="M275.914,379.861c6.639,0,11.996,5.357,11.996,11.995c0,6.639-5.357,11.996-11.996,11.996
		c-6.638,0-11.995-5.357-11.995-11.996C263.919,385.219,269.276,379.861,275.914,379.861z"/>
	<path style="fill:#FFFFFF;" d="M275.914,339.876c6.639,0,11.996,5.357,11.996,11.995c0,3.358-1.359,6.318-3.515,8.481
		c-2.163,2.155-5.201,3.515-8.481,3.515c-6.638,0-11.995-5.357-11.995-11.996C263.919,345.233,269.276,339.876,275.914,339.876z"/>
	<path style="fill:#FFFFFF;" d="M287.676,309.488c0.156,0.797,0.234,1.602,0.234,2.398c0,6.638-5.357,11.995-11.996,11.995
		c-6.638,0-11.995-5.357-11.995-11.995c0-6.639,5.357-11.996,11.995-11.996C281.756,299.89,286.551,303.968,287.676,309.488z"/>
	<path style="fill:#FFFFFF;" d="M287.91,271.901c0,6.638-5.357,11.995-11.996,11.995c-6.638,0-11.995-5.357-11.995-11.995
		c0-6.639,5.357-11.995,11.995-11.995C282.553,259.906,287.91,265.262,287.91,271.901z"/>
	<path style="fill:#FFFFFF;" d="M287.91,231.916c0,6.638-5.357,11.996-11.996,11.996c-6.638,0-11.995-5.357-11.995-11.996
		s5.357-11.996,11.995-11.996C282.553,219.92,287.91,225.278,287.91,231.916z"/>
</g>
<path style="fill:#D7E9FF;" d="M329.738,229.757c6.317-6.236,26.709,3.92,45.499,22.792c18.875,18.868,29.027,39.188,22.796,45.499
	c-3.679,3.608-12.081,1.765-22.156-4.233c-7.278-4.24-15.432-10.637-23.351-18.555c-7.919-7.92-14.314-16.072-18.556-23.351
	C328.059,241.834,326.137,233.435,329.738,229.757z"/>
<g>
	<polygon style="fill:#94C1FF;" points="183.949,28.152 183.949,36.148 160.356,43.986 159.957,43.907 159.957,19.994 	"/>
	<polygon style="fill:#94C1FF;" points="159.957,19.994 159.957,43.907 111.975,31.99 	"/>
</g>
<g>
	<polygon style="fill:#D7E9FF;" points="159.957,19.994 159.957,27.991 183.949,36.148 183.949,28.152 	"/>
	<polygon style="fill:#D7E9FF;" points="111.975,31.99 128.024,35.977 159.957,27.991 159.957,19.994 	"/>
</g>
<polygon style="fill:#FFCE54;" points="240.17,455.833 223.934,455.833 233.134,275.899 249.331,275.899 "/>
<g>
	<path style="fill:#94C1FF;" d="M341.327,252.095c3.116-3.073,13.16,1.929,22.422,11.23c9.293,9.293,14.291,19.306,11.223,22.414
		c-1.813,1.78-5.959,0.866-10.918-2.086c-3.585-2.085-7.591-5.24-11.512-9.145c-3.889-3.89-7.036-7.919-9.129-11.504
		C340.508,258.043,339.562,253.908,341.327,252.095z"/>
	<polygon style="fill:#94C1FF;" points="240.17,455.833 223.934,455.833 233.134,275.899 249.331,275.899 	"/>
</g>
<g>
	<path style="fill:#FFFFFF;" d="M303.857,459.832c0,0.086,0.047,0.156,0.047,0.241c0,2.929-1.656,5.381-3.999,6.771
		c1.195,0.702,2.507,1.226,3.999,1.226c4.412,0,7.997-3.584,7.997-7.997c0-0.085-0.047-0.155-0.047-0.241h0.047l2.64-111.959
		l0.733-5.889c3.39-27.334,10.176-49.661,23.641-82.621c-1.844-2.546-3.546-5.057-4.944-7.455
		c-15.588,37.267-23.054,60.689-26.692,90.076l-0.734,5.889l-2.64,111.959H303.857z"/>
	<path style="fill:#FFFFFF;" d="M248.167,455.833c-0.164-22.07,5.834-126.031,11.831-223.917
		c4.085-66.616,9.966-190.18,9.966-190.18c0-13.198-8.841-21.742-22.039-21.742v-0.238c-1.382,0.055-2.671,0.313-3.928,0.648
		c11.253,1.941,19.844,11.695,19.844,23.503c0,0-0.563,8.875-1.523,24.069c-2.155,33.429-6.231,97.323-10.315,163.939
		c-5.998,97.886-11.996,201.847-11.832,223.917c0,28.708,23.272,51.98,51.98,51.98c1.352,0,2.679-0.102,3.999-0.203
		C269.315,505.564,248.167,483.189,248.167,455.833z"/>
	<path style="fill:#FFFFFF;" d="M295.907,371.864c0-3.843,1.358-7.356,3.678-10.152c0.32-0.406,0.719-0.719,1.039-1.125
		c2.882-2.952,6.88-4.717,11.277-4.717c8.879,0,15.994,7.2,15.994,15.994s-7.115,15.994-15.994,15.994
		C303.107,387.858,295.907,380.658,295.907,371.864z"/>
	<path style="fill:#FFFFFF;" d="M295.907,419.846c0-3.843,1.358-7.356,3.678-10.153c0.32-0.405,0.719-0.718,1.039-1.124
		c2.882-2.952,6.88-4.717,11.277-4.717c8.879,0,15.994,7.2,15.994,15.994c0,8.793-7.115,15.993-15.994,15.993
		C303.107,435.84,295.907,428.639,295.907,419.846z"/>
</g>
<g>
	<path style="fill:#116FFF;" d="M392.668,303.889c-6.356,0-13.753-3.608-18.837-6.639c-7.778-4.529-16.135-11.167-24.132-19.165
		c-7.997-7.988-14.627-16.345-19.181-24.166c-7.255-12.363-8.551-21.941-3.639-26.959c1.43-1.414,3.967-3.038,8.2-3.038
		c10.504,0,27.38,10.129,42.991,25.807c18.322,18.313,32.043,41.767,22.813,51.13C399.438,302.264,396.9,303.889,392.668,303.889z
		 M335.08,231.92c-0.844,0-1.96,0.117-2.53,0.684c-1.297,1.323-1.125,7.071,4.873,17.282c4.217,7.239,10.418,15.034,17.931,22.547
		c7.521,7.521,15.314,13.722,22.538,17.931c8.084,4.811,12.723,5.529,14.776,5.529c0.844,0,1.983-0.125,2.569-0.703
		c2.827-2.866-2.601-19.586-22.827-39.813C357.071,239.975,342.022,231.92,335.08,231.92z"/>
	<path style="fill:#116FFF;" d="M377.954,287.895c-1.515,0-2.967-0.867-3.639-2.335c-2.546-5.568-7.521-12.293-13.659-18.431
		c-6.13-6.131-12.847-11.109-18.431-13.663c-2.007-0.918-2.89-3.292-1.976-5.299c0.921-2.015,3.312-2.882,5.303-1.972
		c6.513,2.976,13.886,8.403,20.758,15.28c6.888,6.888,12.308,14.261,15.283,20.758c0.914,2.007,0.031,4.381-1.976,5.303
		C379.079,287.778,378.509,287.895,377.954,287.895z"/>
	<path style="fill:#116FFF;" d="M292.15,511.812c-30.863,0-55.979-25.116-55.979-55.979c0-2.21,1.789-3.999,3.999-3.999
		s3.998,1.789,3.998,3.999c0,26.459,21.523,47.982,47.982,47.982s47.982-21.523,47.982-47.982c0-2.21,1.788-3.999,3.999-3.999
		c2.209,0,3.998,1.789,3.998,3.999C348.13,486.696,323.014,511.812,292.15,511.812z"/>
	<path style="fill:#116FFF;" d="M344.132,459.832c-2.211,0-3.999-1.789-3.999-3.999v-0.805c0-35.322-0.008-101.071,32.199-163.057
		c1.022-1.968,3.452-2.718,5.389-1.702c1.96,1.016,2.726,3.428,1.702,5.389c-31.301,60.251-31.293,122.298-31.293,159.37v0.805
		C348.13,458.043,346.341,459.832,344.132,459.832z"/>
	<path style="fill:#116FFF;" d="M240.17,459.832c-2.194,0-3.983-1.766-3.999-3.968c-0.133-18.337,3.85-93.763,11.839-224.194
		c4.084-66.62,8.161-130.518,10.316-163.951l1.523-24.065c0.14-2.195,1.866-3.854,4.24-3.737c2.21,0.141,3.881,2.038,3.74,4.244
		l-1.522,24.069c-2.155,33.429-6.232,97.319-10.316,163.932c-7.864,128.409-11.957,205.748-11.824,223.64
		c0.016,2.21-1.757,4.015-3.967,4.03C240.194,459.832,240.178,459.832,240.17,459.832z"/>
	<path style="fill:#116FFF;" d="M223.934,459.832c-2.202,0-3.991-1.781-3.999-3.983c-0.07-15.994,3.03-76.612,9.208-180.183
		c0.125-2.203,1.983-3.858,4.225-3.757c2.21,0.133,3.889,2.022,3.756,4.225c-6.162,103.407-9.254,163.861-9.192,179.684
		c0.008,2.202-1.773,4.007-3.983,4.015C223.942,459.832,223.942,459.832,223.934,459.832z"/>
	<path style="fill:#116FFF;" d="M295.907,471.827c-6.615,0-11.996-5.381-11.996-11.995c0-2.211,1.789-3.999,3.999-3.999
		s3.998,1.788,3.998,3.999c0,2.201,1.796,3.998,3.999,3.998c2.202,0,3.998-1.797,3.998-3.998c0-2.211,1.789-3.999,3.999-3.999
		s3.998,1.788,3.998,3.999C307.902,466.446,302.521,471.827,295.907,471.827z"/>
	<path style="fill:#116FFF;" d="M306.552,351.871c-0.141,0-0.281-0.008-0.422-0.016c-2.194-0.234-3.788-2.202-3.562-4.396
		c3.226-31.059,9.966-54.659,27.717-97.093c0.851-2.046,3.187-2.999,5.232-2.147c2.03,0.855,2.991,3.194,2.14,5.232
		c-17.408,41.613-23.999,64.659-27.139,94.836C310.307,350.341,308.574,351.871,306.552,351.871z"/>
	<path style="fill:#116FFF;" d="M303.904,463.83c-2.21,0-3.999-1.789-3.999-3.998v-15.511c0-2.218,1.789-3.998,3.999-3.998
		s3.998,1.78,3.998,3.998v15.511C307.902,462.041,306.114,463.83,303.904,463.83z"/>
	<path style="fill:#116FFF;" d="M279.913,207.925c-2.21,0-3.999-1.788-3.999-3.998V43.986c0-2.21,1.789-3.999,3.999-3.999
		s3.998,1.788,3.998,3.999v159.941C283.911,206.136,282.123,207.925,279.913,207.925z"/>
	<path style="fill:#116FFF;" d="M279.913,47.984c-2.21,0-3.999-1.789-3.999-3.999c0-19.844-16.142-35.987-35.986-35.987
		c-2.21,0-3.999-1.788-3.999-3.999c0-2.21,1.789-3.999,3.999-3.999c24.249,0,43.983,19.731,43.983,43.984
		C283.911,46.196,282.123,47.984,279.913,47.984z"/>
	<path style="fill:#116FFF;" d="M263.841,47.906c-2.21,0-3.998-1.789-3.998-3.999c0-10.98-8.934-19.915-19.915-19.915
		c-2.21,0-3.999-1.788-3.999-3.999c0-2.211,1.789-3.999,3.999-3.999c15.393,0,27.911,12.522,27.911,27.912
		C267.839,46.117,266.051,47.906,263.841,47.906z"/>
	<path style="fill:#116FFF;" d="M183.949,32.15c-2.21,0-3.998-1.789-3.998-3.999s1.788-3.999,3.998-3.999
		c17.65,0,24.577-6.462,31.285-12.714C221.263,5.815,227.496,0,239.928,0c2.21,0,3.999,1.789,3.999,3.999s-1.789,3.999-3.999,3.999
		c-9.286,0-13.675,4.1-19.243,9.286C213.586,23.907,204.745,32.15,183.949,32.15z"/>
	<path style="fill:#116FFF;" d="M195.398,41.291c-3.671,0-7.708-0.371-12.191-1.214c-2.171-0.406-3.592-2.495-3.186-4.666
		c0.406-2.175,2.546-3.604,4.67-3.19c19.399,3.647,28.356-2.601,37.041-8.642c5.568-3.874,10.832-7.532,18.04-7.817l0.398,7.993
		h-0.242c-4.717,0.188-8.653,2.925-13.628,6.389C218.998,35.22,210.267,41.287,195.398,41.291z"/>
	<path style="fill:#116FFF;" d="M183.949,40.147c-2.21,0-3.998-1.789-3.998-3.999v-7.997c0-2.21,1.788-3.999,3.998-3.999
		s3.999,1.788,3.999,3.999v7.997C187.948,38.359,186.159,40.147,183.949,40.147z"/>
	<path style="fill:#116FFF;" d="M160.356,47.984c-1.679,0-3.241-1.063-3.795-2.737c-0.695-2.097,0.437-4.362,2.538-5.057
		l23.593-7.837c2.101-0.699,4.357,0.445,5.053,2.534c0.695,2.097-0.438,4.361-2.538,5.057l-23.593,7.837
		C161.199,47.918,160.77,47.984,160.356,47.984z"/>
	<path style="fill:#116FFF;" d="M183.949,32.15c-0.429,0-0.859-0.066-1.288-0.215l-23.991-8.157
		c-2.093-0.711-3.21-2.979-2.499-5.072c0.718-2.093,2.983-3.21,5.076-2.495l23.991,8.157c2.093,0.71,3.209,2.979,2.499,5.072
		C187.166,31.103,185.612,32.15,183.949,32.15z"/>
	<path style="fill:#116FFF;" d="M160.34,47.984c-0.25,0-0.5-0.023-0.757-0.074l-0.398-0.078l-48.17-11.96
		c-2.147-0.535-3.452-2.702-2.921-4.846c0.531-2.136,2.687-3.428,4.842-2.917l47.982,11.917c2.108,0.523,3.616,2.671,3.14,4.787
		C163.644,46.679,162.144,47.984,160.34,47.984z"/>
	<path style="fill:#116FFF;" d="M111.975,35.989c-1.796,0-3.428-1.21-3.881-3.03c-0.531-2.14,0.766-4.311,2.913-4.846l47.982-11.996
		c2.108-0.559,4.311,0.766,4.85,2.909c0.531,2.14-0.766,4.311-2.913,4.846l-47.982,11.995
		C112.623,35.949,112.296,35.989,111.975,35.989z"/>
	<path style="fill:#116FFF;" d="M159.957,47.945c-2.21,0-3.998-1.75-3.998-3.959V19.994c0-2.21,1.788-3.999,3.998-3.999
		s3.999,1.788,3.999,3.999v23.913C163.956,46.117,162.168,47.945,159.957,47.945z"/>
	<path style="fill:#116FFF;" d="M239.928,279.898h-6.794c-2.21,0-3.999-1.789-3.999-3.999s1.789-3.998,3.999-3.998h6.794
		c2.21,0,3.999,1.788,3.999,3.998S242.138,279.898,239.928,279.898z"/>
	<path style="fill:#116FFF;" d="M295.907,311.886c-2.211,0-3.999-1.789-3.999-3.999V171.938c0-2.21,1.788-3.999,3.999-3.999
		c2.21,0,3.998,1.789,3.998,3.999v135.949C299.905,310.097,298.117,311.886,295.907,311.886z"/>
	<path style="fill:#116FFF;" d="M295.907,175.936h-7.997c-2.21,0-3.999-1.788-3.999-3.998s1.789-3.999,3.999-3.999h7.997
		c2.21,0,3.998,1.789,3.998,3.999S298.117,175.936,295.907,175.936z"/>
	<path style="fill:#116FFF;" d="M275.914,247.91c-8.816,0-15.993-7.173-15.993-15.994s7.177-15.994,15.993-15.994
		c8.817,0,15.994,7.173,15.994,15.994S284.731,247.91,275.914,247.91z M275.914,223.919c-4.412,0-7.997,3.589-7.997,7.997
		s3.585,7.997,7.997,7.997c4.413,0,7.997-3.589,7.997-7.997S280.327,223.919,275.914,223.919z"/>
	<path style="fill:#116FFF;" d="M275.914,287.895c-8.816,0-15.993-7.169-15.993-15.994c0-8.821,7.177-15.994,15.993-15.994
		c8.817,0,15.994,7.173,15.994,15.994C291.908,280.726,284.731,287.895,275.914,287.895z M275.914,263.904
		c-4.412,0-7.997,3.592-7.997,7.997c0,4.404,3.585,7.997,7.997,7.997c4.413,0,7.997-3.593,7.997-7.997
		C283.911,267.496,280.327,263.904,275.914,263.904z"/>
	<path style="fill:#116FFF;" d="M275.914,327.881c-8.816,0-15.993-7.17-15.993-15.994c0-8.825,7.177-15.994,15.993-15.994
		c7.7,0,14.144,5.264,15.682,12.8c0.211,1.077,0.313,2.132,0.313,3.194C291.908,320.711,284.731,327.881,275.914,327.881z
		 M275.914,303.889c-4.412,0-7.997,3.592-7.997,7.997c0,4.404,3.585,7.996,7.997,7.996c4.413,0,7.997-3.592,7.997-7.996
		c0-0.547-0.055-1.086-0.156-1.625C282.989,306.521,279.764,303.889,275.914,303.889z"/>
	<path style="fill:#116FFF;" d="M275.914,367.865c-8.816,0-15.993-7.169-15.993-15.994c0-8.824,7.177-15.994,15.993-15.994
		c8.817,0,15.994,7.17,15.994,15.994c0,4.265-1.663,8.278-4.686,11.301C284.239,366.163,280.116,367.865,275.914,367.865z
		 M275.914,343.875c-4.412,0-7.997,3.592-7.997,7.996c0,4.405,3.585,7.998,7.997,7.998c2.101,0,4.163-0.859,5.654-2.352
		c1.507-1.507,2.343-3.521,2.343-5.646C283.911,347.467,280.327,343.875,275.914,343.875z"/>
	<path style="fill:#116FFF;" d="M275.914,407.85c-8.816,0-15.993-7.169-15.993-15.994c0-8.824,7.177-15.994,15.993-15.994
		c8.817,0,15.994,7.17,15.994,15.994C291.908,400.681,284.731,407.85,275.914,407.85z M275.914,383.859
		c-4.412,0-7.997,3.593-7.997,7.997c0,4.405,3.585,7.997,7.997,7.997c4.413,0,7.997-3.592,7.997-7.997
		C283.911,387.452,280.327,383.859,275.914,383.859z"/>
	<path style="fill:#116FFF;" d="M275.914,447.836c-8.816,0-15.993-7.169-15.993-15.994c0-8.824,7.177-15.994,15.993-15.994
		c8.817,0,15.994,7.17,15.994,15.994C291.908,440.667,284.731,447.836,275.914,447.836z M275.914,423.845
		c-4.412,0-7.997,3.593-7.997,7.997s3.585,7.997,7.997,7.997c4.413,0,7.997-3.593,7.997-7.997S280.327,423.845,275.914,423.845z"/>
	<path style="fill:#116FFF;" d="M311.901,391.856c-11.027,0-19.993-8.965-19.993-19.992c0-4.686,1.594-9.075,4.601-12.706
		c0.078-0.094,0.671-0.742,0.757-0.82c4.218-4.357,9.239-6.467,14.636-6.467c11.027,0,19.992,8.966,19.992,19.993
		S322.928,391.856,311.901,391.856z M311.901,359.869c-3.218,0-6.209,1.249-8.411,3.514c-0.016,0.008-0.547,0.586-0.563,0.594
		c-2.069,2.46-3.022,5.092-3.022,7.888c0,6.614,5.381,11.995,11.996,11.995c6.614,0,11.995-5.381,11.995-11.995
		S318.515,359.869,311.901,359.869z"/>
	<path style="fill:#116FFF;" d="M311.901,439.839c-11.027,0-19.993-8.966-19.993-19.992c0-5.287,2.093-10.294,5.881-14.104
		c3.694-3.779,8.716-5.889,14.112-5.889c11.027,0,19.992,8.966,19.992,19.993C331.893,430.873,322.928,439.839,311.901,439.839z
		 M311.901,407.85c-3.218,0-6.209,1.25-8.411,3.515c-2.327,2.327-3.585,5.326-3.585,8.481c0,6.614,5.381,11.995,11.996,11.995
		c6.614,0,11.995-5.381,11.995-11.995C323.896,413.231,318.515,407.85,311.901,407.85z"/>
	<path style="fill:#116FFF;" d="M311.901,375.862c-1.023,0-2.047-0.39-2.827-1.171l-11.277-11.277c-1.562-1.562-1.562-4.092,0-5.654
		c1.562-1.562,4.093-1.562,5.654,0l11.276,11.277c1.563,1.562,1.563,4.092,0,5.654C313.947,375.472,312.924,375.862,311.901,375.862
		z"/>
	<path style="fill:#116FFF;" d="M311.901,423.845c-1.023,0-2.047-0.391-2.827-1.171l-11.277-11.277
		c-1.562-1.563-1.562-4.092,0-5.654s4.093-1.563,5.654,0l11.276,11.277c1.563,1.562,1.563,4.092,0,5.654
		C313.947,423.454,312.924,423.845,311.901,423.845z"/>
	<path style="fill:#116FFF;" d="M262.317,71.975h-6.395c-2.21,0-3.999-1.789-3.999-3.999s1.789-3.998,3.999-3.998h6.395
		c2.211,0,3.999,1.788,3.999,3.998C266.316,70.187,264.528,71.975,262.317,71.975z"/>
</g>
<g>
</g>
<g>
</g>
<g>
</g>
<g>
</g>
<g>
</g>
<g>
</g>
<g>
</g>
<g>
</g>
<g>
</g>
<g>
</g>
<g>
</g>
<g>
</g>
<g>
</g>
<g>
</g>
<g>
</g>
</svg>
