<?xml version="1.0" encoding="iso-8859-1"?>
<!-- Generator: Adobe Illustrator 19.0.0, SVG Export Plug-In . SVG Version: 6.00 Build 0)  -->
<svg version="1.1" id="Capa_1" xmlns="http://www.w3.org/2000/svg" xmlns:xlink="http://www.w3.org/1999/xlink" x="0px" y="0px"
	 viewBox="0 0 511.811 511.811" style="enable-background:new 0 0 511.811 511.811;" xml:space="preserve">
<rect x="51.986" y="271.895" style="fill:#FFFFFF;" width="431.84" height="79.97"/>
<path style="fill:#D7E9FF;" d="M331.878,175.934c8.794,0,15.994,7.197,15.994,15.994c0,8.798-7.2,15.994-15.994,15.994
	c-8.793,0-15.994-7.196-15.994-15.994C315.884,183.131,323.085,175.934,331.878,175.934z"/>
<path style="fill:#FFFFFF;" d="M323.881,191.928c0-7.411,5.131-13.627,11.995-15.424c-1.288-0.336-2.607-0.57-3.998-0.57
	c-8.793,0-15.994,7.197-15.994,15.994c0,8.798,7.201,15.994,15.994,15.994c1.391,0,2.71-0.234,3.998-0.57
	C329.011,205.556,323.881,199.34,323.881,191.928z"/>
<g>
	<path style="fill:#94C1FF;" d="M339.875,191.928c0,7.412-5.131,13.628-11.995,15.424c1.288,0.336,2.607,0.57,3.998,0.57
		c8.794,0,15.994-7.196,15.994-15.994c0-8.797-7.2-15.994-15.994-15.994c-1.391,0-2.71,0.234-3.998,0.57
		C334.744,178.301,339.875,184.517,339.875,191.928z"/>
	<path style="fill:#94C1FF;" d="M491.818,159.94H291.892H19.993c-8.797,0-15.994,7.197-15.994,15.994v159.94
		c0,8.794,7.197,15.994,15.994,15.994h31.988v-79.97h167.938h263.902v79.97h7.997c8.794,0,15.994-7.2,15.994-15.994v-159.94
		C507.812,167.137,500.612,159.94,491.818,159.94z M27.99,319.881c-4.397,0-7.997-3.6-7.997-7.996c0-4.397,3.6-7.997,7.997-7.997
		s7.997,3.6,7.997,7.997C35.988,316.281,32.387,319.881,27.99,319.881z M67.975,231.914H19.993v-47.982h47.982V231.914z
		 M291.892,247.908h-71.973v-71.974h71.973V247.908z M331.878,207.923c-8.793,0-15.994-7.196-15.994-15.994
		c0-8.797,7.201-15.994,15.994-15.994c8.794,0,15.994,7.197,15.994,15.994C347.872,200.726,340.672,207.923,331.878,207.923z"/>
</g>
<path style="fill:#D7E9FF;" d="M11.996,335.875v-159.94c0-8.797,7.197-15.994,15.994-15.994h-7.997
	c-8.797,0-15.994,7.197-15.994,15.994v159.94c0,8.794,7.197,15.994,15.994,15.994h7.997
	C19.193,351.869,11.996,344.669,11.996,335.875z"/>
<path style="fill:#5C9EFF;" d="M491.818,159.94h-7.997c8.794,0,15.994,7.197,15.994,15.994v159.94c0,8.794-7.2,15.994-15.994,15.994
	h7.997c8.794,0,15.994-7.2,15.994-15.994v-159.94C507.812,167.137,500.612,159.94,491.818,159.94z"/>
<g>
	<path style="fill:#116FFF;" d="M124.193,187.93c-2.206,0-4.038-1.789-4.038-3.999c0-2.21,1.75-3.998,3.959-3.998h0.078
		c2.21,0,3.999,1.788,3.999,3.998C128.192,186.142,126.403,187.93,124.193,187.93z"/>
	<path style="fill:#116FFF;" d="M316.126,235.912c-2.21,0-4.037-1.789-4.037-3.999s1.749-3.999,3.951-3.999h0.086
		c2.202,0,3.998,1.789,3.998,3.999S318.328,235.912,316.126,235.912z"/>
	<path style="fill:#116FFF;" d="M332.12,235.912c-2.21,0-4.037-1.789-4.037-3.999s1.749-3.999,3.951-3.999h0.086
		c2.202,0,3.998,1.789,3.998,3.999S334.322,235.912,332.12,235.912z"/>
	<path style="fill:#116FFF;" d="M348.114,235.912c-2.21,0-4.037-1.789-4.037-3.999s1.749-3.999,3.951-3.999h0.086
		c2.202,0,3.998,1.789,3.998,3.999S350.316,235.912,348.114,235.912z"/>
	<path style="fill:#116FFF;" d="M364.108,235.912c-2.21,0-4.038-1.789-4.038-3.999s1.75-3.999,3.952-3.999h0.086
		c2.202,0,3.998,1.789,3.998,3.999S366.31,235.912,364.108,235.912z"/>
	<path style="fill:#116FFF;" d="M380.102,235.912c-2.211,0-4.038-1.789-4.038-3.999s1.749-3.999,3.952-3.999h0.086
		c2.202,0,3.998,1.789,3.998,3.999S382.304,235.912,380.102,235.912z"/>
	<path style="fill:#116FFF;" d="M396.096,235.912c-2.211,0-4.038-1.789-4.038-3.999s1.749-3.999,3.952-3.999h0.086
		c2.202,0,3.998,1.789,3.998,3.999S398.299,235.912,396.096,235.912z"/>
	<path style="fill:#116FFF;" d="M412.091,235.912c-2.211,0-4.038-1.789-4.038-3.999s1.749-3.999,3.952-3.999h0.086
		c2.202,0,3.998,1.789,3.998,3.999S414.293,235.912,412.091,235.912z"/>
	<path style="fill:#116FFF;" d="M428.085,235.912c-2.211,0-4.038-1.789-4.038-3.999s1.749-3.999,3.952-3.999h0.086
		c2.202,0,3.998,1.789,3.998,3.999S430.287,235.912,428.085,235.912z"/>
	<path style="fill:#116FFF;" d="M316.126,251.906c-2.21,0-4.037-1.789-4.037-3.999s1.749-3.999,3.951-3.999h0.086
		c2.202,0,3.998,1.789,3.998,3.999S318.328,251.906,316.126,251.906z"/>
	<path style="fill:#116FFF;" d="M332.12,251.906c-2.21,0-4.037-1.789-4.037-3.999s1.749-3.999,3.951-3.999h0.086
		c2.202,0,3.998,1.789,3.998,3.999S334.322,251.906,332.12,251.906z"/>
	<path style="fill:#116FFF;" d="M348.114,251.906c-2.21,0-4.037-1.789-4.037-3.999s1.749-3.999,3.951-3.999h0.086
		c2.202,0,3.998,1.789,3.998,3.999S350.316,251.906,348.114,251.906z"/>
	<path style="fill:#116FFF;" d="M364.108,251.906c-2.21,0-4.038-1.789-4.038-3.999s1.75-3.999,3.952-3.999h0.086
		c2.202,0,3.998,1.789,3.998,3.999S366.31,251.906,364.108,251.906z"/>
	<path style="fill:#116FFF;" d="M380.102,251.906c-2.211,0-4.038-1.789-4.038-3.999s1.749-3.999,3.952-3.999h0.086
		c2.202,0,3.998,1.789,3.998,3.999S382.304,251.906,380.102,251.906z"/>
	<path style="fill:#116FFF;" d="M396.096,251.906c-2.211,0-4.038-1.789-4.038-3.999s1.749-3.999,3.952-3.999h0.086
		c2.202,0,3.998,1.789,3.998,3.999S398.299,251.906,396.096,251.906z"/>
	<path style="fill:#116FFF;" d="M412.091,251.906c-2.211,0-4.038-1.789-4.038-3.999s1.749-3.999,3.952-3.999h0.086
		c2.202,0,3.998,1.789,3.998,3.999S414.293,251.906,412.091,251.906z"/>
	<path style="fill:#116FFF;" d="M428.085,251.906c-2.211,0-4.038-1.789-4.038-3.999s1.749-3.999,3.952-3.999h0.086
		c2.202,0,3.998,1.789,3.998,3.999S430.287,251.906,428.085,251.906z"/>
	<path style="fill:#116FFF;" d="M332.12,188.367c-2.21,0-4.037-1.789-4.037-3.999s1.749-3.999,3.951-3.999h0.086
		c2.202,0,3.998,1.789,3.998,3.999S334.322,188.367,332.12,188.367z"/>
	<path style="fill:#116FFF;" d="M108.199,187.93c-2.206,0-4.038-1.789-4.038-3.999c0-2.21,1.75-3.998,3.959-3.998h0.078
		c2.21,0,3.999,1.788,3.999,3.998C112.198,186.142,110.409,187.93,108.199,187.93z"/>
	<path style="fill:#116FFF;" d="M92.205,187.93c-2.206,0-4.038-1.789-4.038-3.999c0-2.21,1.75-3.998,3.959-3.998h0.078
		c2.21,0,3.999,1.788,3.999,3.998C96.203,186.142,94.415,187.93,92.205,187.93z"/>
</g>
<path style="fill:#5C9EFF;" d="M27.99,303.887c4.397,0,7.997,3.6,7.997,7.997c0,4.396-3.6,7.996-7.997,7.996s-7.997-3.6-7.997-7.996
	C19.993,307.487,23.594,303.887,27.99,303.887z"/>
<path style="fill:#94C1FF;" d="M43.985,199.926c4.397,0,7.997,3.601,7.997,7.997c0,4.397-3.6,7.997-7.997,7.997
	s-7.997-3.6-7.997-7.997S39.588,199.926,43.985,199.926z"/>
<path style="fill:#D7E9FF;" d="M43.985,215.92c4.397,0,7.997-3.6,7.997-7.997c0-4.396-3.6-7.997-7.997-7.997
	s-7.997,3.601-7.997,7.997C35.988,212.32,39.588,215.92,43.985,215.92z M67.975,183.931v47.982H19.993v-47.982H67.975z"/>
<g>
	<path style="fill:#FFFFFF;" d="M251.907,199.926c0,4.397-3.6,7.997-7.997,7.997s-7.997-3.6-7.997-7.997
		c0-4.396,3.6-7.997,7.997-7.997S251.907,195.529,251.907,199.926z"/>
	<path style="fill:#FFFFFF;" d="M275.898,223.917c0,4.397-3.6,7.997-7.997,7.997c-4.396,0-7.996-3.6-7.996-7.997
		c0-4.396,3.6-7.997,7.996-7.997C272.299,215.92,275.898,219.52,275.898,223.917z"/>
</g>
<path style="fill:#D7E9FF;" d="M267.901,231.914c4.397,0,7.997-3.6,7.997-7.997c0-4.396-3.6-7.997-7.997-7.997
	c-4.396,0-7.996,3.601-7.996,7.997C259.905,228.314,263.505,231.914,267.901,231.914z M219.919,175.934h71.973v71.974h-71.973
	V175.934z M243.91,207.923c4.397,0,7.997-3.6,7.997-7.997c0-4.396-3.6-7.997-7.997-7.997s-7.997,3.601-7.997,7.997
	S239.513,207.923,243.91,207.923z"/>
<g>
	<rect x="67.976" y="271.895" style="fill:#94C1FF;" width="15.994" height="39.985"/>
	<rect x="131.956" y="271.895" style="fill:#94C1FF;" width="15.994" height="39.985"/>
	<rect x="195.926" y="271.895" style="fill:#94C1FF;" width="15.994" height="39.985"/>
	<rect x="259.906" y="271.895" style="fill:#94C1FF;" width="15.993" height="39.985"/>
	<rect x="323.886" y="271.895" style="fill:#94C1FF;" width="15.994" height="39.985"/>
	<rect x="387.856" y="271.895" style="fill:#94C1FF;" width="15.994" height="39.985"/>
	<rect x="451.836" y="271.895" style="fill:#94C1FF;" width="15.994" height="39.985"/>
</g>
<g>
	<path style="fill:#116FFF;" d="M491.818,355.868c-2.21,0-3.998-1.788-3.998-3.999c0-2.21,1.788-3.998,3.998-3.998
		c6.615,0,11.996-5.381,11.996-11.996v-159.94c0-6.614-5.381-11.995-11.996-11.995H19.993c-6.615,0-11.996,5.381-11.996,11.995
		v159.94c0,6.615,5.381,11.996,11.996,11.996c2.21,0,3.999,1.788,3.999,3.998c0,2.211-1.788,3.999-3.999,3.999
		C8.97,355.868,0,346.902,0,335.875v-159.94c0-11.023,8.97-19.992,19.993-19.992h471.825c11.027,0,19.993,8.969,19.993,19.992
		v159.94C511.811,346.902,502.845,355.868,491.818,355.868z"/>
	<path style="fill:#116FFF;" d="M51.981,355.868H19.993c-2.21,0-3.999-1.788-3.999-3.999c0-2.21,1.788-3.998,3.999-3.998h31.988
		c2.21,0,3.999,1.788,3.999,3.998C55.98,354.08,54.192,355.868,51.981,355.868z"/>
	<path style="fill:#116FFF;" d="M51.981,355.868c-2.21,0-3.998-1.788-3.998-3.999v-79.97c0-2.21,1.788-3.999,3.998-3.999
		c2.21,0,3.999,1.789,3.999,3.999v79.97C55.98,354.08,54.192,355.868,51.981,355.868z"/>
	<path style="fill:#116FFF;" d="M483.821,275.897H51.981c-2.21,0-3.998-1.788-3.998-3.998s1.788-3.999,3.998-3.999h431.84
		c2.211,0,3.999,1.789,3.999,3.999S486.032,275.897,483.821,275.897z"/>
	<path style="fill:#116FFF;" d="M67.975,355.868h-7.997c-2.21,0-3.998-1.788-3.998-3.999c0-2.21,1.788-3.998,3.998-3.998h7.997
		c2.21,0,3.999,1.788,3.999,3.998C71.974,354.08,70.186,355.868,67.975,355.868z"/>
	<path style="fill:#116FFF;" d="M67.975,355.868c-2.21,0-3.998-1.788-3.998-3.999v-71.973c0-2.21,1.788-3.999,3.998-3.999
		s3.999,1.789,3.999,3.999v71.973C71.974,354.08,70.186,355.868,67.975,355.868z"/>
	<path style="fill:#116FFF;" d="M83.969,355.868h-7.997c-2.21,0-3.998-1.788-3.998-3.999c0-2.21,1.788-3.998,3.998-3.998h7.997
		c2.21,0,3.999,1.788,3.999,3.998C87.969,354.08,86.179,355.868,83.969,355.868z"/>
	<path style="fill:#116FFF;" d="M99.964,355.868h-7.997c-2.21,0-3.998-1.788-3.998-3.999c0-2.21,1.788-3.998,3.998-3.998h7.997
		c2.21,0,3.999,1.788,3.999,3.998C103.962,354.08,102.174,355.868,99.964,355.868z"/>
	<path style="fill:#116FFF;" d="M99.964,355.868c-2.21,0-3.998-1.788-3.998-3.999v-71.973c0-2.21,1.788-3.999,3.998-3.999
		s3.999,1.789,3.999,3.999v71.973C103.962,354.08,102.174,355.868,99.964,355.868z"/>
	<path style="fill:#116FFF;" d="M115.958,355.868h-7.997c-2.21,0-3.999-1.788-3.999-3.999c0-2.21,1.789-3.998,3.999-3.998h7.997
		c2.21,0,3.999,1.788,3.999,3.998C119.956,354.08,118.168,355.868,115.958,355.868z"/>
	<path style="fill:#116FFF;" d="M115.958,355.868c-2.21,0-3.999-1.788-3.999-3.999v-71.973c0-2.21,1.789-3.999,3.999-3.999
		s3.999,1.789,3.999,3.999v71.973C119.956,354.08,118.168,355.868,115.958,355.868z"/>
	<path style="fill:#116FFF;" d="M131.952,355.868h-7.997c-2.21,0-3.999-1.788-3.999-3.999c0-2.21,1.789-3.998,3.999-3.998h7.997
		c2.21,0,3.999,1.788,3.999,3.998C135.95,354.08,134.162,355.868,131.952,355.868z"/>
	<path style="fill:#116FFF;" d="M131.952,355.868c-2.21,0-3.999-1.788-3.999-3.999v-71.973c0-2.21,1.789-3.999,3.999-3.999
		s3.999,1.789,3.999,3.999v71.973C135.95,354.08,134.162,355.868,131.952,355.868z"/>
	<path style="fill:#116FFF;" d="M147.946,355.868h-7.997c-2.21,0-3.999-1.788-3.999-3.999c0-2.21,1.789-3.998,3.999-3.998h7.997
		c2.21,0,3.999,1.788,3.999,3.998C151.945,354.08,150.156,355.868,147.946,355.868z"/>
	<path style="fill:#116FFF;" d="M163.94,355.868h-7.997c-2.21,0-3.999-1.788-3.999-3.999c0-2.21,1.789-3.998,3.999-3.998h7.997
		c2.21,0,3.998,1.788,3.998,3.998C167.938,354.08,166.15,355.868,163.94,355.868z"/>
	<path style="fill:#116FFF;" d="M163.94,355.868c-2.21,0-3.999-1.788-3.999-3.999v-71.973c0-2.21,1.789-3.999,3.999-3.999
		s3.998,1.789,3.998,3.999v71.973C167.938,354.08,166.15,355.868,163.94,355.868z"/>
	<path style="fill:#116FFF;" d="M179.934,355.868h-7.997c-2.21,0-3.999-1.788-3.999-3.999c0-2.21,1.789-3.998,3.999-3.998h7.997
		c2.21,0,3.998,1.788,3.998,3.998C183.932,354.08,182.144,355.868,179.934,355.868z"/>
	<path style="fill:#116FFF;" d="M179.934,355.868c-2.21,0-3.999-1.788-3.999-3.999v-71.973c0-2.21,1.789-3.999,3.999-3.999
		c2.21,0,3.998,1.789,3.998,3.999v71.973C183.932,354.08,182.144,355.868,179.934,355.868z"/>
	<path style="fill:#116FFF;" d="M195.928,355.868h-7.997c-2.21,0-3.999-1.788-3.999-3.999c0-2.21,1.789-3.998,3.999-3.998h7.997
		c2.21,0,3.998,1.788,3.998,3.998C199.927,354.08,198.138,355.868,195.928,355.868z"/>
	<path style="fill:#116FFF;" d="M195.928,355.868c-2.21,0-3.999-1.788-3.999-3.999v-71.973c0-2.21,1.789-3.999,3.999-3.999
		c2.21,0,3.998,1.789,3.998,3.999v71.973C199.927,354.08,198.138,355.868,195.928,355.868z"/>
	<path style="fill:#116FFF;" d="M211.922,355.868h-7.997c-2.21,0-3.999-1.788-3.999-3.999c0-2.21,1.789-3.998,3.999-3.998h7.997
		c2.21,0,3.999,1.788,3.999,3.998C215.921,354.08,214.133,355.868,211.922,355.868z"/>
	<path style="fill:#116FFF;" d="M227.916,355.868h-7.997c-2.21,0-3.999-1.788-3.999-3.999c0-2.21,1.789-3.998,3.999-3.998h7.997
		c2.21,0,3.999,1.788,3.999,3.998C231.915,354.08,230.127,355.868,227.916,355.868z"/>
	<path style="fill:#116FFF;" d="M243.91,355.868h-7.997c-2.21,0-3.999-1.788-3.999-3.999c0-2.21,1.788-3.998,3.999-3.998h7.997
		c2.21,0,3.999,1.788,3.999,3.998C247.909,354.08,246.12,355.868,243.91,355.868z"/>
	<path style="fill:#116FFF;" d="M243.91,355.868c-2.21,0-3.999-1.788-3.999-3.999v-71.973c0-2.21,1.788-3.999,3.999-3.999
		c2.21,0,3.999,1.789,3.999,3.999v71.973C247.909,354.08,246.12,355.868,243.91,355.868z"/>
	<path style="fill:#116FFF;" d="M227.916,355.868c-2.21,0-3.999-1.788-3.999-3.999v-71.973c0-2.21,1.789-3.999,3.999-3.999
		c2.21,0,3.999,1.789,3.999,3.999v71.973C231.915,354.08,230.127,355.868,227.916,355.868z"/>
	<path style="fill:#116FFF;" d="M259.905,355.868h-7.998c-2.21,0-3.999-1.788-3.999-3.999c0-2.21,1.788-3.998,3.999-3.998h7.998
		c2.209,0,3.998,1.788,3.998,3.998C263.903,354.08,262.114,355.868,259.905,355.868z"/>
	<path style="fill:#116FFF;" d="M259.905,355.868c-2.211,0-3.999-1.788-3.999-3.999v-71.973c0-2.21,1.788-3.999,3.999-3.999
		c2.209,0,3.998,1.789,3.998,3.999v71.973C263.903,354.08,262.114,355.868,259.905,355.868z"/>
	<path style="fill:#116FFF;" d="M275.898,355.868h-7.997c-2.21,0-3.998-1.788-3.998-3.999c0-2.21,1.788-3.998,3.998-3.998h7.997
		c2.21,0,3.999,1.788,3.999,3.998C279.897,354.08,278.108,355.868,275.898,355.868z"/>
	<path style="fill:#116FFF;" d="M291.892,355.868h-7.997c-2.21,0-3.998-1.788-3.998-3.999c0-2.21,1.788-3.998,3.998-3.998h7.997
		c2.21,0,3.999,1.788,3.999,3.998C295.891,354.08,294.102,355.868,291.892,355.868z"/>
	<path style="fill:#116FFF;" d="M291.892,355.868c-2.21,0-3.998-1.788-3.998-3.999v-71.973c0-2.21,1.788-3.999,3.998-3.999
		s3.999,1.789,3.999,3.999v71.973C295.891,354.08,294.102,355.868,291.892,355.868z"/>
	<path style="fill:#116FFF;" d="M307.886,355.868h-7.997c-2.21,0-3.998-1.788-3.998-3.999c0-2.21,1.788-3.998,3.998-3.998h7.997
		c2.21,0,3.999,1.788,3.999,3.998C311.885,354.08,310.096,355.868,307.886,355.868z"/>
	<path style="fill:#116FFF;" d="M307.886,355.868c-2.21,0-3.998-1.788-3.998-3.999v-71.973c0-2.21,1.788-3.999,3.998-3.999
		s3.999,1.789,3.999,3.999v71.973C311.885,354.08,310.096,355.868,307.886,355.868z"/>
	<path style="fill:#116FFF;" d="M323.881,355.868h-7.997c-2.21,0-3.998-1.788-3.998-3.999c0-2.21,1.788-3.998,3.998-3.998h7.997
		c2.21,0,3.999,1.788,3.999,3.998C327.88,354.08,326.091,355.868,323.881,355.868z"/>
	<path style="fill:#116FFF;" d="M323.881,355.868c-2.21,0-3.999-1.788-3.999-3.999v-71.973c0-2.21,1.789-3.999,3.999-3.999
		s3.999,1.789,3.999,3.999v71.973C327.88,354.08,326.091,355.868,323.881,355.868z"/>
	<path style="fill:#116FFF;" d="M339.875,355.868h-7.997c-2.21,0-3.998-1.788-3.998-3.999c0-2.21,1.788-3.998,3.998-3.998h7.997
		c2.21,0,3.999,1.788,3.999,3.998C343.874,354.08,342.085,355.868,339.875,355.868z"/>
	<path style="fill:#116FFF;" d="M355.869,355.868h-7.997c-2.21,0-3.998-1.788-3.998-3.999c0-2.21,1.788-3.998,3.998-3.998h7.997
		c2.21,0,3.999,1.788,3.999,3.998C359.868,354.08,358.079,355.868,355.869,355.868z"/>
	<path style="fill:#116FFF;" d="M355.869,355.868c-2.21,0-3.999-1.788-3.999-3.999v-71.973c0-2.21,1.789-3.999,3.999-3.999
		s3.999,1.789,3.999,3.999v71.973C359.868,354.08,358.079,355.868,355.869,355.868z"/>
	<path style="fill:#116FFF;" d="M371.863,355.868h-7.997c-2.21,0-3.998-1.788-3.998-3.999c0-2.21,1.788-3.998,3.998-3.998h7.997
		c2.21,0,3.998,1.788,3.998,3.998C375.861,354.08,374.073,355.868,371.863,355.868z"/>
	<path style="fill:#116FFF;" d="M371.863,355.868c-2.21,0-3.999-1.788-3.999-3.999v-71.973c0-2.21,1.789-3.999,3.999-3.999
		s3.998,1.789,3.998,3.999v71.973C375.861,354.08,374.073,355.868,371.863,355.868z"/>
	<path style="fill:#116FFF;" d="M387.857,355.868h-7.997c-2.21,0-3.999-1.788-3.999-3.999c0-2.21,1.789-3.998,3.999-3.998h7.997
		c2.21,0,3.998,1.788,3.998,3.998C391.855,354.08,390.067,355.868,387.857,355.868z"/>
	<path style="fill:#116FFF;" d="M387.857,355.868c-2.21,0-3.999-1.788-3.999-3.999v-71.973c0-2.21,1.789-3.999,3.999-3.999
		s3.998,1.789,3.998,3.999v71.973C391.855,354.08,390.067,355.868,387.857,355.868z"/>
	<path style="fill:#116FFF;" d="M403.851,355.868h-7.997c-2.211,0-3.999-1.788-3.999-3.999c0-2.21,1.788-3.998,3.999-3.998h7.997
		c2.21,0,3.998,1.788,3.998,3.998C407.849,354.08,406.061,355.868,403.851,355.868z"/>
	<path style="fill:#116FFF;" d="M419.845,355.868h-7.997c-2.211,0-3.999-1.788-3.999-3.999c0-2.21,1.788-3.998,3.999-3.998h7.997
		c2.21,0,3.998,1.788,3.998,3.998C423.844,354.08,422.055,355.868,419.845,355.868z"/>
	<path style="fill:#116FFF;" d="M419.845,355.868c-2.21,0-3.999-1.788-3.999-3.999v-71.973c0-2.21,1.789-3.999,3.999-3.999
		s3.998,1.789,3.998,3.999v71.973C423.844,354.08,422.055,355.868,419.845,355.868z"/>
	<path style="fill:#116FFF;" d="M435.839,355.868h-7.996c-2.211,0-3.999-1.788-3.999-3.999c0-2.21,1.788-3.998,3.999-3.998h7.996
		c2.211,0,3.999,1.788,3.999,3.998C439.838,354.08,438.05,355.868,435.839,355.868z"/>
	<path style="fill:#116FFF;" d="M435.839,355.868c-2.209,0-3.998-1.788-3.998-3.999v-71.973c0-2.21,1.789-3.999,3.998-3.999
		c2.211,0,3.999,1.789,3.999,3.999v71.973C439.838,354.08,438.05,355.868,435.839,355.868z"/>
	<path style="fill:#116FFF;" d="M451.833,355.868h-7.996c-2.211,0-3.999-1.788-3.999-3.999c0-2.21,1.788-3.998,3.999-3.998h7.996
		c2.211,0,3.999,1.788,3.999,3.998C455.832,354.08,454.044,355.868,451.833,355.868z"/>
	<path style="fill:#116FFF;" d="M451.833,355.868c-2.21,0-3.998-1.788-3.998-3.999v-71.973c0-2.21,1.788-3.999,3.998-3.999
		c2.211,0,3.999,1.789,3.999,3.999v71.973C455.832,354.08,454.044,355.868,451.833,355.868z"/>
	<path style="fill:#116FFF;" d="M467.827,355.868h-7.996c-2.211,0-3.999-1.788-3.999-3.999c0-2.21,1.788-3.998,3.999-3.998h7.996
		c2.211,0,3.999,1.788,3.999,3.998C471.826,354.08,470.038,355.868,467.827,355.868z"/>
	<path style="fill:#116FFF;" d="M483.821,355.868h-7.996c-2.211,0-3.999-1.788-3.999-3.999c0-2.21,1.788-3.998,3.999-3.998h7.996
		c2.211,0,3.999,1.788,3.999,3.998C487.82,354.08,486.032,355.868,483.821,355.868z"/>
	<path style="fill:#116FFF;" d="M483.821,355.868c-2.21,0-3.998-1.788-3.998-3.999v-79.97c0-2.21,1.788-3.999,3.998-3.999
		c2.211,0,3.999,1.789,3.999,3.999v79.97C487.82,354.08,486.032,355.868,483.821,355.868z"/>
	<path style="fill:#116FFF;" d="M27.99,323.88c-6.615,0-11.996-5.381-11.996-11.995c0-6.615,5.381-11.996,11.996-11.996
		s11.996,5.381,11.996,11.996C39.986,318.499,34.605,323.88,27.99,323.88z M27.99,307.885c-2.207,0-3.999,1.796-3.999,3.999
		c0,2.202,1.792,3.998,3.999,3.998s3.999-1.796,3.999-3.998C31.989,309.681,30.197,307.885,27.99,307.885z"/>
	<path style="fill:#116FFF;" d="M35.988,291.891H20.473c-2.21,0-3.998-1.788-3.998-3.998s1.788-3.999,3.998-3.999h15.514
		c2.21,0,3.999,1.789,3.999,3.999S38.198,291.891,35.988,291.891z"/>
	<path style="fill:#116FFF;" d="M35.988,275.897H19.993c-2.21,0-3.999-1.788-3.999-3.998s1.788-3.999,3.999-3.999h15.994
		c2.21,0,3.999,1.789,3.999,3.999S38.198,275.897,35.988,275.897z"/>
	<path style="fill:#116FFF;" d="M291.892,251.906h-71.973c-2.21,0-3.999-1.789-3.999-3.999v-71.974c0-2.21,1.789-3.998,3.999-3.998
		h71.973c2.21,0,3.999,1.788,3.999,3.998v71.974C295.891,250.118,294.102,251.906,291.892,251.906z M223.918,243.909h63.977v-63.976
		h-63.977L223.918,243.909L223.918,243.909z"/>
	<path style="fill:#116FFF;" d="M275.898,203.925h-23.991c-2.21,0-3.999-1.789-3.999-3.999s1.788-3.998,3.999-3.998h23.991
		c2.21,0,3.999,1.788,3.999,3.998S278.108,203.925,275.898,203.925z"/>
	<path style="fill:#116FFF;" d="M243.91,211.921c-6.615,0-11.996-5.38-11.996-11.996c0-6.614,5.381-11.995,11.996-11.995
		s11.996,5.381,11.996,11.996C255.906,206.541,250.525,211.921,243.91,211.921z M243.91,195.927c-2.207,0-3.999,1.792-3.999,3.998
		s1.792,3.999,3.999,3.999c2.206,0,3.999-1.793,3.999-3.999S246.116,195.927,243.91,195.927z"/>
	<path style="fill:#116FFF;" d="M259.905,227.915h-23.992c-2.21,0-3.999-1.789-3.999-3.999s1.788-3.999,3.999-3.999h23.992
		c2.209,0,3.998,1.789,3.998,3.999S262.114,227.915,259.905,227.915z"/>
	<path style="fill:#116FFF;" d="M267.901,235.912c-6.614,0-11.995-5.381-11.995-11.996s5.381-11.996,11.995-11.996
		c6.615,0,11.996,5.381,11.996,11.996S274.516,235.912,267.901,235.912z M267.901,219.918c-2.202,0-3.998,1.792-3.998,3.999
		s1.796,3.999,3.998,3.999c2.203,0,3.999-1.792,3.999-3.999S270.104,219.918,267.901,219.918z"/>
	<path style="fill:#116FFF;" d="M67.975,235.912H19.993c-2.21,0-3.999-1.789-3.999-3.999v-47.982c0-2.21,1.788-3.998,3.999-3.998
		h47.982c2.21,0,3.999,1.788,3.999,3.998v47.982C71.974,234.124,70.186,235.912,67.975,235.912z M23.992,227.915h39.985V187.93
		H23.992V227.915z"/>
	<path style="fill:#116FFF;" d="M67.975,251.906H20.473c-2.21,0-3.998-1.789-3.998-3.999s1.788-3.999,3.998-3.999h47.502
		c2.21,0,3.999,1.789,3.999,3.999S70.186,251.906,67.975,251.906z"/>
	<path style="fill:#116FFF;" d="M43.985,219.918c-6.615,0-11.996-5.381-11.996-11.996c0-6.614,5.381-11.995,11.996-11.995
		c6.615,0,11.996,5.381,11.996,11.995C55.98,214.537,50.599,219.918,43.985,219.918z M43.985,203.925
		c-2.207,0-3.999,1.792-3.999,3.998s1.792,3.999,3.999,3.999c2.206,0,3.999-1.792,3.999-3.999S46.191,203.925,43.985,203.925z"/>
	<path style="fill:#116FFF;" d="M99.964,219.918h-7.997c-2.21,0-3.998-1.789-3.998-3.999s1.788-3.999,3.998-3.999h7.997
		c2.21,0,3.999,1.789,3.999,3.999S102.174,219.918,99.964,219.918z"/>
	<path style="fill:#116FFF;" d="M99.964,235.912h-7.997c-2.21,0-3.998-1.789-3.998-3.999s1.788-3.999,3.998-3.999h7.997
		c2.21,0,3.999,1.789,3.999,3.999S102.174,235.912,99.964,235.912z"/>
	<path style="fill:#116FFF;" d="M99.964,251.906h-7.997c-2.21,0-3.998-1.789-3.998-3.999s1.788-3.999,3.998-3.999h7.997
		c2.21,0,3.999,1.789,3.999,3.999S102.174,251.906,99.964,251.906z"/>
	<path style="fill:#116FFF;" d="M123.955,219.918h-7.997c-2.21,0-3.999-1.789-3.999-3.999s1.789-3.999,3.999-3.999h7.997
		c2.21,0,3.999,1.789,3.999,3.999S126.165,219.918,123.955,219.918z"/>
	<path style="fill:#116FFF;" d="M123.955,235.912h-7.997c-2.21,0-3.999-1.789-3.999-3.999s1.789-3.999,3.999-3.999h7.997
		c2.21,0,3.999,1.789,3.999,3.999S126.165,235.912,123.955,235.912z"/>
	<path style="fill:#116FFF;" d="M123.955,251.906h-7.997c-2.21,0-3.999-1.789-3.999-3.999s1.789-3.999,3.999-3.999h7.997
		c2.21,0,3.999,1.789,3.999,3.999S126.165,251.906,123.955,251.906z"/>
	<path style="fill:#116FFF;" d="M147.946,219.918h-7.997c-2.21,0-3.999-1.789-3.999-3.999s1.789-3.999,3.999-3.999h7.997
		c2.21,0,3.999,1.789,3.999,3.999S150.156,219.918,147.946,219.918z"/>
	<path style="fill:#116FFF;" d="M147.946,235.912h-7.997c-2.21,0-3.999-1.789-3.999-3.999s1.789-3.999,3.999-3.999h7.997
		c2.21,0,3.999,1.789,3.999,3.999S150.156,235.912,147.946,235.912z"/>
	<path style="fill:#116FFF;" d="M147.946,251.906h-7.997c-2.21,0-3.999-1.789-3.999-3.999s1.789-3.999,3.999-3.999h7.997
		c2.21,0,3.999,1.789,3.999,3.999S150.156,251.906,147.946,251.906z"/>
	<path style="fill:#116FFF;" d="M171.937,219.918h-7.997c-2.21,0-3.999-1.789-3.999-3.999s1.789-3.999,3.999-3.999h7.997
		c2.21,0,3.998,1.789,3.998,3.999S174.147,219.918,171.937,219.918z"/>
	<path style="fill:#116FFF;" d="M171.937,235.912h-7.997c-2.21,0-3.999-1.789-3.999-3.999s1.789-3.999,3.999-3.999h7.997
		c2.21,0,3.998,1.789,3.998,3.999S174.147,235.912,171.937,235.912z"/>
	<path style="fill:#116FFF;" d="M171.937,251.906h-7.997c-2.21,0-3.999-1.789-3.999-3.999s1.789-3.999,3.999-3.999h7.997
		c2.21,0,3.998,1.789,3.998,3.999S174.147,251.906,171.937,251.906z"/>
	<path style="fill:#116FFF;" d="M195.928,219.918h-7.997c-2.21,0-3.999-1.789-3.999-3.999s1.789-3.999,3.999-3.999h7.997
		c2.21,0,3.998,1.789,3.998,3.999S198.138,219.918,195.928,219.918z"/>
	<path style="fill:#116FFF;" d="M427.843,203.925h-7.997c-2.21,0-3.999-1.789-3.999-3.999s1.789-3.998,3.999-3.998h7.997
		c2.21,0,3.998,1.788,3.998,3.998S430.052,203.925,427.843,203.925z"/>
	<path style="fill:#116FFF;" d="M403.851,203.925h-7.997c-2.211,0-3.999-1.789-3.999-3.999s1.788-3.998,3.999-3.998h7.997
		c2.21,0,3.998,1.788,3.998,3.998S406.061,203.925,403.851,203.925z"/>
	<path style="fill:#116FFF;" d="M379.86,203.925h-7.997c-2.21,0-3.999-1.789-3.999-3.999s1.789-3.998,3.999-3.998h7.997
		c2.21,0,3.998,1.788,3.998,3.998S382.07,203.925,379.86,203.925z"/>
	<path style="fill:#116FFF;" d="M427.843,187.93h-7.997c-2.21,0-3.999-1.789-3.999-3.999c0-2.21,1.789-3.998,3.999-3.998h7.997
		c2.21,0,3.998,1.788,3.998,3.998C431.841,186.142,430.052,187.93,427.843,187.93z"/>
	<path style="fill:#116FFF;" d="M403.851,187.93h-7.997c-2.211,0-3.999-1.789-3.999-3.999c0-2.21,1.788-3.998,3.999-3.998h7.997
		c2.21,0,3.998,1.788,3.998,3.998C407.849,186.142,406.061,187.93,403.851,187.93z"/>
	<path style="fill:#116FFF;" d="M379.86,187.93h-7.997c-2.21,0-3.999-1.789-3.999-3.999c0-2.21,1.789-3.998,3.999-3.998h7.997
		c2.21,0,3.998,1.788,3.998,3.998C383.858,186.142,382.07,187.93,379.86,187.93z"/>
	<path style="fill:#116FFF;" d="M195.928,235.912h-7.997c-2.21,0-3.999-1.789-3.999-3.999s1.789-3.999,3.999-3.999h7.997
		c2.21,0,3.998,1.789,3.998,3.999S198.138,235.912,195.928,235.912z"/>
	<path style="fill:#116FFF;" d="M195.928,251.906h-7.997c-2.21,0-3.999-1.789-3.999-3.999s1.789-3.999,3.999-3.999h7.997
		c2.21,0,3.998,1.789,3.998,3.999S198.138,251.906,195.928,251.906z"/>
	<path style="fill:#116FFF;" d="M195.928,187.93h-55.979c-2.21,0-3.999-1.789-3.999-3.999c0-2.21,1.789-3.998,3.999-3.998h55.979
		c2.21,0,3.998,1.788,3.998,3.998C199.927,186.142,198.138,187.93,195.928,187.93z"/>
	<path style="fill:#116FFF;" d="M155.943,195.927c-2.21,0-3.999-1.789-3.999-3.999v-15.115c0-2.21,1.789-3.999,3.999-3.999
		s3.998,1.789,3.998,3.999v15.115C159.941,194.138,158.153,195.927,155.943,195.927z"/>
	<path style="fill:#116FFF;" d="M331.878,211.921c-11.027,0-19.992-8.969-19.992-19.993c0-11.023,8.965-19.992,19.992-19.992
		s19.992,8.969,19.992,19.992C351.87,202.952,342.905,211.921,331.878,211.921z M331.878,179.933
		c-6.615,0-11.996,5.381-11.996,11.995c0,6.615,5.381,11.996,11.996,11.996s11.996-5.381,11.996-11.996
		C343.874,185.314,338.493,179.933,331.878,179.933z"/>
	<path style="fill:#116FFF;" d="M475.825,251.906c-2.211,0-3.999-1.789-3.999-3.999V183.93c0-2.21,1.788-3.998,3.999-3.998
		c2.209,0,3.998,1.788,3.998,3.998v63.977C479.823,250.118,478.034,251.906,475.825,251.906z"/>
	<path style="fill:#116FFF;" d="M483.821,203.925h-15.994c-2.21,0-3.998-1.789-3.998-3.999s1.788-3.998,3.998-3.998h15.994
		c2.211,0,3.999,1.788,3.999,3.998S486.032,203.925,483.821,203.925z"/>
	<path style="fill:#116FFF;" d="M451.833,251.906c-2.21,0-3.998-1.789-3.998-3.999V183.93c0-2.21,1.788-3.998,3.998-3.998
		c2.211,0,3.999,1.788,3.999,3.998v63.977C455.832,250.118,454.044,251.906,451.833,251.906z"/>
	<path style="fill:#116FFF;" d="M459.831,235.912h-15.994c-2.211,0-3.999-1.789-3.999-3.999s1.788-3.999,3.999-3.999h15.994
		c2.209,0,3.998,1.789,3.998,3.999S462.04,235.912,459.831,235.912z"/>
	<path style="fill:#116FFF;" d="M83.969,355.868c-2.21,0-3.998-1.788-3.998-3.999v-71.973c0-2.21,1.788-3.999,3.998-3.999
		s3.999,1.789,3.999,3.999v71.973C87.969,354.08,86.179,355.868,83.969,355.868z"/>
	<path style="fill:#116FFF;" d="M83.969,315.883h-7.997c-2.21,0-3.998-1.788-3.998-3.998c0-2.211,1.788-3.999,3.998-3.999h7.997
		c2.21,0,3.999,1.788,3.999,3.999C87.969,314.094,86.179,315.883,83.969,315.883z"/>
	<path style="fill:#116FFF;" d="M147.946,315.883h-7.997c-2.21,0-3.999-1.788-3.999-3.998c0-2.211,1.789-3.999,3.999-3.999h7.997
		c2.21,0,3.999,1.788,3.999,3.999C151.945,314.094,150.156,315.883,147.946,315.883z"/>
	<path style="fill:#116FFF;" d="M211.922,315.883h-7.997c-2.21,0-3.999-1.788-3.999-3.998c0-2.211,1.789-3.999,3.999-3.999h7.997
		c2.21,0,3.999,1.788,3.999,3.999C215.921,314.094,214.133,315.883,211.922,315.883z"/>
	<path style="fill:#116FFF;" d="M275.898,315.883h-7.997c-2.21,0-3.998-1.788-3.998-3.998c0-2.211,1.788-3.999,3.998-3.999h7.997
		c2.21,0,3.999,1.788,3.999,3.999C279.897,314.094,278.108,315.883,275.898,315.883z"/>
	<path style="fill:#116FFF;" d="M339.875,315.883h-7.997c-2.21,0-3.998-1.788-3.998-3.998c0-2.211,1.788-3.999,3.998-3.999h7.997
		c2.21,0,3.999,1.788,3.999,3.999C343.874,314.094,342.085,315.883,339.875,315.883z"/>
	<path style="fill:#116FFF;" d="M403.851,315.883h-7.997c-2.211,0-3.999-1.788-3.999-3.998c0-2.211,1.788-3.999,3.999-3.999h7.997
		c2.21,0,3.998,1.788,3.998,3.999C407.849,314.094,406.061,315.883,403.851,315.883z"/>
	<path style="fill:#116FFF;" d="M467.827,315.883h-7.996c-2.211,0-3.999-1.788-3.999-3.998c0-2.211,1.788-3.999,3.999-3.999h7.996
		c2.211,0,3.999,1.788,3.999,3.999C471.826,314.094,470.038,315.883,467.827,315.883z"/>
	<path style="fill:#116FFF;" d="M147.946,355.868c-2.21,0-3.999-1.788-3.999-3.999v-71.973c0-2.21,1.789-3.999,3.999-3.999
		s3.999,1.789,3.999,3.999v71.973C151.945,354.08,150.156,355.868,147.946,355.868z"/>
	<path style="fill:#116FFF;" d="M211.922,355.868c-2.21,0-3.999-1.788-3.999-3.999v-71.973c0-2.21,1.789-3.999,3.999-3.999
		c2.21,0,3.999,1.789,3.999,3.999v71.973C215.921,354.08,214.133,355.868,211.922,355.868z"/>
	<path style="fill:#116FFF;" d="M275.898,355.868c-2.21,0-3.998-1.788-3.998-3.999v-71.973c0-2.21,1.788-3.999,3.998-3.999
		s3.999,1.789,3.999,3.999v71.973C279.897,354.08,278.108,355.868,275.898,355.868z"/>
	<path style="fill:#116FFF;" d="M339.875,355.868c-2.21,0-3.999-1.788-3.999-3.999v-71.973c0-2.21,1.789-3.999,3.999-3.999
		s3.999,1.789,3.999,3.999v71.973C343.874,354.08,342.085,355.868,339.875,355.868z"/>
	<path style="fill:#116FFF;" d="M403.851,355.868c-2.21,0-3.999-1.788-3.999-3.999v-71.973c0-2.21,1.789-3.999,3.999-3.999
		s3.998,1.789,3.998,3.999v71.973C407.849,354.08,406.061,355.868,403.851,355.868z"/>
	<path style="fill:#116FFF;" d="M467.827,355.868c-2.21,0-3.998-1.788-3.998-3.999v-71.973c0-2.21,1.788-3.999,3.998-3.999
		c2.211,0,3.999,1.789,3.999,3.999v71.973C471.826,354.08,470.038,355.868,467.827,355.868z"/>
</g>
<g>
</g>
<g>
</g>
<g>
</g>
<g>
</g>
<g>
</g>
<g>
</g>
<g>
</g>
<g>
</g>
<g>
</g>
<g>
</g>
<g>
</g>
<g>
</g>
<g>
</g>
<g>
</g>
<g>
</g>
</svg>
