<?xml version="1.0" encoding="iso-8859-1"?>
<!-- Generator: Adobe Illustrator 19.0.0, SVG Export Plug-In . SVG Version: 6.00 Build 0)  -->
<svg version="1.1" id="Capa_1" xmlns="http://www.w3.org/2000/svg" xmlns:xlink="http://www.w3.org/1999/xlink" x="0px" y="0px"
	 viewBox="0 0 511.999 511.999" style="enable-background:new 0 0 511.999 511.999;" xml:space="preserve">
<g>
	<polygon style="fill:#D7E9FF;" points="170.812,290.292 153.819,307.286 187.752,341.218 204.737,324.225 	"/>
	
		<rect x="195.546" y="263.499" transform="matrix(-0.7072 0.707 -0.707 -0.7072 557.607 344.0574)" style="fill:#D7E9FF;" width="24.03" height="47.982"/>
	<polygon style="fill:#D7E9FF;" points="227.378,233.723 210.392,250.717 244.316,284.645 261.311,267.651 	"/>
	<polygon style="fill:#D7E9FF;" points="261.287,358.149 261.342,358.095 272.649,369.403 272.595,369.458 261.287,380.774 
		249.978,369.458 	"/>
	<polygon style="fill:#D7E9FF;" points="289.675,329.762 300.991,341.069 289.62,352.44 278.304,341.132 	"/>
	<polygon style="fill:#D7E9FF;" points="187.775,284.638 187.83,284.583 199.138,295.892 199.083,295.946 187.775,307.263 
		176.467,295.946 	"/>
	<polygon style="fill:#D7E9FF;" points="216.163,256.25 227.472,267.558 216.108,278.929 204.792,267.62 	"/>
</g>
<path style="fill:#656D78;" d="M148.196,267.675c3.108,3.108,1.866,9.442-2.835,14.136c-4.686,4.693-11.027,5.936-14.136,2.827
	s-1.866-9.441,2.827-14.135C138.746,265.809,145.08,264.567,148.196,267.675z"/>
<path style="fill:#94C1FF;" d="M170.812,290.292c3.108,3.108,1.866,9.441-2.827,14.143c-4.467,4.468-10.457,5.818-13.69,3.163
	c-0.164-0.055-0.335-0.226-0.444-0.335c-3.171-3.171-1.867-9.45,2.827-14.144C161.371,288.425,167.704,287.184,170.812,290.292z"/>
<path style="fill:#656D78;" d="M176.521,239.346c3.108,3.108,1.812,9.497-2.882,14.19c-4.693,4.693-11.027,5.936-14.136,2.827
	c-3.107-3.108-1.866-9.442,2.827-14.136C167.025,237.534,173.413,236.234,176.521,239.346z"/>
<g>
	<path style="fill:#94C1FF;" d="M185.003,264.794c4.693-4.698,10.973-5.998,14.08-2.777c3.108,3.113,1.867,9.446-2.827,14.14
		c-4.467,4.468-10.457,5.818-13.682,3.171c-0.172-0.063-0.336-0.227-0.453-0.344c-3.108-3.108-1.866-9.441,2.827-14.135
		L185.003,264.794z"/>
	<path style="fill:#94C1FF;" d="M224.59,247.827c-4.468,4.467-10.465,5.822-13.628,3.218c-0.172-0.051-0.344-0.223-0.516-0.391
		c-3.163-3.167-1.858-9.442,2.827-14.136c4.701-4.697,10.973-5.998,14.144-2.831C230.524,236.8,229.283,243.134,224.59,247.827z"/>
</g>
<path style="fill:#656D78;" d="M204.792,211.071c3.108,3.108,1.867,9.442-2.827,14.135c-4.693,4.694-11.027,5.939-14.135,2.827
	c-3.108-3.108-1.867-9.442,2.827-14.135C195.351,209.205,201.684,207.963,204.792,211.071z"/>
<g>
	<path style="fill:#FFFFFF;" d="M148.196,267.675c3.108,3.108,1.866,9.442-2.835,14.136c-4.686,4.693-11.027,5.936-14.136,2.827
		s-1.866-9.441,2.827-14.135C138.746,265.809,145.08,264.567,148.196,267.675z"/>
	<path style="fill:#FFFFFF;" d="M176.521,239.346c3.108,3.108,1.812,9.497-2.882,14.19c-4.693,4.693-11.027,5.936-14.136,2.827
		c-3.107-3.108-1.866-9.442,2.827-14.136C167.025,237.534,173.413,236.234,176.521,239.346z"/>
	<path style="fill:#FFFFFF;" d="M204.792,211.071c3.108,3.108,1.867,9.442-2.827,14.135c-4.693,4.694-11.027,5.939-14.135,2.827
		c-3.108-3.108-1.867-9.442,2.827-14.135C195.351,209.205,201.684,207.963,204.792,211.071z"/>
</g>
<path style="fill:#D7E9FF;" d="M238.553,233.633C405.601,66.59,377.213,4.726,377.213,4.726c4.693-4.693,31.27,14.308,59.368,42.414
	c28.107,28.103,47.107,54.679,42.414,59.373c0,0-61.859-28.388-228.907,138.655l-5.592,5.6l-11.542-11.535L238.553,233.633z"/>
<path style="fill:#FFFFFF;" d="M382.867,10.384c4.529-4.537,29.489,13.069,56.525,39.603c-0.937-0.945-1.851-1.894-2.812-2.847
	c-28.099-28.106-54.675-47.107-59.368-42.414c0,0,28.388,61.864-138.66,228.908l-5.599,5.599l5.653,5.654l5.6-5.6
	C411.255,72.244,382.867,10.384,382.867,10.384z"/>
<polygon style="fill:#94C1FF;" points="54.887,474.075 66.203,485.384 60.541,502.346 54.887,508 32.27,485.384 37.925,479.729 "/>
<g>
	<polygon style="fill:#D7E9FF;" points="37.925,479.729 32.27,485.384 37.925,491.038 43.578,485.384 60.541,479.729 
		54.887,474.075 	"/>
	<path style="fill:#D7E9FF;" d="M272.649,369.403l16.971,16.971l-0.063,0.054c3.116,3.108,9.449,1.867,14.144-2.827
		c4.693-4.693,5.989-11.089,2.882-14.197l-16.963-16.963l-45.241-45.232l-16.962,16.962L272.649,369.403z"/>
	<path style="fill:#D7E9FF;" d="M300.952,341.101l16.971,16.971l-0.063,0.055c3.107,3.108,9.449,1.867,14.143-2.827
		c4.693-4.693,5.99-11.081,2.882-14.198l-16.962-16.962l-45.242-45.233l-16.962,16.963L300.952,341.101z"/>
	<path style="fill:#D7E9FF;" d="M244.348,397.705l16.971,16.971l-0.055,0.054c3.108,3.109,9.441,1.867,14.136-2.826
		c4.693-4.701,5.989-11.09,2.881-14.198l-16.962-16.962l-45.241-45.241l-16.963,16.97L244.348,397.705z"/>
	<path style="fill:#D7E9FF;" d="M233.047,386.459c-17.345,17.408-41.844,42.001-42.327,42.492
		c-17.189,17.182-45.022,17.182-62.204,0c-0.991-0.999-1.921-2.03-2.796-3.093l-11.339,11.348l5.653,5.654
		c23.522,20.695,59.377,19.789,81.876-2.718l42.414-42.406L233.047,386.459z"/>
</g>
<g>
	<path style="fill:#94C1FF;" d="M125.72,425.858l-0.008,0.016c0.039,0.031,0.078,0.078,0.125,0.109
		C125.806,425.937,125.759,425.905,125.72,425.858z"/>
	<path style="fill:#94C1FF;" d="M114.381,437.206l5.653,5.654c23.522,20.695,59.377,19.789,81.876-2.718l45.21-45.21l-5.654-5.654
		l-45.21,45.21C173.757,456.995,137.903,457.901,114.381,437.206z"/>
</g>
<path style="fill:#D7E9FF;" d="M117.629,411.333c-4.998-15.252-1.476-32.684,10.66-44.812c0.484-0.484,25.077-24.983,42.492-42.328
	l-11.277-11.277l-42.413,42.406c-18.485,18.493-22.367,45.976-11.699,68.248L117.629,411.333z"/>
<path style="fill:#FFFFFF;" d="M117.091,355.322c-16.291,16.291-21.242,39.579-14.878,60.11l3.601-3.592
	c-2.585-18.018,3.046-36.971,16.931-50.864l42.414-42.406l-5.654-5.654L117.091,355.322z"/>
<path style="fill:#D7E9FF;" d="M357.423,171.543l-0.117,0.109L54.887,474.075l11.316,11.309l48.178-48.178l131.264-131.264
	l10.105-10.105l45.124-45.128l62.203-62.204l5.545-5.541c9.379-9.384,24.538-9.392,33.925,0c9.388,9.387,9.38,24.545,0,33.925
	l-95.94,95.94l11.316,11.309l96.042-96.05c15.604-15.604,15.604-40.938,0-56.545S373.026,155.936,357.423,171.543z"/>
<path style="fill:#94C1FF;" d="M408.311,222.435l-98.894,98.9l5.654,5.654l98.894-98.901c15.604-15.604,15.604-40.938,0-56.545
	c-0.969-0.969-2.069-1.695-3.116-2.542C423.68,184.698,422.954,207.795,408.311,222.435z"/>
<path style="fill:#FFFFFF;" d="M363.077,177.197c14.636-14.639,37.736-15.365,53.434-2.538c-0.852-1.047-1.578-2.148-2.546-3.116
	c-15.604-15.607-40.938-15.607-56.542,0l-0.117,0.109L54.887,474.075l5.654,5.654L362.96,177.306L363.077,177.197z"/>
<g>
	
		<rect x="198.423" y="342.833" transform="matrix(-0.7071 0.7071 -0.7071 -0.7071 604.4232 443.3024)" style="fill:#94C1FF;" width="23.956" height="7.996"/>
	<polygon style="fill:#94C1FF;" points="204.737,324.225 187.807,341.163 182.152,335.502 199.083,318.57 	"/>
	
		<rect x="226.686" y="314.546" transform="matrix(-0.7072 0.707 -0.707 -0.7072 632.6557 375.0856)" style="fill:#94C1FF;" width="23.95" height="7.996"/>
	<polygon style="fill:#94C1FF;" points="233.001,295.97 216.062,312.9 210.407,307.247 227.347,290.308 	"/>
	
		<rect x="254.936" y="286.32" transform="matrix(-0.7071 0.7071 -0.7071 -0.7071 660.9354 306.868)" style="fill:#94C1FF;" width="23.955" height="7.996"/>
	
		<rect x="237.971" y="269.35" transform="matrix(-0.7071 0.7071 -0.7071 -0.7071 619.9754 289.8935)" style="fill:#94C1FF;" width="23.956" height="7.996"/>
	<path style="fill:#94C1FF;" d="M128.516,428.951c-0.991-0.999-1.921-2.03-2.796-3.093l-11.339,11.348l5.653,5.654l11.332-11.332
		C130.39,430.708,129.43,429.865,128.516,428.951z"/>
	<path style="fill:#94C1FF;" d="M102.236,415.417c0.859,2.772,1.89,5.506,3.155,8.153l12.237-12.237
		c-1.007-3.069-1.569-6.24-1.882-9.426L102.236,415.417z"/>
</g>
<g>
	<path style="fill:#116FFF;" d="M66.203,489.382c-1.023,0-2.046-0.391-2.827-1.171c-1.562-1.563-1.562-4.093,0-5.654
		l302.419-302.419c1.562-1.563,4.093-1.563,5.654,0c1.562,1.562,1.562,4.092,0,5.654L69.03,488.211
		C68.249,488.991,67.226,489.382,66.203,489.382z"/>
	<path style="fill:#116FFF;" d="M201.91,444.142c-1.022,0-2.046-0.391-2.827-1.172c-1.562-1.563-1.562-4.092,0-5.654l42.414-42.406
		c1.563-1.562,4.093-1.562,5.654,0c1.563,1.563,1.563,4.092,0,5.654l-42.414,42.406C203.957,443.751,202.934,444.142,201.91,444.142
		z"/>
	<path style="fill:#116FFF;" d="M190.603,432.833c-1.023,0-2.047-0.391-2.827-1.172c-1.563-1.562-1.563-4.092,0-5.654l42.469-42.461
		c1.562-1.562,4.092-1.562,5.653,0c1.563,1.563,1.563,4.093,0,5.654l-42.468,42.461
		C192.648,432.442,191.625,432.833,190.603,432.833z"/>
	<path style="fill:#116FFF;" d="M54.887,478.073c-1.022,0-2.046-0.39-2.827-1.171c-1.562-1.562-1.562-4.093,0-5.654l302.42-302.423
		c1.562-1.562,4.092-1.562,5.653,0c1.563,1.562,1.563,4.092,0,5.654L57.714,476.902C56.933,477.684,55.91,478.073,54.887,478.073z"
		/>
	<path style="fill:#116FFF;" d="M413.965,232.087c-1.023,0-2.046-0.391-2.827-1.171c-1.563-1.562-1.563-4.092,0-5.654
		c14.026-14.03,14.026-36.857,0-50.891c-6.795-6.794-15.83-10.535-25.443-10.535c-9.614,0-18.649,3.741-25.444,10.535
		c-1.562,1.562-4.092,1.562-5.653,0c-1.563-1.562-1.563-4.092,0-5.654c8.301-8.306,19.344-12.878,31.098-12.878
		c11.753,0,22.796,4.572,31.098,12.878c17.149,17.15,17.149,45.054,0,62.2C416.011,231.696,414.987,232.087,413.965,232.087z"/>
	<path style="fill:#116FFF;" d="M402.547,220.888c-1.022,0-2.046-0.39-2.827-1.171c-1.562-1.563-1.562-4.093,0-5.654
		c7.794-7.794,7.794-20.477,0-28.271c-7.575-7.567-20.711-7.567-28.271,0c-1.562,1.562-4.093,1.562-5.654,0s-1.562-4.092,0-5.654
		c5.295-5.295,12.315-8.212,19.79-8.212l0,0c7.466,0,14.494,2.917,19.789,8.212c10.91,10.91,10.91,28.669,0,39.579
		C404.593,220.498,403.57,220.888,402.547,220.888z"/>
	<path style="fill:#116FFF;" d="M102.166,419.486c-1.71,0-3.296-1.102-3.818-2.819c-7.006-22.758-0.906-47.35,15.916-64.172
		c1.562-1.562,4.092-1.562,5.653,0c1.563,1.563,1.563,4.093,0,5.654c-14.721,14.721-20.063,36.244-13.932,56.167
		c0.656,2.108-0.531,4.342-2.64,4.998C102.947,419.432,102.557,419.486,102.166,419.486z"/>
	<path style="fill:#116FFF;" d="M159.465,461.682c-15.018,0-30.043-5.24-42.07-15.822c-1.663-1.461-1.819-3.983-0.358-5.639
		c1.452-1.655,3.982-1.819,5.638-0.367c22.039,19.392,55.597,18.274,76.409-2.538c1.563-1.562,4.093-1.562,5.654,0
		c1.563,1.563,1.563,4.092,0,5.654C192.312,455.402,175.896,461.682,159.465,461.682z"/>
	<path style="fill:#116FFF;" d="M115.669,405.976c-2.038,0-3.779-1.555-3.975-3.624c-1.344-14.33,3.709-28.372,13.877-38.548
		c1.563-1.563,4.093-1.563,5.654,0c1.563,1.562,1.563,4.092,0,5.654c-8.474,8.48-12.69,20.195-11.565,32.145
		c0.202,2.194-1.406,4.146-3.608,4.35C115.927,405.968,115.794,405.976,115.669,405.976z"/>
	<path style="fill:#116FFF;" d="M159.41,445.625c-10.901,0-21.812-3.64-30.629-11.012c-1.694-1.413-1.921-3.937-0.508-5.631
		c1.414-1.694,3.96-1.913,5.631-0.507c15.713,13.127,39.36,12.042,53.871-2.469c1.562-1.562,4.092-1.562,5.654,0
		c1.562,1.563,1.562,4.093,0,5.654C184.167,440.924,171.797,445.625,159.41,445.625z"/>
	<path style="fill:#116FFF;" d="M128.398,370.629c-1.022,0-2.046-0.39-2.827-1.171c-1.562-1.563-1.562-4.093,0-5.654l42.469-42.461
		c1.563-1.562,4.093-1.562,5.654,0c1.562,1.563,1.562,4.092,0,5.654l-42.469,42.461
		C130.444,370.239,129.422,370.629,128.398,370.629z"/>
	<path style="fill:#116FFF;" d="M117.091,359.321c-1.023,0-2.047-0.391-2.827-1.172c-1.563-1.562-1.563-4.092,0-5.654l42.468-42.461
		c1.563-1.562,4.093-1.562,5.654,0c1.563,1.563,1.563,4.093,0,5.654l-42.469,42.461
		C119.137,358.931,118.113,359.321,117.091,359.321z"/>
	<path style="fill:#116FFF;" d="M66.203,489.382c-1.023,0-2.046-0.391-2.827-1.171L52.06,476.902c-1.562-1.562-1.562-4.093,0-5.654
		c1.563-1.562,4.093-1.562,5.654,0l11.316,11.309c1.562,1.562,1.562,4.092,0,5.654C68.249,488.991,67.226,489.382,66.203,489.382z"
		/>
	<path style="fill:#116FFF;" d="M60.541,506.345c-0.422,0-0.844-0.063-1.266-0.203c-2.093-0.703-3.225-2.968-2.53-5.061
		l5.662-16.963c0.703-2.093,2.968-3.201,5.061-2.522c2.094,0.695,3.226,2.96,2.53,5.053l-5.661,16.963
		C63.774,505.29,62.212,506.345,60.541,506.345z"/>
	<path style="fill:#116FFF;" d="M37.925,483.728c-1.672,0-3.233-1.062-3.796-2.732c-0.695-2.102,0.438-4.366,2.53-5.061
		l16.963-5.654c2.101-0.688,4.357,0.429,5.061,2.529c0.694,2.094-0.438,4.358-2.53,5.054l-16.963,5.653
		C38.768,483.657,38.346,483.728,37.925,483.728z"/>
	<path style="fill:#116FFF;" d="M54.887,511.999c-1.022,0-2.046-0.391-2.827-1.172l-22.616-22.616c-1.563-1.563-1.563-4.093,0-5.654
		c1.562-1.562,4.092-1.562,5.654,0l22.616,22.616c1.562,1.563,1.562,4.093,0,5.654C56.933,511.608,55.91,511.999,54.887,511.999z"/>
	<path style="fill:#116FFF;" d="M54.887,511.999c-1.022,0-2.046-0.391-2.827-1.172c-1.562-1.562-1.562-4.092,0-5.654l5.654-5.654
		c1.562-1.562,4.093-1.562,5.654,0c1.562,1.563,1.562,4.093,0,5.654l-5.654,5.654C56.933,511.608,55.91,511.999,54.887,511.999z"/>
	<path style="fill:#116FFF;" d="M32.27,489.382c-1.023,0-2.046-0.391-2.827-1.171c-1.563-1.555-1.563-4.093,0-5.654l5.654-5.654
		c1.562-1.562,4.092-1.562,5.654,0c1.562,1.554,1.562,4.093,0,5.654l-5.654,5.654C34.316,488.991,33.293,489.382,32.27,489.382z"/>
	<path style="fill:#116FFF;" d="M478.995,110.511c-1.023,0-2.046-0.391-2.827-1.171c-1.39-1.394-1.546-3.561-0.452-5.119
		c-0.078-4.401-12.371-24.667-41.961-54.253c-29.583-29.59-49.85-41.883-54.246-41.965c-1.555,1.094-3.725,0.945-5.123-0.449
		c-1.563-1.562-1.563-4.092,0-5.654c4.131-4.135,11.934-1.613,26.061,8.481c11.379,8.13,25.217,20.184,38.962,33.933
		c13.753,13.749,25.804,27.588,33.933,38.966c10.09,14.124,12.629,21.914,8.481,26.061
		C481.042,110.12,480.019,110.511,478.995,110.511z"/>
	<path style="fill:#116FFF;" d="M250.088,249.166c-1.023,0-2.046-0.39-2.827-1.171c-1.562-1.562-1.562-4.092,0-5.654
		C414.379,75.227,478.034,101.67,480.667,102.877c2.007,0.922,2.881,3.296,1.96,5.303c-0.914,2.015-3.28,2.87-5.303,1.968
		c-0.555-0.242-62.54-24.03-224.409,137.848C252.134,248.776,251.111,249.166,250.088,249.166z"/>
	<path style="fill:#116FFF;" d="M238.553,237.632c-1.022,0-2.046-0.391-2.827-1.172c-1.562-1.562-1.562-4.092,0-5.654
		C398.916,67.617,373.854,6.987,373.581,6.394c-0.922-2.007-0.047-4.382,1.961-5.303c2.015-0.914,4.381-0.051,5.303,1.968
		c1.21,2.628,27.63,66.312-139.465,233.401C240.6,237.241,239.576,237.632,238.553,237.632z"/>
	<path style="fill:#116FFF;" d="M135.778,290.347c-2.943,0-5.497-0.992-7.38-2.882c-4.756-4.756-3.514-13.448,2.827-19.79
		c6.139-6.122,15.174-7.442,19.798-2.826c2.444,2.443,3.396,6.122,2.608,10.082c-0.688,3.443-2.624,6.896-5.443,9.715
		C144.564,288.27,140.043,290.347,135.778,290.347z M143.643,269.964c-1.64,0-4.279,0.882-6.763,3.365
		c-3.397,3.405-3.951,7.357-2.827,8.481c0.445,0.445,1.188,0.539,1.726,0.539c1.641,0,4.28-0.883,6.756-3.358
		c1.694-1.694,2.874-3.74,3.249-5.623c0.258-1.28,0.102-2.351-0.414-2.865C144.924,270.058,144.182,269.964,143.643,269.964z"/>
	<path style="fill:#116FFF;" d="M158.442,312.947c-2.569,0-4.881-0.78-6.686-2.257h0.008c-0.32-0.227-0.608-0.461-0.788-0.656
		c-2.421-2.413-3.382-6.099-2.577-10.066c0.687-3.412,2.624-6.849,5.451-9.676c6.13-6.131,15.182-7.442,19.789-2.827
		c4.756,4.756,3.515,13.448-2.827,19.798C167.197,310.878,162.69,312.947,158.442,312.947z M156.568,304.31
		c0.086,0.063,0.179,0.125,0.265,0.195c0.445,0.367,1.117,0.445,1.609,0.445c1.624,0,4.248-0.874,6.716-3.342
		c3.397-3.405,3.952-7.365,2.827-8.489c-0.445-0.445-1.179-0.539-1.726-0.539c-1.641,0-4.272,0.891-6.756,3.366
		c-1.702,1.702-2.896,3.748-3.271,5.607C156.115,302.132,155.928,303.514,156.568,304.31z"/>
	<path style="fill:#116FFF;" d="M265.84,420.415c-2.835,0-5.436-0.944-7.38-2.889c-1.563-1.563-1.563-4.093,0-5.654
		c1.563-1.563,4.092-1.563,5.654,0c1.133,1.116,5.092,0.563,8.48-2.827c3.397-3.397,3.952-7.356,2.828-8.481
		c-1.563-1.563-1.563-4.092,0-5.654c1.562-1.562,4.092-1.562,5.654,0c4.756,4.756,3.514,13.448-2.828,19.79
		C274.501,418.447,269.933,420.415,265.84,420.415z"/>
	<path style="fill:#116FFF;" d="M261.342,418.643c-1.023,0-2.046-0.391-2.827-1.171l-16.963-16.963
		c-1.562-1.563-1.562-4.092,0-5.654c1.563-1.562,4.093-1.562,5.654,0l16.963,16.963c1.562,1.562,1.562,4.092,0,5.654
		C263.388,418.252,262.364,418.643,261.342,418.643z"/>
	<path style="fill:#116FFF;" d="M182.176,339.477c-1.023,0-2.046-0.391-2.827-1.171l-27.881-27.881l2.438-3.225l2.857-2.797
		l28.24,28.248c1.562,1.562,1.562,4.092,0,5.654C184.222,339.086,183.198,339.477,182.176,339.477z"/>
	<path style="fill:#116FFF;" d="M278.249,401.735c-1.022,0-2.046-0.391-2.826-1.172l-56.542-56.549
		c-1.563-1.563-1.563-4.093,0-5.654c1.562-1.563,4.092-1.563,5.654,0l56.542,56.549c1.562,1.563,1.562,4.092,0,5.654
		C280.296,401.345,279.272,401.735,278.249,401.735z"/>
	<path style="fill:#116FFF;" d="M199.083,322.569c-1.022,0-2.046-0.391-2.827-1.172l-28.271-28.278
		c-1.562-1.562-1.562-4.093,0-5.654c1.563-1.562,4.093-1.562,5.654,0l28.271,28.278c1.563,1.563,1.563,4.093,0,5.654
		C201.13,322.179,200.106,322.569,199.083,322.569z"/>
	<path style="fill:#116FFF;" d="M162.331,302.771c-1.022,0-2.046-0.391-2.827-1.171l-16.97-16.963c-1.563-1.555-1.563-4.092,0-5.654
		c1.562-1.562,4.092-1.562,5.654,0l16.97,16.963c1.563,1.562,1.563,4.092,0,5.654C164.378,302.381,163.354,302.771,162.331,302.771z
		"/>
	<path style="fill:#116FFF;" d="M164.058,262.071c-2.944,0-5.498-0.995-7.38-2.881c-4.757-4.756-3.515-13.448,2.826-19.79
		c6.107-6.095,15.276-7.45,19.845-2.882c4.756,4.756,3.491,13.472-2.882,19.845C172.843,259.991,168.313,262.071,164.058,262.071z
		 M172,241.649c-1.664,0-4.335,0.895-6.842,3.405c-1.687,1.687-2.874,3.737-3.24,5.615c-0.258,1.277-0.102,2.351,0.413,2.866
		c0.445,0.445,1.18,0.539,1.727,0.539c1.64,0,4.271-0.887,6.755-3.366c3.429-3.433,4.007-7.411,2.882-8.536
		C173.265,241.739,172.538,241.649,172,241.649z"/>
	<path style="fill:#116FFF;" d="M186.713,284.677c-2.554,0-4.85-0.773-6.646-2.233c-0.281-0.195-0.539-0.398-0.711-0.563
		c-4.818-4.826-3.577-13.519,2.765-19.86c6.247-6.263,15.307-7.489,19.836-2.779c4.71,4.709,3.468,13.408-2.874,19.742
		C195.468,282.6,190.961,284.677,186.713,284.677z M184.831,276.023c0.102,0.07,0.195,0.141,0.281,0.211
		c0.445,0.367,1.116,0.445,1.601,0.445c1.632,0,4.248-0.882,6.717-3.351c3.396-3.396,3.951-7.356,2.826-8.48
		c-1.249-1.297-4.756-0.898-8.426,2.771C184.503,270.955,183.862,274.751,184.831,276.023z"/>
	<path style="fill:#116FFF;" d="M294.118,392.137c-2.834,0-5.436-0.937-7.388-2.882c-1.562-1.554-1.562-4.092,0-5.654
		c1.563-1.569,4.093-1.562,5.654-0.008c1.125,1.125,5.084,0.586,8.489-2.818c3.436-3.437,4.006-7.42,2.882-8.544
		c-1.563-1.563-1.563-4.093,0-5.654c1.562-1.562,4.092-1.562,5.653,0c4.757,4.756,3.491,13.479-2.881,19.852
		C302.779,390.169,298.211,392.137,294.118,392.137z"/>
	<path style="fill:#116FFF;" d="M289.62,390.372c-1.023,0-2.046-0.391-2.827-1.172l-56.549-56.549c-1.563-1.563-1.563-4.093,0-5.654
		c1.562-1.563,4.092-1.563,5.653,0l56.55,56.549c1.562,1.563,1.562,4.093,0,5.654C291.666,389.981,290.644,390.372,289.62,390.372z"
		/>
	<path style="fill:#116FFF;" d="M210.446,311.198c-1.023,0-2.046-0.391-2.827-1.172l-27.872-27.872
		c-1.563-1.562-1.766-4.288-0.203-5.85c1.554-1.546,3.889-1.765,5.443-0.219l28.286,28.286c1.562,1.563,1.562,4.093,0,5.654
		C212.492,310.808,211.47,311.198,210.446,311.198z"/>
	<path style="fill:#116FFF;" d="M306.583,373.401c-1.023,0-2.047-0.391-2.827-1.171l-56.55-56.542c-1.562-1.562-1.562-4.092,0-5.654
		c1.563-1.562,4.093-1.562,5.654,0l56.549,56.542c1.563,1.562,1.563,4.092,0,5.654C308.629,373.011,307.605,373.401,306.583,373.401
		z"/>
	<path style="fill:#116FFF;" d="M227.417,294.235c-1.023,0-2.047-0.391-2.827-1.171l-28.279-28.271
		c-1.562-1.566-1.562-4.097,0-5.658c1.563-1.563,4.093-1.563,5.654,0l28.279,28.274c1.562,1.562,1.562,4.093,0,5.654
		C229.463,293.845,228.439,294.235,227.417,294.235z"/>
	<path style="fill:#116FFF;" d="M190.657,274.446c-1.023,0-2.047-0.391-2.827-1.172l-17.002-16.896
		c-1.569-1.555-1.585-4.089-0.031-5.658c1.547-1.566,4.077-1.578,5.654-0.027l17.033,16.927c1.562,1.563,1.562,4.101,0,5.654
		C192.703,274.056,191.68,274.446,190.657,274.446z"/>
	<path style="fill:#116FFF;" d="M192.383,233.742c-2.944,0-5.498-0.995-7.38-2.881c-2.444-2.444-3.397-6.119-2.608-10.079
		c0.687-3.444,2.616-6.892,5.436-9.711c6.13-6.139,15.182-7.438,19.789-2.827c4.756,4.756,3.515,13.448-2.827,19.79
		C201.161,231.661,196.639,233.742,192.383,233.742z M200.239,213.359c-1.64,0-4.271,0.887-6.755,3.366
		c-1.688,1.69-2.874,3.737-3.241,5.615c-0.258,1.276-0.102,2.351,0.414,2.866c0.444,0.445,1.179,0.539,1.726,0.539
		c1.64,0,4.271-0.882,6.755-3.366c3.397-3.401,3.952-7.357,2.827-8.481C201.52,213.453,200.786,213.359,200.239,213.359z"/>
	<path style="fill:#116FFF;" d="M215.015,256.359c-2.546,0-4.826-0.77-6.591-2.23l0,0c-0.305-0.207-0.578-0.421-0.758-0.601
		c-4.795-4.803-3.554-13.491,2.78-19.833c6.178-6.185,15.143-7.47,19.798-2.839c4.756,4.764,3.514,13.459-2.827,19.797
		C223.848,254.227,219.209,256.359,215.015,256.359z M213.172,247.714c0.117,0.074,0.227,0.156,0.328,0.246
		c1.116,0.898,4.787,0.516,8.263-2.96c3.396-3.401,3.951-7.36,2.827-8.485c-1.156-1.147-4.771-0.882-8.489,2.831
		C212.758,242.692,212.164,246.437,213.172,247.714z"/>
	<path style="fill:#116FFF;" d="M322.444,363.812c-2.835,0-5.436-0.945-7.381-2.89c-1.562-1.562-1.562-4.093,0-5.654
		c1.563-1.562,4.093-1.562,5.654,0c1.133,1.125,5.092,0.57,8.481-2.827c3.397-3.396,3.952-7.356,2.827-8.48
		c-1.562-1.57-1.562-4.101,0-5.662c1.563-1.555,4.092-1.555,5.654,0.008c4.756,4.756,3.514,13.455-2.827,19.789
		C331.104,361.844,326.536,363.812,322.444,363.812z"/>
	<path style="fill:#116FFF;" d="M317.954,362.031c-1.023,0-2.047-0.391-2.828-1.172l-56.549-56.542
		c-1.563-1.562-1.563-4.092,0-5.653c1.562-1.563,4.092-1.563,5.654,0l56.549,56.541c1.563,1.563,1.563,4.093,0,5.654
		C319.999,361.641,318.977,362.031,317.954,362.031z"/>
	<path style="fill:#116FFF;" d="M238.787,282.865c-1.022,0-2.046-0.391-2.827-1.172l-27.825-27.821l2.374-3.28l2.827-2.827
		l28.278,28.274c1.563,1.563,1.563,4.093,0,5.654C240.834,282.475,239.811,282.865,238.787,282.865z"/>
	<path style="fill:#116FFF;" d="M334.853,345.131c-1.023,0-2.046-0.391-2.827-1.171l-16.963-16.963
		c-1.562-1.563-1.562-4.092,0-5.654c1.563-1.562,4.093-1.562,5.654,0l16.963,16.963c1.562,1.562,1.562,4.092,0,5.654
		C336.899,344.74,335.876,345.131,334.853,345.131z"/>
	<path style="fill:#116FFF;" d="M255.687,265.965c-1.023,0-2.046-0.391-2.827-1.171l-28.271-28.279
		c-1.563-1.565-1.563-4.096,0-5.658c1.562-1.554,4.092-1.558,5.654,0.004l28.271,28.275c1.562,1.562,1.562,4.092,0,5.658
		C257.733,265.574,256.711,265.965,255.687,265.965z"/>
	<path style="fill:#116FFF;" d="M218.936,246.172c-1.023,0-2.046-0.391-2.827-1.168l-16.971-16.97c-1.562-1.562-1.562-4.092,0-5.654
		c1.563-1.563,4.093-1.563,5.654,0l16.971,16.962c1.562,1.563,1.562,4.093,0,5.658C220.981,245.781,219.958,246.172,218.936,246.172
		z"/>
	<path style="fill:#116FFF;" d="M306.528,316.915c-1.023,0-2.047-0.391-2.827-1.172c-1.562-1.562-1.562-4.092,0-5.654l96.019-96.026
		c1.563-1.562,4.093-1.562,5.654,0c1.563,1.562,1.563,4.092,0,5.654l-96.019,96.026
		C308.574,316.524,307.551,316.915,306.528,316.915z"/>
	<path style="fill:#116FFF;" d="M320.718,326.997l-5.709-5.6l96.129-96.136c1.563-1.562,4.092-1.562,5.654,0
		c1.562,1.562,1.562,4.092,0,5.654L320.718,326.997z"/>
	<path style="fill:#116FFF;" d="M233.07,390.372c-1.022,0-2.046-0.391-2.826-1.172l-28.279-28.278c-1.562-1.562-1.562-4.093,0-5.654
		c1.563-1.562,4.093-1.562,5.654,0l28.278,28.278c1.563,1.563,1.563,4.093,0,5.654C235.117,389.981,234.094,390.372,233.07,390.372z
		"/>
	<path style="fill:#116FFF;" d="M249.978,373.456c-1.023,0-2.046-0.391-2.827-1.171c-1.562-1.563-1.562-4.093,0-5.654l11.309-11.309
		c1.563-1.562,4.092-1.562,5.654,0c1.562,1.562,1.562,4.093,0,5.654l-11.309,11.309
		C252.024,373.065,251.002,373.456,249.978,373.456z"/>
	<path style="fill:#116FFF;" d="M261.287,384.772c-1.023,0-2.046-0.391-2.827-1.172c-1.563-1.562-1.563-4.092,0-5.654l11.309-11.315
		c1.562-1.562,4.092-1.562,5.654,0c1.562,1.562,1.562,4.092,0,5.654L264.114,383.6C263.333,384.382,262.31,384.772,261.287,384.772z
		"/>
	<path style="fill:#116FFF;" d="M278.304,345.131c-1.022,0-2.046-0.391-2.826-1.171c-1.563-1.563-1.563-4.093,0-5.654l11.37-11.371
		c1.562-1.563,4.093-1.563,5.654,0c1.562,1.562,1.562,4.092,0,5.654l-11.371,11.371C280.351,344.74,279.327,345.131,278.304,345.131
		z"/>
	<path style="fill:#116FFF;" d="M289.62,356.439c-1.023,0-2.046-0.391-2.827-1.172c-1.562-1.562-1.562-4.092,0-5.654l11.371-11.37
		c1.562-1.563,4.092-1.563,5.654,0c1.562,1.562,1.562,4.092,0,5.654l-11.371,11.37C291.666,356.049,290.644,356.439,289.62,356.439z
		"/>
	<path style="fill:#116FFF;" d="M306.528,316.915c-1.023,0-2.047-0.391-2.827-1.172l-28.278-28.278
		c-1.563-1.562-1.563-4.093,0-5.654c1.562-1.562,4.092-1.562,5.654,0l28.278,28.278c1.562,1.563,1.562,4.093,0,5.654
		C308.574,316.524,307.551,316.915,306.528,316.915z"/>
	<path style="fill:#116FFF;" d="M391.349,220.778c-1.023,0-2.047-0.39-2.828-1.171c-1.593-1.586-4.061-1.586-5.653,0
		c-1.563,1.562-4.093,1.562-5.654,0c-1.562-1.563-1.562-4.093,0-5.654c4.67-4.678,12.292-4.678,16.962,0
		c1.563,1.562,1.563,4.092,0,5.654C393.395,220.388,392.371,220.778,391.349,220.778z"/>
	<path style="fill:#116FFF;" d="M300.874,299.944c-1.023,0-2.046-0.391-2.827-1.171c-1.562-1.563-1.562-4.093,0-5.654l79.166-79.166
		c1.562-1.562,4.092-1.562,5.654,0c1.562,1.562,1.562,4.092,0,5.654l-79.166,79.166C302.92,299.554,301.897,299.944,300.874,299.944
		z"/>
	<path style="fill:#116FFF;" d="M187.775,413.043c-1.023,0-2.047-0.39-2.827-1.171c-1.563-1.563-1.563-4.093,0-5.654l28.278-28.271
		c1.562-1.562,4.092-1.562,5.654,0c1.562,1.563,1.562,4.093,0,5.654l-28.278,28.271
		C189.821,412.653,188.798,413.043,187.775,413.043z"/>
	<path style="fill:#116FFF;" d="M187.775,424.352c-1.023,0-2.047-0.391-2.827-1.171c-4.678-4.671-4.678-12.285,0-16.963
		c1.562-1.563,4.092-1.563,5.654-0.008c1.562,1.562,1.562,4.092,0,5.662c-1.555,1.562-1.563,4.1,0,5.654
		c1.562,1.562,1.562,4.092,0,5.654C189.821,423.961,188.798,424.352,187.775,424.352z"/>
	<path style="fill:#116FFF;" d="M380.04,209.47c-1.023,0-2.047-0.39-2.827-1.171l-11.309-11.309c-1.562-1.562-1.562-4.092,0-5.654
		s4.093-1.562,5.654,0l11.309,11.308c1.562,1.562,1.562,4.092,0,5.654C382.086,209.08,381.063,209.47,380.04,209.47z"/>
	<path style="fill:#116FFF;" d="M312.175,282.014c-5.334,0-10.355-2.077-14.128-5.857c-3.765-3.764-5.842-8.778-5.842-14.136
		c0-5.356,2.077-10.375,5.842-14.139c7.567-7.56,20.719-7.552,28.271,0c3.796,3.788,5.881,8.81,5.881,14.135
		c0,5.33-2.085,10.353-5.881,14.14C322.546,279.937,317.517,282.014,312.175,282.014z M312.175,250.021
		c-3.194,0-6.209,1.246-8.474,3.515c-2.257,2.253-3.499,5.268-3.499,8.484c0,3.219,1.242,6.232,3.499,8.482
		c4.537,4.545,12.44,4.529,16.962,0c2.281-2.281,3.538-5.295,3.538-8.486c0-3.189-1.257-6.2-3.538-8.48
		C318.391,251.268,315.376,250.021,312.175,250.021z"/>
	<path style="fill:#116FFF;" d="M187.768,406.421c-5.334,0-10.348-2.078-14.128-5.857c-1.562-1.563-1.562-4.092,0-5.654
		c1.562-1.562,4.093-1.562,5.654,0c2.265,2.265,5.279,3.515,8.481,3.515c0,0,0.008,0,0.016,0c3.201-0.008,6.208-1.258,8.465-3.515
		c2.281-2.28,3.538-5.295,3.538-8.481c0-3.194-1.257-6.2-3.538-8.481c-1.562-1.562-1.562-4.092,0-5.653
		c1.563-1.563,4.093-1.563,5.654,0c3.796,3.787,5.881,8.81,5.881,14.135c0,5.318-2.085,10.341-5.881,14.136
		c-3.764,3.764-8.777,5.85-14.104,5.857C187.791,406.421,187.783,406.421,187.768,406.421z"/>
	<path style="fill:#116FFF;" d="M199.083,379.118c-1.022,0-2.046-0.391-2.827-1.172l-5.653-5.661c-1.563-1.563-1.563-4.093,0-5.654
		c1.562-1.562,4.092-1.562,5.653,0l5.654,5.662c1.563,1.562,1.563,4.092,0,5.653C201.13,378.728,200.106,379.118,199.083,379.118z"
		/>
	<path style="fill:#116FFF;" d="M176.467,401.735c-1.023,0-2.046-0.391-2.827-1.172l-5.654-5.654c-1.562-1.562-1.562-4.092,0-5.654
		c1.563-1.562,4.093-1.562,5.654,0l5.654,5.654c1.562,1.563,1.562,4.092,0,5.654C178.513,401.345,177.49,401.735,176.467,401.735z"
		/>
	<path style="fill:#116FFF;" d="M176.381,299.804c-1.023,0-2.046-0.391-2.827-1.171c-1.562-1.563-1.562-4.093,0-5.654l11.34-11.332
		c1.562-1.562,4.092-1.562,5.654,0c1.562,1.562,1.562,4.093,0,5.654l-11.34,11.332C178.427,299.413,177.404,299.804,176.381,299.804
		z"/>
	<path style="fill:#116FFF;" d="M187.807,311.229c-1.023,0-2.047-0.391-2.827-1.172c-1.563-1.554-1.563-4.092,0-5.654l11.331-11.339
		c1.563-1.562,4.093-1.562,5.654,0c1.563,1.562,1.563,4.092,0,5.654l-11.331,11.339
		C189.853,310.839,188.829,311.229,187.807,311.229z"/>
	<path style="fill:#116FFF;" d="M204.698,271.486c-1.022,0-2.046-0.391-2.827-1.171c-1.562-1.563-1.562-4.093,0-5.654l11.34-11.336
		c1.562-1.562,4.092-1.562,5.654,0c1.562,1.562,1.562,4.092,0,5.654l-11.34,11.336C206.744,271.096,205.722,271.486,204.698,271.486
		z"/>
	<path style="fill:#116FFF;" d="M216.124,282.912c-1.023,0-2.046-0.391-2.827-1.172c-1.562-1.554-1.562-4.092,0-5.654l11.332-11.339
		c1.562-1.563,4.092-1.563,5.654,0c1.562,1.562,1.562,4.092,0,5.654l-11.332,11.339C218.17,282.521,217.147,282.912,216.124,282.912
		z"/>
</g>
<g>
</g>
<g>
</g>
<g>
</g>
<g>
</g>
<g>
</g>
<g>
</g>
<g>
</g>
<g>
</g>
<g>
</g>
<g>
</g>
<g>
</g>
<g>
</g>
<g>
</g>
<g>
</g>
<g>
</g>
</svg>
