<?xml version="1.0" encoding="iso-8859-1"?>
<!-- Generator: Adobe Illustrator 19.0.0, SVG Export Plug-In . SVG Version: 6.00 Build 0)  -->
<svg version="1.1" id="Capa_1" xmlns="http://www.w3.org/2000/svg" xmlns:xlink="http://www.w3.org/1999/xlink" x="0px" y="0px"
	 viewBox="0 0 511.812 511.812" style="enable-background:new 0 0 511.812 511.812;" xml:space="preserve">
<path style="fill:#D7E9FF;" d="M302.263,382.179l-0.319-2.319c-34.223,0-43.102-74.613-15.916-80.205l-0.078-0.242
	c15.674-24.389,23.99-103.484-47.979-103.484l-3.28,0.078l3.28,103.882h-15.994h-15.994l3.28-103.882l-3.28-0.078
	c-71.974,0-63.656,79.095-47.982,103.484l-0.078,0.242c27.268,5.514,18.31,80.205-15.916,80.205l-0.32,2.319
	c16.314,21.672-74.292,123.954,80.291,125.633c2.878,0,5.678-0.078,8.317-0.234C373.198,502.377,286.269,403.453,302.263,382.179z"
	/>
<g>
	<polygon style="fill:#94C1FF;" points="229.974,43.985 229.974,27.991 213.98,27.991 213.98,43.985 205.983,299.889 
		237.971,299.889 	"/>
	<rect x="365.916" y="451.836" style="fill:#94C1FF;" width="15.994" height="23.992"/>
	<polygon style="fill:#94C1FF;" points="381.914,11.997 381.914,27.991 365.92,27.991 365.92,4 	"/>
</g>
<path style="fill:#D7E9FF;" d="M229.974,19.994v7.997c0,4.397-3.601,7.997-7.997,7.997c-4.397,0-7.997-3.6-7.997-7.997v-7.997
	v-7.997c0-4.397,3.6-7.997,7.997-7.997c4.396,0,7.997,3.6,7.997,7.997V19.994z"/>
<path style="fill:#FFFFFF;" d="M149.504,384.858c34.226,0,48.482-81.97,13.542-90.889l2.952,5.443
	c-15.318-23.842-23.565-99.884,43.261-103.32l0.004-0.085l-3.28-0.078c-71.974,0-63.656,79.095-47.982,103.484l-0.078,0.242
	c27.268,5.514,18.31,80.205-15.916,80.205l-0.32,2.319c16.314,21.672-74.292,123.954,80.291,125.633
	c1.468,0,2.827-0.078,4.244-0.117C77.066,504.344,165.677,406.35,149.504,384.858z"/>
<g>
	<path style="fill:#94C1FF;" d="M302.256,382.179l-0.319-2.319c-34.223,0-43.18-74.691-15.916-80.205l-0.078-0.242
		c15.674-24.389,23.99-103.484-47.979-103.484l-3.28,0.078l0.004,0.085c62.383,3.21,59.329,69.669,46.187,97.885
		c-34.905,8.95-20.649,90.881,13.564,90.881c-16.174,21.492,72.442,119.486-76.713,122.837c1.417,0.039,2.776,0.117,4.245,0.117
		C376.549,506.134,285.942,403.851,302.256,382.179z M280.819,294.118c-0.914,1.953-1.875,3.741-2.875,5.295L280.819,294.118z"/>
	<polygon style="fill:#94C1FF;" points="237.971,443.837 205.983,443.837 213.98,499.815 213.82,499.815 213.82,507.578 
		230.135,507.578 230.135,499.815 229.974,499.815 	"/>
</g>
<g>
	<path style="fill:#116FFF;" d="M222.223,495.817c-2.207,0-4.038-1.789-4.038-3.999s1.75-3.998,3.96-3.998h0.078
		c2.21,0,3.998,1.788,3.998,3.998S224.433,495.817,222.223,495.817z"/>
	<path style="fill:#116FFF;" d="M205.995,303.888c-0.043,0-0.086,0-0.129,0c-2.206-0.07-3.94-1.913-3.874-4.124l7.997-255.904
		c0.07-2.207,1.836-3.995,4.124-3.874c2.206,0.07,3.939,1.917,3.873,4.123l-7.997,255.905
		C209.919,302.177,208.142,303.888,205.995,303.888z"/>
	<path style="fill:#116FFF;" d="M158.012,303.373c-1.316,0-2.601-0.648-3.366-1.835c-10.488-16.283-17.618-54.605-3.065-81.282
		c7.048-12.921,22.207-28.326,54.41-28.326c2.21,0,3.998,1.789,3.998,3.999c0,2.21-1.788,3.998-3.998,3.998
		c-22.703,0-38.646,8.126-47.389,24.159c-12.593,23.085-6.876,58.154,2.769,73.125c1.194,1.858,0.66,4.335-1.199,5.529
		C159.504,303.17,158.755,303.373,158.012,303.373z"/>
	<path style="fill:#116FFF;" d="M142.014,383.858c-2.21,0-3.998-1.788-3.998-3.998s1.788-3.999,3.998-3.999
		c11.688,0,18.606-10.722,21.691-17.118c8.181-16.971,8.349-40.665,0.355-50.708c-3.272-4.115-7.575-5.49-13.167-4.24
		c-2.164,0.468-4.292-0.867-4.784-3.022c-0.488-2.147,0.863-4.295,3.019-4.779c8.493-1.922,16.029,0.578,21.188,7.06
		c10,12.565,10.266,39.103,0.589,59.165C164.178,376.174,153.917,383.858,142.014,383.858z"/>
	<path style="fill:#116FFF;" d="M221.985,511.811c-0.016,0-0.027,0-0.043,0c-45.53-0.492-74.141-9.56-87.46-27.725
		c-15.232-20.773-6.907-48.209-0.219-70.255c3.706-12.214,7.536-24.843,4.229-29.231c-1.328-1.757-0.976-4.264,0.789-5.6
		c1.765-1.327,4.276-0.969,5.6,0.789c5.752,7.638,1.905,20.313-2.964,36.361c-6.173,20.344-13.854,45.663-0.984,63.211
		c11.566,15.768,38.849,23.999,81.095,24.452c2.21,0.023,3.979,1.835,3.955,4.045C225.96,510.053,224.176,511.811,221.985,511.811z"
		/>
	<path style="fill:#116FFF;" d="M237.975,303.888c-2.148,0-3.925-1.711-3.995-3.874l-7.997-255.905
		c-0.066-2.206,1.668-4.053,3.874-4.123c2.104-0.098,4.053,1.667,4.123,3.874l7.997,255.904c0.066,2.211-1.667,4.054-3.873,4.124
		C238.061,303.888,238.018,303.888,237.975,303.888z"/>
	<path style="fill:#116FFF;" d="M285.958,303.373c-0.742,0-1.492-0.203-2.164-0.633c-1.858-1.194-2.39-3.671-1.194-5.529
		c9.645-14.971,15.361-50.04,2.765-73.125c-8.739-16.033-24.683-24.159-47.385-24.159c-2.211,0-3.999-1.788-3.999-3.998
		s1.788-3.999,3.999-3.999c32.203,0,47.361,15.404,54.405,28.326c14.558,26.677,7.427,64.999-3.062,81.282
		C288.557,302.724,287.269,303.373,285.958,303.373z"/>
	<path style="fill:#116FFF;" d="M301.952,383.858c-11.895,0-22.156-7.685-28.889-21.641c-9.668-20.063-9.402-46.6,0.594-59.165
		c5.154-6.474,12.683-8.974,21.18-7.06c2.155,0.484,3.507,2.632,3.022,4.779c-0.492,2.155-2.64,3.482-4.787,3.022
		c-5.592-1.273-9.88,0.125-13.159,4.232c-7.997,10.051-7.825,33.745,0.359,50.716c3.076,6.396,9.996,17.118,21.68,17.118
		c2.209,0,3.998,1.789,3.998,3.999S304.161,383.858,301.952,383.858z"/>
	<path style="fill:#116FFF;" d="M221.985,511.811c-2.191,0-3.976-1.758-3.999-3.952c-0.023-2.21,1.746-4.021,3.956-4.045
		c42.242-0.453,69.529-8.685,81.095-24.452c12.87-17.548,5.193-42.867-0.983-63.211c-4.866-16.049-8.716-28.724-2.961-36.361
		c1.328-1.758,3.827-2.116,5.607-0.789c1.758,1.336,2.109,3.843,0.781,5.607c-3.312,4.381,0.523,17.01,4.225,29.224
		c6.693,22.046,15.019,49.481-0.219,70.255c-13.314,18.165-41.93,27.232-87.459,27.725
		C222.012,511.811,221.997,511.811,221.985,511.811z"/>
	<path style="fill:#116FFF;" d="M229.982,15.995c-2.21,0-3.999-1.788-3.999-3.999c0-2.206-1.792-3.999-3.998-3.999
		s-3.999,1.792-3.999,3.999c0,2.21-1.788,3.999-3.998,3.999s-3.999-1.788-3.999-3.999C209.989,5.381,215.37,0,221.985,0
		c6.614,0,11.995,5.381,11.995,11.996C233.98,14.207,232.192,15.995,229.982,15.995z"/>
	<path style="fill:#116FFF;" d="M221.985,39.987c-6.615,0-11.996-5.381-11.996-11.996c0-2.21,1.789-3.999,3.999-3.999
		s3.998,1.788,3.998,3.999c0,2.207,1.793,3.999,3.999,3.999s3.998-1.792,3.998-3.999c0-2.21,1.789-3.999,3.999-3.999
		c2.21,0,3.998,1.788,3.998,3.999C233.98,34.606,228.599,39.987,221.985,39.987z"/>
	<path style="fill:#116FFF;" d="M213.988,31.989c-2.21,0-3.999-1.789-3.999-3.999V11.997c0-2.21,1.789-3.999,3.999-3.999
		s3.998,1.789,3.998,3.999v15.994C217.986,30.201,216.198,31.989,213.988,31.989z"/>
	<path style="fill:#116FFF;" d="M229.982,31.989c-2.21,0-3.999-1.789-3.999-3.999V11.997c0-2.21,1.789-3.999,3.999-3.999
		c2.21,0,3.998,1.789,3.998,3.999v15.994C233.98,30.201,232.192,31.989,229.982,31.989z"/>
	<path style="fill:#116FFF;" d="M237.979,23.992h-7.997c-2.21,0-3.999-1.788-3.999-3.999s1.789-3.999,3.999-3.999h7.997
		c2.21,0,3.998,1.788,3.998,3.999S240.189,23.992,237.979,23.992z"/>
	<path style="fill:#116FFF;" d="M213.988,23.992h-7.997c-2.21,0-3.999-1.788-3.999-3.999s1.789-3.999,3.999-3.999h7.997
		c2.21,0,3.998,1.788,3.998,3.999S216.198,23.992,213.988,23.992z"/>
	<path style="fill:#116FFF;" d="M253.973,55.981h-15.729c-2.211,0-3.999-1.789-3.999-3.999s1.788-3.998,3.999-3.998h15.729
		c2.21,0,3.998,1.788,3.998,3.998C257.971,54.192,256.183,55.981,253.973,55.981z"/>
	<path style="fill:#116FFF;" d="M253.973,63.978c-2.211,0-3.999-1.789-3.999-3.999V43.985c0-2.21,1.788-3.999,3.999-3.999
		c2.21,0,3.998,1.788,3.998,3.999v15.994C257.971,62.189,256.183,63.978,253.973,63.978z"/>
	<path style="fill:#116FFF;" d="M253.973,87.969h-14.745c-2.21,0-3.998-1.789-3.998-3.999s1.788-3.998,3.998-3.998h14.745
		c2.21,0,3.998,1.788,3.998,3.998S256.183,87.969,253.973,87.969z"/>
	<path style="fill:#116FFF;" d="M253.973,95.966c-2.211,0-3.999-1.789-3.999-3.999V75.973c0-2.21,1.788-3.998,3.999-3.998
		c2.21,0,3.998,1.788,3.998,3.998v15.994C257.971,94.177,256.183,95.966,253.973,95.966z"/>
	<path style="fill:#116FFF;" d="M205.241,71.975h-15.244c-2.21,0-3.999-1.789-3.999-3.999s1.789-3.998,3.999-3.998h15.244
		c2.21,0,3.999,1.788,3.999,3.998S207.451,71.975,205.241,71.975z"/>
	<path style="fill:#116FFF;" d="M189.997,79.972c-2.21,0-3.999-1.789-3.999-3.999V59.979c0-2.21,1.789-3.998,3.999-3.998
		s3.999,1.788,3.999,3.998v15.994C193.995,78.183,192.207,79.972,189.997,79.972z"/>
	<path style="fill:#116FFF;" d="M204.241,103.963h-14.245c-2.21,0-3.999-1.789-3.999-3.999s1.789-3.998,3.999-3.998h14.245
		c2.21,0,3.999,1.788,3.999,3.998S206.452,103.963,204.241,103.963z"/>
	<path style="fill:#116FFF;" d="M189.997,111.96c-2.21,0-3.999-1.789-3.999-3.999V91.967c0-2.21,1.789-3.998,3.999-3.998
		s3.999,1.788,3.999,3.998v15.994C193.995,110.171,192.207,111.96,189.997,111.96z"/>
	<path style="fill:#116FFF;" d="M237.979,303.888h-31.988c-2.21,0-3.999-1.789-3.999-3.999s1.789-3.998,3.999-3.998h31.988
		c2.21,0,3.998,1.788,3.998,3.998S240.189,303.888,237.979,303.888z"/>
	<path style="fill:#116FFF;" d="M221.985,287.894c-2.21,0-3.999-1.788-3.999-3.999v-87.966c0-2.21,1.789-3.999,3.999-3.999
		s3.998,1.789,3.998,3.999v87.966C225.983,286.106,224.195,287.894,221.985,287.894z"/>
	<path style="fill:#116FFF;" d="M237.979,447.843h-31.988c-2.21,0-3.999-1.788-3.999-3.998c0-2.211,1.789-3.999,3.999-3.999h31.988
		c2.21,0,3.998,1.788,3.998,3.999C241.977,446.054,240.189,447.843,237.979,447.843z"/>
	<path style="fill:#116FFF;" d="M229.986,503.814c-0.188,0-0.379-0.008-0.57-0.039c-2.187-0.313-3.706-2.335-3.394-4.522
		l7.997-55.971c0.313-2.188,2.327-3.702,4.526-3.397c2.187,0.313,3.705,2.343,3.393,4.529l-7.997,55.972
		C233.656,502.377,231.946,503.814,229.986,503.814z"/>
	<path style="fill:#116FFF;" d="M213.984,503.814c-1.96,0-3.671-1.438-3.956-3.429l-7.997-55.972
		c-0.312-2.187,1.207-4.217,3.394-4.529c2.163-0.336,4.209,1.21,4.525,3.397l7.997,55.971c0.313,2.188-1.206,4.21-3.393,4.522
		C214.363,503.806,214.172,503.814,213.984,503.814z"/>
	<path style="fill:#116FFF;" d="M221.985,431.841c-2.21,0-3.999-1.788-3.999-3.998V315.884c0-2.21,1.789-3.998,3.999-3.998
		s3.998,1.788,3.998,3.998v111.959C225.983,430.052,224.195,431.841,221.985,431.841z"/>
	<path style="fill:#116FFF;" d="M237.979,431.841c-2.211,0-3.999-1.788-3.999-3.998V315.884c0-2.21,1.788-3.998,3.999-3.998
		c2.21,0,3.998,1.788,3.998,3.998v111.959C241.977,430.052,240.189,431.841,237.979,431.841z"/>
	<path style="fill:#116FFF;" d="M205.991,431.841c-2.21,0-3.999-1.788-3.999-3.998V315.884c0-2.21,1.789-3.998,3.999-3.998
		s3.998,1.788,3.998,3.998v111.959C209.989,430.052,208.201,431.841,205.991,431.841z"/>
	<path style="fill:#116FFF;" d="M245.976,375.861h-47.982c-2.21,0-3.999-1.788-3.999-3.998s1.789-3.999,3.999-3.999h47.982
		c2.21,0,3.998,1.789,3.998,3.999S248.186,375.861,245.976,375.861z"/>
	<path style="fill:#116FFF;" d="M381.922,511.811c-2.21,0-3.999-1.789-3.999-3.999V11.997c0-2.21,1.789-3.999,3.999-3.999
		s3.999,1.789,3.999,3.999v495.815C385.921,510.022,384.132,511.811,381.922,511.811z"/>
	<path style="fill:#116FFF;" d="M365.927,479.823c-2.21,0-3.998-1.789-3.998-3.998V4c0-2.21,1.788-3.999,3.998-3.999
		S369.926,1.79,369.926,4v471.825C369.927,478.034,368.137,479.823,365.927,479.823z"/>
	<path style="fill:#116FFF;" d="M381.922,479.823h-15.994c-2.21,0-3.998-1.789-3.998-3.998c0-2.211,1.788-3.999,3.998-3.999h15.994
		c2.21,0,3.999,1.788,3.999,3.999C385.921,478.034,384.132,479.823,381.922,479.823z"/>
	<path style="fill:#116FFF;" d="M381.922,455.832h-15.994c-2.21,0-3.998-1.788-3.998-3.999c0-2.21,1.788-3.998,3.998-3.998h15.994
		c2.21,0,3.999,1.788,3.999,3.998C385.921,454.044,384.132,455.832,381.922,455.832z"/>
	<path style="fill:#116FFF;" d="M381.922,15.995c-0.602,0-1.21-0.137-1.788-0.422l-15.995-7.997
		c-1.977-0.988-2.772-3.389-1.789-5.365c1-1.972,3.397-2.776,5.365-1.788l15.994,7.997c1.977,0.988,2.78,3.389,1.789,5.365
		C384.796,15.187,383.389,15.995,381.922,15.995z"/>
	<path style="fill:#116FFF;" d="M381.922,31.989h-15.994c-2.21,0-3.998-1.789-3.998-3.999s1.788-3.999,3.998-3.999h15.994
		c2.21,0,3.999,1.788,3.999,3.999C385.921,30.201,384.132,31.989,381.922,31.989z"/>
</g>
<g>
</g>
<g>
</g>
<g>
</g>
<g>
</g>
<g>
</g>
<g>
</g>
<g>
</g>
<g>
</g>
<g>
</g>
<g>
</g>
<g>
</g>
<g>
</g>
<g>
</g>
<g>
</g>
<g>
</g>
</svg>
